<svg width="248" height="248" viewBox="0 0 248 248" fill="none" xmlns="http://www.w3.org/2000/svg">
    <path fill-rule="evenodd" clip-rule="evenodd" d="M70.7881 133.612C71.0272 134.766 70.7597 135.971 70.3222 137.066C70.432 137.17 70.5414 137.275 70.6512 137.379C72.8399 135.675 75.0626 133.936 76.6541 131.664C77.3244 130.707 76.5325 129.309 75.4588 128.848C74.3851 128.387 73.1643 128.529 71.9967 128.48C70.592 128.42 69.2003 128.067 67.9374 127.449C66.1036 126.552 64.4211 125.071 62.3799 125.041C62.1547 125.038 61.9134 125.058 61.7361 125.198C61.3046 125.538 61.5681 126.23 61.8925 126.673C63.5019 128.875 65.9141 130.476 68.568 131.104C69.7154 131.375 70.549 132.457 70.7881 133.612Z" fill="#6776E0" />
    <path fill-rule="evenodd" clip-rule="evenodd" d="M105.999 167.242L76.9829 173.718C71.0524 175.041 65.1718 171.307 63.8481 165.376C63.2103 162.517 63.7384 159.523 65.3156 157.055L81.3249 132.003C86.2535 124.291 87.9038 114.932 85.9102 105.999L79.4344 76.9829C78.1108 71.0524 81.8453 65.1718 87.7758 63.8481C90.6345 63.2103 93.6293 63.7384 96.0971 65.3153L121.149 81.3249C128.861 86.2535 138.22 87.9038 147.153 85.9102L176.169 79.4341C182.099 78.1108 187.98 81.8453 189.304 87.7758C189.942 90.6345 189.414 93.6293 187.837 96.0971L171.827 121.149C166.898 128.861 165.248 138.22 167.242 147.153L173.718 176.169C175.041 182.099 171.307 187.98 165.376 189.304C162.517 189.942 159.523 189.413 157.055 187.837L132.003 171.827C124.291 166.898 114.932 165.248 105.999 167.242Z" fill="#6776E0" />
    <path d="M208.054 155.945C208.054 155.945 78.0178 156.014 26.5331 155.945C22.4922 147.136 27.5758 135.365 36.7596 132.267C33.8854 135.546 31.0113 138.824 28.1372 142.103C33.1867 142.052 208.054 142.103 208.054 142.103V155.945Z" fill="white" />
    <path fill-rule="evenodd" clip-rule="evenodd" d="M166.115 155.965C101.549 155.989 55.0219 155.983 26.5333 155.945C22.4923 147.136 121.576 150.846 159.148 150.846C196.721 150.846 179.338 155.959 166.115 155.965Z" fill="#E7EAEE" />
    <path fill-rule="evenodd" clip-rule="evenodd" d="M139.225 54.9538C139.684 54.4307 140.59 54.392 141.091 54.8741C139.471 51.6637 134.728 50.7014 133.709 47.2522C132.405 42.8372 130.481 38.6053 128.012 34.72C126.984 38.5398 125.021 42.1047 122.342 45.0153C121.645 45.0183 120.948 45.0216 120.251 45.0245C118.668 45.0318 117.07 45.0404 115.524 45.3807C112.742 45.9931 110.248 47.6523 107.43 48.065C107.639 47.8035 107.847 47.5419 108.056 47.28C107.998 47.0102 107.607 46.8865 107.404 47.0743C107.047 45.6541 105.897 44.5391 104.593 43.8742C103.288 43.2095 101.364 41.9722 97.5129 42.2975C102.185 47.5277 100.738 69.3008 101.888 73.4272C102.279 73.5317 102.58 73.1031 102.835 72.7876C103.09 72.4722 103.685 72.2781 103.823 72.66C104.78 75.3126 104.916 79.395 107.849 80.9756C108.415 81.2805 108.752 80.7108 108.708 80.433C108.652 80.0785 109.078 79.8054 109.433 79.8593C109.788 79.9129 110.072 80.1701 110.348 80.3986C115.015 84.2515 122.655 82.2656 127.327 86.1119C128.25 86.8717 129.064 87.8621 130.216 88.1822C130.903 88.373 131.636 88.2979 132.338 88.1719C136.52 87.4223 140.243 84.941 143.148 81.8403C146.052 78.7397 148.221 75.0322 150.24 71.294C148.38 70.2405 146.424 69.0924 145.413 67.2083C144.617 65.7239 144.127 63.5964 142.453 63.4149C142.984 65.14 143.515 66.8654 144.046 68.5905C144.241 69.2224 144.437 69.8811 144.335 70.5342C144.232 71.1869 143.733 71.8284 143.073 71.8615C142.177 71.9064 141.546 70.8926 140.656 70.7772C140.488 74.114 139.206 77.3852 137.064 79.9489C136.32 80.8384 134.891 81.6462 134.136 80.766C135.281 78.9159 136.427 77.0655 137.572 75.2154C138.286 74.0624 139.018 72.8561 139.149 71.5063C139.28 70.1569 138.61 68.6259 137.313 68.2324C137.255 67.8753 137.631 67.5691 137.993 67.5582C138.354 67.5476 138.687 67.739 138.997 67.9242C140.152 68.613 141.308 69.3021 142.463 69.9912C142.094 67.252 141.34 64.5646 140.231 62.0334C141.306 61.9315 142.406 62.0955 143.404 62.5076C142.635 60.2835 141.226 58.2853 139.389 56.8148C138.845 56.38 138.766 55.4769 139.225 54.9538Z" fill="white" />
    <path fill-rule="evenodd" clip-rule="evenodd" d="M116.154 49.0508C117.106 49.6807 117.857 50.6095 118.273 51.6723C118.403 52.0026 118.771 52.162 119.019 52.4159C119.267 52.6696 119.308 53.2119 118.96 53.283C118.808 53.3137 118.659 53.23 118.525 53.1504C116.392 51.8763 113.797 50.8476 111.469 51.7179C111.852 51.9133 112.045 52.415 111.892 52.8167C112.367 52.8339 112.811 53.0475 113.237 53.2572C113.613 53.4417 113.989 53.6259 114.365 53.8104C114.326 53.9215 114.286 54.0326 114.247 54.1433C112.547 53.278 110.471 53.1881 108.703 53.9033C109.291 53.9926 109.889 54.0088 110.481 53.9516C111.344 54.3864 112.206 54.8212 113.069 55.256C113.261 55.3526 113.464 55.4591 113.571 55.6449C113.68 55.8307 113.638 56.1188 113.438 56.1955C111.879 54.8206 109.674 54.2128 107.631 54.5947C107.393 54.639 107.229 54.3067 107.33 54.0861C107.432 53.8656 107.674 53.7525 107.9 53.6639C109.032 53.2178 110.227 52.9295 111.438 52.8094C110.832 52.2476 110.131 51.7897 109.372 51.4613C109.248 51.0344 109.864 50.6254 110.209 50.9058C112.832 50.3916 115.642 50.9018 117.917 52.3052C117.936 51.8591 117.605 51.4838 117.295 51.1617C116.327 50.1555 115.359 49.1493 114.391 48.1431C116.086 48.3577 117.748 48.8352 119.298 49.5524C119.649 49.7147 119.995 49.89 120.313 50.1099C121.509 50.9382 122.221 52.4196 122.12 53.8712C121.396 52.3396 120.249 51.0103 118.84 50.0692C118.034 49.5315 117.121 49.1126 116.154 49.0508Z" fill="#E7EAEE" />
    <path fill-rule="evenodd" clip-rule="evenodd" d="M54.5395 121.444C52.085 123.647 52.2996 127.545 53.1854 130.722C54.3252 134.81 56.2527 138.676 58.8306 142.046L28.1372 142.354L36.7596 132.518C27.5758 135.616 22.4922 147.387 26.5331 156.196C78.0178 156.265 129.502 156.16 180.986 155.88C171.596 162.227 162.493 169.926 158.129 180.386C153.766 190.846 155.572 204.599 164.849 211.11C168.304 213.536 172.453 214.779 176.601 215.564C180.878 216.374 186.057 216.408 188.697 212.947C190.238 210.926 189.501 207.754 188.772 204.617C188.264 202.429 187.76 200.258 188.035 198.506C188.97 192.566 192.969 189.554 197.532 186.116C198.491 185.394 199.474 184.654 200.459 183.863C208.871 177.112 218.514 168.576 220.969 158.073C223.211 148.479 220.744 138.963 214.33 131.484C212.021 128.791 209.182 126.34 206.329 123.877C202.496 120.566 198.636 117.234 196.001 113.262C194.391 110.836 193.827 108.243 193.235 105.523C193.023 104.546 192.806 103.553 192.537 102.545C189.08 89.606 176.751 82.953 164.055 76.1026L164.055 76.1023L164.054 76.1019L164.052 76.1009C162.445 75.2339 160.833 74.3636 159.232 73.4771C151.884 69.4092 144.469 64.2026 142.11 56.0523C143.411 56.1029 143.894 54.1476 143.144 53.0829C142.586 52.2913 141.706 51.8459 140.827 51.4015C140.524 51.2484 140.222 51.0953 139.933 50.9283C137.25 49.3774 135.713 46.2136 134.138 42.9738C131.772 38.106 129.322 33.0667 122.782 33.0667C122.535 34.718 122.79 36.1895 123.029 37.568C123.399 39.6982 123.73 41.6068 122.111 43.6166C117.476 43.1027 112.684 44.1162 108.654 46.4629C106.324 42.04 100.416 40.1505 95.6258 41.5823C96.2323 42.3458 96.592 42.7287 96.89 43.0462C97.5199 43.7168 97.8754 44.095 99.7026 47.1511C102.395 51.6534 100.689 68.2053 100.263 70.8225C99.8372 73.4394 101.854 75.2991 103.698 74.0068C102.8 77.8855 106.036 81.5874 110.016 81.6988C111.375 81.9412 112.22 82.5989 113.019 83.2202C113.515 83.6067 113.994 83.9794 114.567 84.2294C101.93 93.2685 87.9398 100.413 73.2083 105.352L72.949 105.439C70.1926 106.361 67.3115 107.325 65.3596 109.468C63.3468 111.677 62.874 115.598 65.2164 117.455C63.7863 118.752 61.8291 119.104 59.8712 119.457C57.9212 119.808 55.9706 120.16 54.5395 121.444ZM185.088 138.937C182.807 141.092 178.342 141.205 175.204 141.192L134.513 141.026C133.338 139.464 134.065 137.063 135.583 135.832C137.102 134.601 139.147 134.27 141.095 134.115C147.385 133.617 153.782 134.521 159.688 136.742C161.346 137.037 162.605 134.944 162.204 133.309C161.803 131.673 160.41 130.503 159.115 129.426C154.935 125.954 150.836 122.043 148.873 116.975C146.839 111.719 147.429 105.518 150.419 100.741C145.399 104.911 144.344 112.577 146.598 118.702C148.853 124.826 153.804 129.59 159.168 133.307C156.239 133.908 153.197 133.239 150.186 132.576C146.538 131.774 142.935 130.981 139.631 132.47L138.949 113.885L137.183 130.175C137.052 131.386 136.671 132.885 135.473 133.11C132.224 133.722 130.297 137.977 131.982 140.823C130.53 141.802 128.315 141.364 127.345 139.905C126.376 138.446 126.83 136.234 128.296 135.275C131.852 132.949 132.133 127.938 132.037 123.69L131.369 94.3613C131.353 93.6534 131.513 92.7226 132.214 92.625C142.481 91.1985 151.61 83.4844 154.728 73.5991C163.827 77.6749 172.927 82.3747 180.269 88.8468C197.071 103.658 192.463 115.974 191.257 119.196C191.046 119.76 190.939 120.046 191.07 120.016C191.908 119.829 192.305 118.886 192.537 118.059C193.079 116.128 193.432 114.144 193.589 112.145C196.362 117.297 200.777 121.211 205.201 125.133C209.245 128.717 213.295 132.308 216.106 136.857C220.442 143.871 221.349 152.899 218.497 160.636C215.127 169.776 207.383 176.169 199.745 182.475C197.909 183.991 196.08 185.501 194.319 187.043C190.633 190.271 186.925 194.27 186.806 199.167C186.774 200.48 187.008 201.773 187.243 203.069C187.409 203.985 187.575 204.902 187.647 205.827C187.822 208.06 187.271 210.602 185.379 211.803C184.582 212.309 183.633 212.517 182.698 212.653C173.003 214.053 161.127 207.492 158.361 198.095C155.647 188.874 160.411 177.498 166.67 170.202C170.558 165.67 175.589 162.431 180.637 159.182C183.715 157.201 186.799 155.215 189.633 152.931C192.29 150.79 194.913 148.482 196.594 145.513C198.275 142.544 198.879 138.769 197.369 135.71C196.131 133.202 193.692 131.461 191.301 129.754C188.294 127.607 185.361 125.513 184.987 122.017C185.033 123.588 185.696 125.348 186.354 127.092C186.927 128.613 187.495 130.122 187.646 131.484C187.971 134.407 187.226 136.917 185.088 138.937ZM190.036 132.942C194.121 132.987 196.52 138.157 195.37 142.077C194.221 145.997 190.847 148.787 187.646 151.326C186.041 152.6 184.268 153.936 182.219 153.951L27.6932 155.107L27.0162 143.12L56.8185 143.091C60.6734 143.088 65.0441 143.308 67.5552 146.233C68.4682 147.297 70.0941 146.138 71.2081 145.288C73.8471 143.272 77.4306 143.174 80.7511 143.16L189.784 142.718C190.953 142.713 192.526 142.32 192.488 141.152L185.156 140.876C187.789 139.064 189.606 136.109 190.036 132.942ZM76.6409 141.791C78.2764 137.841 79.5174 133.727 80.3391 129.531C80.5699 128.353 80.7683 127.146 80.6116 125.956C80.1407 122.383 76.7484 120.032 73.6315 118.223C74.9618 118.196 76.0967 117.256 76.9504 116.236C77.1882 115.952 77.415 115.656 77.6419 115.361C78.2305 114.594 78.8187 113.829 79.5941 113.262C81.1846 112.1 81.4392 112.079 84.7251 111.809H84.7257L84.7367 111.808C85.072 111.781 85.4383 111.751 85.8411 111.717C88.7308 111.472 95.7188 108.839 100.821 106.916C103.424 105.936 105.537 105.14 106.364 104.94C117.68 102.209 125.525 105.785 127.291 107.712C128.255 108.764 128.492 110.271 128.686 111.685C129.557 118.044 130.429 124.503 129.511 130.856C129.34 132.041 129.023 133.349 128.017 134C127.009 134.653 126.059 135.397 125.184 136.22C123.78 137.539 122.518 139.681 123.609 141.269L76.6409 141.791ZM141.057 54.4026C140.556 53.9205 139.65 53.9592 139.191 54.4823C138.732 55.0054 138.811 55.9081 139.355 56.3433C141.192 57.8137 142.601 59.812 143.37 62.0357C142.372 61.624 141.272 61.4597 140.197 61.5615C141.306 64.0931 142.06 66.7801 142.429 69.5197L138.963 67.4523C138.653 67.2672 138.32 67.076 137.959 67.0866C137.597 67.0972 137.221 67.4037 137.279 67.7605C138.576 68.154 139.245 69.685 139.115 71.0348C138.984 72.3846 138.252 73.5908 137.538 74.7439L134.102 80.2941C134.857 81.1747 136.286 80.3669 137.03 79.477C139.172 76.9134 140.454 73.6424 140.622 70.3053C141.036 70.3592 141.393 70.6066 141.747 70.8516C142.155 71.1343 142.559 71.4141 143.039 71.3899C143.699 71.3569 144.198 70.7154 144.301 70.0623C144.403 69.4096 144.207 68.7505 144.012 68.119L142.419 62.9434C143.718 63.0839 144.304 64.396 144.873 65.6701C145.038 66.0384 145.201 66.4038 145.379 66.7368C146.39 68.6206 148.346 69.769 150.206 70.8225C148.187 74.5607 146.018 78.2681 143.114 81.3688C140.209 84.4694 136.486 86.9508 132.304 87.7001C131.602 87.826 130.869 87.9014 130.182 87.7103C129.32 87.4712 128.648 86.8572 127.978 86.2448C127.752 86.0385 127.526 85.8318 127.293 85.64C124.959 83.7182 121.883 83.2526 118.807 82.787C115.728 82.3208 112.649 81.8545 110.314 79.9271L110.285 79.9023L110.248 79.8719C109.992 79.6589 109.725 79.437 109.399 79.3874C109.044 79.3335 108.618 79.607 108.674 79.9615C108.718 80.2392 108.381 80.809 107.815 80.5038C105.632 79.3276 104.998 76.7662 104.423 74.4397C104.224 73.6394 104.033 72.867 103.789 72.1882C103.651 71.8066 103.056 72.0003 102.801 72.3161L102.785 72.3353C102.77 72.3545 102.754 72.374 102.738 72.3935C102.497 72.6967 102.214 73.0519 101.854 72.9553C101.423 71.3724 101.573 69.5832 101.718 67.8521C101.777 67.1475 101.836 66.4524 101.854 65.7848C101.855 65.7243 101.874 65.5418 101.903 65.2557C102.237 61.9973 103.946 45.2917 97.5136 42.2975C99.0429 41.9963 101.511 42.2751 103.698 43.6166C105.911 44.9736 107.5 47.4619 107.396 47.5935C108.924 47.3696 110.356 46.7794 111.791 46.1885C113.003 45.6892 114.216 45.1896 115.49 44.9091C117.036 44.5686 118.634 44.56 120.217 44.553L122.308 44.5434C124.56 42.0962 124.473 39.4154 124.372 36.3065V36.3059C124.353 35.7176 124.333 35.1138 124.329 34.4935C128.233 35.0063 132.371 42.3653 133.675 46.7807C134.22 48.6248 135.829 49.758 137.456 50.9041C138.873 51.9014 140.303 52.9086 141.057 54.4026ZM74.5164 106.463C74.9635 106.349 75.4079 106.236 75.8463 106.12C82.5529 104.346 88.8121 101.223 95.0174 98.121C102.41 94.4255 109.93 90.6407 115.861 84.8841C116.32 84.4394 117.047 84.4701 117.68 84.5518C120.023 84.8537 122.328 85.4519 124.522 86.3271C125.672 86.7858 126.964 87.5737 126.972 88.8114C126.975 89.2472 126.808 89.6639 126.643 90.0673L125.539 92.7748C125.068 93.9298 124.588 95.1278 124.629 96.3748C124.67 97.6214 125.378 98.9374 126.577 99.28C127.777 99.6226 129.258 98.5066 128.948 97.2983C128.418 95.229 128.054 93.117 127.864 90.9895C130.201 95.6179 129.395 101.14 128.533 106.253C125.44 104.624 122.202 103.269 118.869 102.209C117.725 101.846 116.442 101.525 115.361 102.048C112.714 103.328 107.732 103.669 107.241 103.325C106.75 102.981 106.079 103.147 105.514 103.346C104.604 103.665 102.869 104.342 100.796 105.15L100.796 105.15H100.795H100.795V105.15C95.7092 107.133 88.5899 109.908 86.6297 110.157C86.1139 110.222 85.5951 110.27 85.0762 110.319H85.0759C83.954 110.423 82.8323 110.528 81.7421 110.804C80.1473 111.207 78.5753 112.043 77.7312 113.455C77.1006 113.108 76.7071 112.495 76.3113 111.878C76.1201 111.581 75.9287 111.283 75.7098 111.013C75.0372 110.184 73.6253 109.673 72.9805 110.523C72.4147 108.589 69.5508 107.842 68.1124 109.254C67.8902 109.472 67.7047 109.723 67.5192 109.975C67.3264 110.236 67.1336 110.498 66.8998 110.722C66.4405 111.161 65.7055 111.431 65.1728 111.085C67.3502 108.282 71.016 107.351 74.5164 106.463ZM67.4186 141.596C65.7756 142.188 63.9629 141.612 62.333 140.985C60.7921 140.393 59.1841 139.687 58.2479 138.328C57.1217 136.692 57.243 134.533 57.409 132.554L58.1041 124.262C57.0731 125.129 56.3158 126.317 55.965 127.618C55.1317 125.78 56.3711 123.325 58.3448 122.903C57.5109 122.213 56.1386 122.666 55.55 123.575C54.9614 124.483 54.9747 125.654 55.1469 126.723C55.1932 127.011 55.2498 127.299 55.3063 127.586V127.587C55.4594 128.366 55.6122 129.146 55.5652 129.935C54.3262 127.999 54.0901 125.457 54.9512 123.326C55.341 122.361 56.0325 121.417 57.043 121.168C58.0538 120.92 59.3047 121.746 59.1374 122.773C58.7535 125.127 59.8513 127.544 61.5351 129.234C63.2185 130.924 65.4247 131.989 67.6514 132.844C68.4712 133.158 69.4903 133.879 69.0905 134.661C68.6732 135.477 68.3852 136.401 68.5287 137.307C68.6719 138.213 69.3355 139.078 70.2389 139.234C71.3526 139.427 72.3436 138.564 73.1441 137.766L77.8743 133.054C77.2441 134.805 76.5044 136.517 75.6618 138.177C75.0845 139.313 74.4242 140.465 73.3806 141.197C72.3367 141.929 70.809 142.12 69.8216 141.313C69.2717 140.863 68.5211 141.162 67.8227 141.441H67.8224L67.8221 141.441C67.6848 141.496 67.5496 141.549 67.4186 141.596ZM66.9504 125.106C66.509 124.813 66.0675 124.52 65.6099 124.263C64.1923 123.463 62.3098 123.033 61.0087 124.01C60.5914 122.668 61.4161 121.226 62.4917 120.32C64.3944 118.718 67.1839 118.248 69.5065 119.139C71.7084 119.983 73.9434 120.902 75.6923 122.483C77.4415 124.065 78.6372 126.457 78.1878 128.772C77.6961 128.892 77.2854 128.497 76.9018 128.127C76.8288 128.057 76.7563 127.987 76.6849 127.923C75.597 126.939 74.1051 126.912 72.5843 126.885C71.6598 126.868 70.7247 126.852 69.8636 126.62C68.7995 126.333 67.876 125.72 66.9504 125.106ZM70.3226 137.066C70.76 135.971 71.0275 134.766 70.7885 133.612C70.5494 132.457 69.7155 131.376 68.5684 131.104C65.9144 130.476 63.5019 128.875 61.8929 126.673C61.5685 126.23 61.3046 125.538 61.7365 125.198C61.9137 125.058 62.1548 125.038 62.3803 125.041C63.8336 125.063 65.105 125.819 66.3787 126.577C66.8939 126.884 67.4094 127.191 67.9375 127.449C69.2006 128.067 70.5921 128.421 71.9971 128.48C72.2785 128.492 72.5632 128.493 72.8482 128.494C73.7446 128.496 74.6444 128.498 75.4591 128.849C76.5328 129.309 77.3248 130.707 76.6545 131.664C75.063 133.936 72.8403 135.675 70.6512 137.379L70.3226 137.066ZM150.88 72.1283C151.124 71.6872 151.487 71.1803 151.988 71.2372C152.637 71.3112 152.767 72.1968 152.678 72.8435C152.046 77.4332 149.205 81.5139 145.591 84.4122C141.976 87.3109 137.628 89.1457 133.229 90.6003C132.927 90.7002 132.63 90.8887 132.339 91.0738C131.783 91.4277 131.246 91.7692 130.724 91.4564C130.123 91.0957 130.276 90.1063 130.824 89.6675C131.32 89.2697 131.982 89.1844 132.619 89.1021C132.684 89.0938 132.749 89.0856 132.813 89.0766C137.066 88.5042 140.865 85.9809 143.77 82.8227C146.676 79.6645 148.802 75.883 150.88 72.1283ZM72.0199 110.788C72.4028 111.245 72.8251 111.747 73.4067 111.735C73.8957 111.724 74.2003 112.122 74.5161 112.533C74.7399 112.825 74.9694 113.124 75.274 113.29C76.0024 113.687 76.0649 114.793 75.5868 115.471C75.1086 116.149 74.279 116.479 73.4765 116.688C71.8397 117.116 70.1116 117.19 68.4447 116.904C67.3575 116.717 66.2302 116.334 65.5451 115.47C64.8596 114.605 64.8401 113.153 65.7475 112.526C66.051 112.316 66.4164 112.218 66.7798 112.121C67.213 112.005 67.6432 111.89 67.9619 111.587C68.1987 111.362 68.3402 111.061 68.4817 110.761C68.6302 110.447 68.778 110.134 69.0346 109.907C69.4499 109.541 70.0795 109.491 70.6023 109.674C71.1251 109.857 71.5546 110.24 71.9137 110.662L71.9468 110.702L71.966 110.724L72.0199 110.788ZM68.9553 144.538C68.7869 144.604 68.5975 144.615 68.4229 144.568C68.2542 144.523 68.1002 144.424 67.989 144.289C67.5364 143.74 68.1673 142.748 68.8561 142.926C69.5445 143.104 69.6169 144.277 68.9553 144.538ZM124.948 141.096C124.781 141.297 124.372 141.276 124.329 141.018C124.15 139.958 124.065 138.654 124.942 138.032L125.091 140.345C125.108 140.606 125.116 140.896 124.948 141.096ZM116.155 47.3974C117.107 48.0273 117.858 48.9562 118.274 50.0189C118.359 50.2355 118.546 50.3787 118.735 50.5229C118.834 50.5989 118.934 50.675 119.019 50.7626C119.268 51.0162 119.309 51.5585 118.961 51.6296C118.809 51.6604 118.659 51.5767 118.526 51.497C116.392 50.223 113.797 49.1943 111.469 50.0646C111.852 50.26 112.045 50.7616 111.893 51.1634C112.368 51.1806 112.811 51.3942 113.238 51.6038L114.366 52.157L114.247 52.49C112.548 51.6247 110.472 51.5347 108.704 52.2499C109.291 52.3392 109.89 52.3554 110.482 52.2982L113.07 53.6027C113.262 53.6993 113.464 53.8057 113.572 53.9916C113.68 54.1774 113.639 54.4654 113.438 54.5421C111.879 53.1672 109.675 52.5594 107.631 52.9414C107.393 52.9857 107.23 52.6534 107.331 52.4328C107.432 52.2122 107.675 52.0992 107.901 52.0105C109.033 51.5645 110.227 51.2761 111.439 51.1561C110.833 50.5943 110.131 50.1367 109.373 49.808C109.248 49.3811 109.864 48.972 110.209 49.2525C112.832 48.7383 115.643 49.2485 117.917 50.6518C117.937 50.2058 117.606 49.8305 117.296 49.5084L114.392 46.4897C116.087 46.7043 117.748 47.1818 119.299 47.899C119.65 48.0614 119.996 48.2366 120.314 48.4565C121.51 49.2849 122.222 50.7662 122.121 52.2179C121.396 50.6862 120.249 49.3569 118.84 48.4159C118.035 47.8782 117.121 47.4592 116.155 47.3974ZM122.127 61.4931C121.962 60.2124 121.955 58.8461 122.564 57.7073C122.746 57.3667 122.999 57.0397 123.358 56.8968C123.907 56.6786 124.539 56.9573 124.972 57.3594C126.047 58.3567 126.275 59.9727 126.183 61.4359C126.143 62.0714 126.049 62.7218 125.738 63.2774C125.426 63.8329 124.856 64.2799 124.219 64.2892C123.58 64.2988 122.996 63.8663 122.663 63.32C122.33 62.7737 122.208 62.1273 122.127 61.4931ZM106.833 66.258C105.625 64.4089 105.707 61.8082 107.028 60.0381C107.186 59.8268 107.366 59.6218 107.6 59.5008C108.057 59.2654 108.641 59.4072 109.037 59.7352C109.433 60.0633 109.671 60.5437 109.843 61.0282C110.354 62.4632 110.375 64.0673 109.902 65.515C109.616 66.3932 108.905 67.3432 107.995 67.1845C107.493 67.0969 107.112 66.6849 106.833 66.258ZM118.439 75.7554C118.584 75.715 118.728 75.675 118.835 75.5729C119.062 75.3563 118.982 74.9376 118.725 74.7581C118.468 74.5789 118.107 74.61 117.833 74.7617C117.555 74.9158 117.335 75.22 117.382 75.5338C117.429 75.8476 117.83 76.0821 118.088 75.8976C118.191 75.8245 118.315 75.7898 118.439 75.7554ZM121.701 70.6572C123.707 70.2127 124.828 70.269 126.549 70.7078L126.912 70.8023C128.629 71.2507 129.701 71.2527 131.881 70.5461C132.141 70.4617 132.421 70.6043 132.505 70.8648C132.59 71.1257 128.613 72.2556 126.795 71.7963L126.46 71.7094C124.786 71.2696 123.812 71.2054 121.915 71.6257C121.648 71.6849 121.383 71.5162 121.324 71.2487C121.265 70.9812 121.433 70.7167 121.701 70.6572ZM137.456 65.8668C137.335 65.6211 137.038 65.5199 136.792 65.641C133.262 67.3783 131.306 67.6048 128.087 67.1938L127.275 67.0932C127.183 67.0827 127.101 67.0741 127.016 67.0658L126.726 67.04C124.809 66.8892 123.29 67.2146 121.34 68.3789C121.105 68.5194 121.028 68.824 121.169 69.0591C121.309 69.2942 121.614 69.3712 121.849 69.2307C123.663 68.1471 125.002 67.8786 126.792 68.0413C126.911 68.0518 127.01 68.0618 127.124 68.0743L128.315 68.2208C131.513 68.5922 137.577 66.1125 137.456 65.8668ZM112.967 70.5232C113.241 70.5037 113.478 70.7094 113.497 70.9829C113.517 71.256 113.311 71.4931 113.038 71.5126C111.907 71.5933 111.128 71.9779 109.959 72.9199L109.536 73.2691L109.398 73.3852C109.323 73.4477 109.26 73.5006 109.236 73.5204C108.206 74.3795 107.519 74.8477 106.609 75.2214C106.355 75.3252 104.605 75.6813 105.961 74.9505C107.318 74.2198 109.086 72.3528 109.086 72.3528L109.345 72.1409C110.657 71.085 111.595 70.6208 112.967 70.5232ZM113.712 72.8961C113.604 72.6441 113.313 72.5271 113.061 72.6346C111.816 73.1659 111.115 73.8455 109.937 75.387L109.573 75.8602C109.335 76.1651 109.135 76.4729 108.941 76.7715C108.514 77.4299 108.115 78.0443 107.395 78.487C106.348 79.1305 107.844 78.7932 108.077 78.6497C109.006 78.0783 109.609 77.4477 110.549 76.2196L110.822 75.8632C111.843 74.5399 112.439 73.9787 113.45 73.5469C113.702 73.4394 113.819 73.1481 113.712 72.8961Z" fill="#00160A" />
    <path fill-rule="evenodd" clip-rule="evenodd" d="M115.449 71.3209C115.043 70.9552 114.454 70.8431 114.057 70.4671C113.682 70.1106 113.538 69.5297 113.704 69.039C113.87 68.5486 114.338 68.1746 114.853 68.12C116.33 67.9633 117.807 67.8069 119.284 67.6502C119.635 67.6131 120.022 67.585 120.306 67.794C120.74 68.1131 120.671 68.8101 120.358 69.2479C120.045 69.6854 119.562 69.9675 119.184 70.351C118.697 70.8454 118.393 71.5156 118.341 72.2074C118.302 72.7213 118.358 73.3337 117.951 73.6494C117.44 74.0456 116.684 73.5774 116.371 73.0113C116.058 72.4452 115.929 71.7537 115.449 71.3209Z" fill="#FFB61D" />
    <path fill-rule="evenodd" clip-rule="evenodd" d="M175.348 141.332C178.486 141.345 182.951 141.232 185.232 139.077C187.37 137.057 188.115 134.547 187.79 131.623C187.465 128.7 185.216 125.097 185.131 122.157C185.802 128.434 194.719 130.189 197.512 135.849C199.022 138.909 198.419 142.683 196.737 145.652C195.057 148.621 192.433 150.929 189.777 153.07C182.293 159.102 173.072 163.046 166.813 170.342C160.555 177.637 155.791 189.014 158.505 198.235C161.27 207.632 173.146 214.192 182.841 212.792C183.777 212.657 184.725 212.449 185.523 211.942C187.414 210.741 187.965 208.2 187.791 205.966C187.616 203.733 186.895 201.547 186.949 199.307C187.068 194.409 190.776 190.41 194.462 187.182C203.552 179.223 214.461 172.112 218.64 160.776C221.492 153.039 220.585 144.011 216.25 136.997C210.363 127.471 199.04 122.145 193.733 112.285C193.576 114.284 193.222 116.268 192.68 118.199C192.449 119.025 192.051 119.969 191.213 120.156C190.334 120.352 200.158 106.393 180.412 88.9864C173.07 82.5142 163.97 77.8144 154.871 73.7386C151.753 83.6239 142.625 91.3381 132.358 92.7645C131.656 92.8621 131.496 93.7929 131.512 94.5009C131.735 104.277 131.957 114.054 132.18 123.83C132.277 128.078 131.995 133.089 128.44 135.415C126.973 136.374 126.519 138.586 127.489 140.045C128.458 141.504 130.673 141.942 132.125 140.962C130.441 138.117 132.367 133.861 135.617 133.25C136.814 133.025 137.195 131.526 137.327 130.315C137.915 124.885 138.504 119.455 139.093 114.024C139.32 120.219 139.547 126.415 139.774 132.609C145.805 129.892 152.832 134.775 159.312 133.447C153.947 129.73 148.996 124.966 146.742 118.841C144.487 112.717 145.542 105.051 150.562 100.88C147.572 105.658 146.982 111.858 149.017 117.114C150.979 122.182 155.078 126.093 159.258 129.566C160.554 130.642 161.947 131.812 162.348 133.448C162.749 135.084 161.489 137.176 159.831 136.882C153.925 134.661 147.528 133.757 141.239 134.255C139.29 134.409 137.245 134.741 135.727 135.972C134.208 137.203 133.481 139.603 134.657 141.166C148.22 141.221 161.784 141.276 175.348 141.332Z" fill="white" />
    <path fill-rule="evenodd" clip-rule="evenodd" d="M182.698 212.653C183.634 212.518 184.582 212.309 185.38 211.803C187.271 210.602 187.823 208.06 187.648 205.827C187.473 203.593 186.752 201.407 186.806 199.168C186.925 194.27 190.633 190.271 194.319 187.043C203.409 179.084 214.318 171.972 218.497 160.636C220.17 156.097 199.16 169.977 187.648 186.318C179.536 197.832 178.691 213.232 182.698 212.653Z" fill="#E7EAEE" />
    <path fill-rule="evenodd" clip-rule="evenodd" d="M190.427 99.778C189.002 96.3483 185.032 93.0463 180.269 88.8468C172.927 82.3747 163.826 77.6749 154.728 73.5991C163.65 80.0987 174.527 85.524 182.266 93.6815C186.039 97.6571 188.591 105.67 190.724 108.245C192.356 110.216 194.489 109.559 190.427 99.778Z" fill="#E7EAEE" />
    <path fill-rule="evenodd" clip-rule="evenodd" d="M127.556 98.4328C127.88 97.7262 128.107 94.4658 126.403 94.4658C125.34 95.6728 125.449 97.9891 127.556 98.4328Z" fill="#FFB61D" />
    <path fill-rule="evenodd" clip-rule="evenodd" d="M75.846 106.12C71.9762 107.144 67.628 107.924 65.1724 111.085C65.7051 111.431 66.4402 111.161 66.8995 110.721C67.3585 110.282 67.6587 109.699 68.1121 109.254C69.5505 107.842 72.4144 108.589 72.9801 110.523C73.6249 109.673 75.0369 110.184 75.7095 111.013C76.382 111.841 76.796 112.941 77.7308 113.455C78.575 112.043 80.147 111.207 81.7418 110.804C83.3366 110.401 84.9975 110.363 86.6294 110.157C89.3885 109.807 92.0844 108.964 94.5512 107.68C94.401 107.988 104.622 103.556 113.974 102.913C120.804 102.444 127.227 105.565 128.532 106.253C129.394 101.14 130.2 95.6179 127.863 90.9895C128.054 93.1171 128.417 95.229 128.948 97.2983C129.258 98.5066 127.776 99.6226 126.577 99.28C125.377 98.9374 124.669 97.6214 124.629 96.3748C124.588 95.1278 125.067 93.9298 125.539 92.7748C125.907 91.8724 126.275 90.9697 126.643 90.0673C126.808 89.6639 126.975 89.2473 126.972 88.8114C126.964 87.5738 125.671 86.7858 124.521 86.3271C122.327 85.4519 120.023 84.8537 117.68 84.5518C117.046 84.4701 116.32 84.4394 115.861 84.8841C109.93 90.6407 102.41 94.4255 95.0171 98.121C88.8118 101.223 82.5526 104.346 75.846 106.12Z" fill="white" />
    <path fill-rule="evenodd" clip-rule="evenodd" d="M77.7311 113.455C78.575 112.043 80.1473 111.207 81.7418 110.804C83.3366 110.4 84.9975 110.363 86.6297 110.157C87.2662 110.076 89.8811 109.663 93.2751 108.472C98.1822 106.75 104.919 104.002 111.337 103.302C119.715 102.389 127.185 105.543 128.533 106.253C129.394 101.14 126.48 101.754 124.916 101.593C90.3256 98.0199 76.7963 112.941 77.7311 113.455Z" fill="#E7EAEE" />
</svg>
    