<svg width="32" height="32" viewBox="0 0 32 32" fill="none" xmlns="http://www.w3.org/2000/svg">
    <path d="M27.3333 16C27.7015 16 28.0019 15.7013 27.9815 15.3337C27.8478 12.9288 26.9928 10.6139 25.5202 8.69491C24.0477 6.77588 22.033 5.35087 19.7447 4.59928C19.3949 4.48439 19.0286 4.69724 18.9333 5.05289L16.2249 15.1608C16.1114 15.5842 16.4305 16 16.8688 16H27.3333Z" fill="#101432" />
    <path d="M4.66667 16C4.29848 16 3.99807 16.2987 4.01851 16.6663C4.15222 19.0712 5.00724 21.3861 6.47976 23.3051C7.95228 25.2241 9.96696 26.6491 12.2553 27.4007C12.6051 27.5156 12.9714 27.3028 13.0667 26.9471L15.7751 16.8392C15.8886 16.4158 15.5695 16 15.1312 16L4.66667 16Z" fill="#6776E0" />
    <circle cx="10" cy="9.66667" r="2.66667" fill="#101432" />
    <circle cx="22.3333" cy="22" r="2.66667" fill="#6776E0" />
</svg>
    