<svg width="114" height="32" viewBox="0 0 114 32" fill="none" xmlns="http://www.w3.org/2000/svg">
    <path d="M48.3047 21.138H40.9609L39.4634 25.4402C39.4401 25.5072 39.3769 25.5521 39.306 25.5521H36.2411C36.1246 25.5521 36.044 25.4355 36.0852 25.3265L42.639 7.97669C42.9534 7.14445 43.7502 6.59373 44.6398 6.59373V6.59373C45.529 6.59373 46.3254 7.14388 46.6401 7.97549L53.2063 25.3264C53.2475 25.4354 53.167 25.5521 53.0504 25.5521H49.9723C49.9015 25.5521 49.8385 25.5074 49.815 25.4406L48.3047 21.138ZM41.8854 18.4817H47.3802L44.92 10.8777C44.8201 10.5689 44.3827 10.5705 44.285 10.88L41.8854 18.4817Z" fill="#101432" />
    <path d="M69.4497 19.3802C69.5479 19.3802 69.625 19.4648 69.614 19.5624C69.3962 21.4979 68.6559 23.017 67.3932 24.1198C66.0911 25.2482 64.3594 25.8125 62.1979 25.8125C60.6875 25.8125 59.355 25.4566 58.2005 24.7448C57.0547 24.0243 56.1693 23.0043 55.5443 21.6849C54.9193 20.3654 54.5937 18.8333 54.5677 17.0885V15.3177C54.5677 13.5295 54.8845 11.954 55.5182 10.5911C56.1519 9.22828 57.059 8.17793 58.2396 7.44008C59.4288 6.70224 60.8003 6.33331 62.3542 6.33331C64.4462 6.33331 66.1302 6.90189 67.4062 8.03904C68.6445 9.14249 69.38 10.6873 69.6129 12.6735C69.6244 12.7715 69.5472 12.8568 69.4486 12.8568H66.5002C66.4155 12.8568 66.3444 12.7931 66.3335 12.7091C66.1658 11.4228 65.7726 10.4911 65.1536 9.91404C64.52 9.3064 63.5868 9.00258 62.3542 9.00258C60.9219 9.00258 59.8194 9.52776 59.0469 10.5781C58.283 11.6198 57.8924 13.1519 57.875 15.1745V16.8541C57.875 18.9028 58.2396 20.4653 58.9687 21.5416C59.7066 22.618 60.783 23.1562 62.1979 23.1562C63.4913 23.1562 64.4635 22.8654 65.1146 22.2838C65.7421 21.7233 66.1478 20.8039 66.3318 19.5256C66.3437 19.4426 66.4144 19.3802 66.4982 19.3802H69.4497Z" fill="#101432" />
    <path d="M76.0651 25.3854C76.0651 25.4774 75.9905 25.5521 75.8984 25.5521H72.9505C72.8585 25.5521 72.7839 25.4774 72.7839 25.3854V6.7604C72.7839 6.66835 72.8585 6.59373 72.9505 6.59373H75.8984C75.9905 6.59373 76.0651 6.66835 76.0651 6.7604V25.3854Z" fill="#101432" />
    <path d="M93.4219 9.08331C93.4219 9.17536 93.3473 9.24998 93.2552 9.24998H87.5104V25.5521H84.2422V9.24998H78.5495C78.4574 9.24998 78.3828 9.17536 78.3828 9.08331V6.7604C78.3828 6.66835 78.4574 6.59373 78.5495 6.59373H93.2552C93.3473 6.59373 93.4219 6.66835 93.4219 6.7604V9.08331Z" fill="#101432" />
    <path d="M105.622 20.6692C105.622 19.8359 105.327 19.1936 104.737 18.7422C104.155 18.2908 103.101 17.835 101.573 17.375C100.045 16.9149 98.8299 16.4028 97.9271 15.8385C96.1996 14.7535 95.3359 13.3385 95.3359 11.5937C95.3359 10.066 95.9566 8.80727 97.1979 7.81769C98.4479 6.8281 100.067 6.33331 102.055 6.33331C103.374 6.33331 104.55 6.57637 105.583 7.06248C106.616 7.54859 107.428 8.24304 108.018 9.14581C108.578 9.99427 108.873 10.9326 108.901 11.9609C108.904 12.0529 108.829 12.1276 108.737 12.1276H105.789C105.697 12.1276 105.623 12.0528 105.619 11.9609C105.586 11.0508 105.274 10.3338 104.685 9.80988C104.069 9.24564 103.183 8.96352 102.029 8.96352C100.952 8.96352 100.115 9.19356 99.5156 9.65363C98.9253 10.1137 98.6302 10.7561 98.6302 11.5807C98.6302 12.2752 98.9514 12.8568 99.5937 13.3255C100.236 13.7856 101.295 14.237 102.771 14.6797C104.247 15.1137 105.431 15.6128 106.326 16.1771C107.22 16.7326 107.875 17.375 108.292 18.1041C108.708 18.8246 108.917 19.671 108.917 20.6432C108.917 22.2231 108.309 23.4817 107.094 24.4192C105.887 25.3481 104.247 25.8125 102.172 25.8125C100.8 25.8125 99.5373 25.5607 98.3828 25.0573C97.237 24.5451 96.3429 23.842 95.7005 22.9479C95.0966 22.0958 94.7805 21.1098 94.7521 19.9896C94.7498 19.8976 94.8246 19.8229 94.9167 19.8229H97.8776C97.9696 19.8229 98.0439 19.8977 98.0472 19.9897C98.0824 20.9857 98.4374 21.7635 99.112 22.3229C99.8238 22.9132 100.844 23.2083 102.172 23.2083C103.318 23.2083 104.177 22.9783 104.75 22.5182C105.332 22.0495 105.622 21.4331 105.622 20.6692Z" fill="#101432" />
    <path d="M27.3333 16C27.7015 16 28.0019 15.7012 27.9815 15.3336C27.8478 12.9287 26.9928 10.6139 25.5202 8.69485C24.0477 6.77582 22.033 5.35081 19.7447 4.59922C19.3949 4.48433 19.0286 4.69718 18.9333 5.05283L16.2249 15.1608C16.1114 15.5842 16.4305 16 16.8688 16H27.3333Z" fill="#101432" />
    <path d="M4.66667 16C4.29848 16 3.99807 16.2988 4.01851 16.6664C4.15222 19.0713 5.00724 21.3861 6.47976 23.3052C7.95228 25.2242 9.96696 26.6492 12.2553 27.4008C12.6051 27.5157 12.9714 27.3028 13.0667 26.9472L15.7751 16.8392C15.8886 16.4158 15.5695 16 15.1312 16L4.66667 16Z" fill="#6776E0" />
    <circle cx="10" cy="9.66667" r="2.66667" fill="#101432" />
    <circle cx="22.3333" cy="22" r="2.66667" fill="#6776E0" />
</svg>
    