<svg width="80" height="108" viewBox="0 0 80 108" fill="none" xmlns="http://www.w3.org/2000/svg">
    <path d="M16.3047 102.805H8.96094L7.46342 107.107C7.4401 107.174 7.37695 107.219 7.30602 107.219H4.24112C4.12458 107.219 4.04402 107.102 4.08521 106.993L10.639 89.6434C10.9534 88.8111 11.7502 88.2604 12.6398 88.2604V88.2604C13.529 88.2604 14.3254 88.8106 14.6401 89.6422L21.2063 106.993C21.2475 107.102 21.167 107.219 21.0504 107.219H17.9723C17.9015 107.219 17.8385 107.174 17.815 107.107L16.3047 102.805ZM9.88542 100.148H15.3802L12.92 92.5444C12.8201 92.2356 12.3827 92.2372 12.285 92.5467L9.88542 100.148Z" fill="#FAFAFA" />
    <path d="M37.4497 101.047C37.5479 101.047 37.625 101.131 37.614 101.229C37.3962 103.165 36.6559 104.684 35.3932 105.786C34.0911 106.915 32.3594 107.479 30.1979 107.479C28.6875 107.479 27.355 107.123 26.2005 106.411C25.0547 105.691 24.1693 104.671 23.5443 103.352C22.9193 102.032 22.5937 100.5 22.5677 98.7552V96.9844C22.5677 95.1962 22.8845 93.6207 23.5182 92.2578C24.1519 90.895 25.059 89.8446 26.2396 89.1068C27.4288 88.3689 28.8003 88 30.3542 88C32.4462 88 34.1302 88.5686 35.4062 89.7057C36.6445 90.8092 37.38 92.354 37.6129 94.3402C37.6244 94.4382 37.5472 94.5234 37.4486 94.5234H34.5002C34.4155 94.5234 34.3444 94.4597 34.3335 94.3757C34.1658 93.0895 33.7726 92.1578 33.1536 91.5807C32.52 90.9731 31.5868 90.6693 30.3542 90.6693C28.9219 90.6693 27.8194 91.1944 27.0469 92.2448C26.283 93.2865 25.8924 94.8186 25.875 96.8411V98.5208C25.875 100.569 26.2396 102.132 26.9687 103.208C27.7066 104.285 28.783 104.823 30.1979 104.823C31.4913 104.823 32.4635 104.532 33.1146 103.951C33.7421 103.39 34.1478 102.471 34.3318 101.192C34.3437 101.109 34.4144 101.047 34.4982 101.047H37.4497Z" fill="#FAFAFA" />
    <path d="M44.0651 107.052C44.0651 107.144 43.9905 107.219 43.8984 107.219H40.9505C40.8585 107.219 40.7839 107.144 40.7839 107.052V88.4271C40.7839 88.335 40.8585 88.2604 40.9505 88.2604H43.8984C43.9905 88.2604 44.0651 88.335 44.0651 88.4271V107.052Z" fill="#FAFAFA" />
    <path d="M61.4219 90.75C61.4219 90.842 61.3473 90.9167 61.2552 90.9167H55.5104V107.219H52.2422V90.9167H46.5495C46.4574 90.9167 46.3828 90.842 46.3828 90.75V88.4271C46.3828 88.335 46.4574 88.2604 46.5495 88.2604H61.2552C61.3473 88.2604 61.4219 88.335 61.4219 88.4271V90.75Z" fill="#FAFAFA" />
    <path d="M73.6224 102.336C73.6224 101.503 73.3273 100.86 72.737 100.409C72.1554 99.9575 71.1007 99.5017 69.5729 99.0417C68.0451 98.5816 66.8299 98.0694 65.9271 97.5052C64.1996 96.4201 63.3359 95.0052 63.3359 93.2604C63.3359 91.7326 63.9566 90.474 65.1979 89.4844C66.4479 88.4948 68.0668 88 70.0547 88C71.3741 88 72.5503 88.2431 73.5833 88.7292C74.6163 89.2153 75.4279 89.9097 76.0182 90.8125C76.5784 91.661 76.8727 92.5993 76.9013 93.6276C76.9039 93.7196 76.829 93.7943 76.737 93.7943H73.7891C73.697 93.7943 73.6227 93.7195 73.6194 93.6275C73.5858 92.7175 73.2743 92.0005 72.6849 91.4766C72.0686 90.9123 71.1832 90.6302 70.0286 90.6302C68.9523 90.6302 68.1146 90.8602 67.5156 91.3203C66.9253 91.7804 66.6302 92.4227 66.6302 93.2474C66.6302 93.9418 66.9514 94.5234 67.5937 94.9922C68.2361 95.4523 69.2951 95.9036 70.7708 96.3464C72.2465 96.7804 73.4314 97.2795 74.3255 97.8437C75.2196 98.3993 75.875 99.0417 76.2917 99.7708C76.7083 100.491 76.9167 101.338 76.9167 102.31C76.9167 103.89 76.309 105.148 75.0937 106.086C73.8871 107.015 72.2465 107.479 70.1719 107.479C68.8003 107.479 67.5373 107.227 66.3828 106.724C65.237 106.212 64.3429 105.509 63.7005 104.615C63.0966 103.763 62.7805 102.776 62.7521 101.656C62.7498 101.564 62.8246 101.49 62.9167 101.49H65.8776C65.9696 101.49 66.0439 101.564 66.0472 101.656C66.0824 102.652 66.4374 103.43 67.112 103.99C67.8238 104.58 68.8437 104.875 70.1719 104.875C71.3177 104.875 72.1771 104.645 72.75 104.185C73.3316 103.716 73.6224 103.1 73.6224 102.336Z" fill="#FAFAFA" />
    <path d="M69.3333 40C69.7015 40 70.0008 39.7015 69.9926 39.3334C69.8511 32.9649 67.6855 26.8 63.8006 21.7372C59.9157 16.6743 54.5215 12.9869 48.4066 11.2019C48.0532 11.0988 47.6873 11.3106 47.592 11.6662L40.2249 39.1608C40.1114 39.5842 40.4305 40 40.8688 40H69.3333Z" fill="#FAFAFA" />
    <path d="M10.6667 40C10.2985 40 9.99923 40.2985 10.0074 40.6666C10.1489 47.0351 12.3145 53.2 16.1994 58.2628C20.0843 63.3257 25.4785 67.0131 31.5934 68.7981C31.9468 68.9012 32.3127 68.6894 32.408 68.3338L39.7751 40.8392C39.8886 40.4158 39.5695 40 39.1312 40L10.6667 40Z" fill="#FAFAFA" />
    <circle cx="25" cy="24.1667" r="6.66667" fill="#FAFAFA" />
    <circle cx="55.8333" cy="55" r="6.66667" fill="#FAFAFA" />
</svg>
    