<svg width="240" height="240" viewBox="0 0 240 240" fill="none" xmlns="http://www.w3.org/2000/svg">
    <path fill-rule="evenodd" clip-rule="evenodd" d="M38.3891 167.218C56.5351 179.8 77.1459 168.605 92.5914 164.027C104.86 160.39 145.896 178.341 166.284 178.341C186.671 178.341 235.285 162.137 201.128 109.964C154.035 38.0291 122.892 61.2685 92.5914 86.2253C62.2902 111.182 62.2903 96.9248 43.5235 111.182C24.7567 125.44 20.2434 154.635 38.3891 167.218Z" fill="#6776E0" />
    <path fill-rule="evenodd" clip-rule="evenodd" d="M25.7935 137.488C27.0475 136.627 28.7199 136.571 30.1811 136.993C31.6423 137.416 32.9389 138.263 34.1952 139.121C38.9968 142.397 43.5821 145.991 47.9117 149.87C48.7523 150.623 49.5923 151.397 50.2202 152.335C51.4541 154.179 51.6832 156.847 50.2371 158.529C49.207 159.727 47.519 160.215 45.9443 160.085C44.3696 159.954 42.8893 159.278 41.5322 158.468C37.8451 156.268 34.872 153.065 31.4214 150.509C29.1698 148.842 26.6446 147.382 25.1084 145.039C23.5722 142.696 23.4837 139.074 25.7935 137.488Z" fill="white" />
    <path d="M159.835 96.7763C159.254 96.4896 159.04 95.7802 158.935 95.1418C158.468 92.2883 159.049 89.2752 160.543 86.7997C161.326 85.5014 162.528 84.2605 164.043 84.1929C165.107 84.1456 166.135 84.7126 166.834 85.5171C167.533 86.3213 167.939 87.3398 168.212 88.3696C168.82 90.6691 169.303 95.0669 168.35 96.6755C167.398 98.2845 160.16 97.4848 159.835 96.7763Z" fill="white" />
    <path d="M153.798 114.961C152.615 111.225 152.195 107.249 152.569 103.347C152.604 102.981 152.667 102.577 152.952 102.345C153.238 102.114 174.067 100.586 174.858 100.928C175.363 104.659 175.54 108.434 175.385 112.195C175.33 113.52 174.852 115.239 173.526 115.272C167.859 115.411 162.193 115.55 156.526 115.689C156.206 115.697 154.223 116.301 153.798 114.961Z" fill="white" />
    <path fill-rule="evenodd" clip-rule="evenodd" d="M147.402 141.104C147.223 135.634 146.693 123.504 148.729 122.373C154.639 119.092 153.409 115.302 156.053 115.148C160.106 114.914 171.109 112.716 172.377 116.574C173.645 120.432 172.308 121.202 174.748 122.373C178.779 124.308 180.072 122.757 182.26 127.846C182.885 129.3 182.831 130.967 182.914 132.548C183.106 136.219 182.839 139.907 183.084 143.575C183.326 147.214 183.936 165.897 182.26 171.531C181.459 174.226 169.821 172.642 166.689 172.363C160.861 171.843 154.423 172.884 148.729 171.531C148.729 171.531 147.742 151.527 147.402 141.104Z" fill="white" />
    <path d="M132.985 99.5693C133.977 99.3581 134.684 100.488 135.048 101.435C138.084 109.309 140.089 117.536 142.683 125.567C147.291 139.833 153.764 153.51 157.239 168.093C157.397 168.755 157.517 169.545 157.046 170.036C156.681 170.418 156.096 170.463 155.568 170.483C142.979 170.972 130.384 171.321 117.788 171.53C117.492 171.535 117.177 171.534 116.93 171.372C116.67 171.2 116.546 170.888 116.438 170.596C109.685 152.39 104.013 133.784 99.4602 114.908C99.3492 114.447 96.7936 102.279 96.9344 101.97C97.1306 101.54 97.6692 101.412 98.1364 101.342C109.661 99.6186 121.588 101.994 132.985 99.5693Z" fill="white" />
    <path d="M97.1737 107.312C97.5878 107.642 97.6633 108.231 97.7074 108.758C98.0447 112.785 98.3823 116.812 98.7196 120.838C98.7458 121.149 98.7647 121.489 98.5862 121.745C98.3426 122.095 97.8505 122.136 97.4242 122.143C85.0255 122.364 72.6268 122.584 60.2278 122.804C59.6236 122.814 58.9612 122.806 58.4991 122.416C58.0569 122.044 57.9244 121.426 57.8435 120.853C57.6841 119.722 57.622 118.577 57.6588 117.434C57.6735 116.97 57.5596 114.497 56.9238 114.258C55.8169 113.842 55.1308 112.68 54.9468 111.513C54.7628 110.345 54.9932 109.156 55.2227 107.997C55.3635 107.287 55.5295 106.529 56.0553 106.032C56.6022 105.515 57.407 105.403 58.1561 105.327C61.3625 105.001 64.5881 104.86 67.8108 104.905C71.7023 104.959 75.5846 105.284 79.463 105.608C85.0038 106.072 90.5442 106.536 96.085 106.999C96.4671 107.031 96.8738 107.073 97.1737 107.312Z" fill="white" />
    <path d="M96.4023 124.258C97.3697 138.724 97.2081 153.265 95.9191 167.705C95.867 168.288 95.7985 168.91 95.4282 169.363C94.8727 170.045 93.8689 170.098 92.9895 170.095C83.113 170.063 73.2366 169.927 63.363 169.689C62.9531 169.679 62.4763 169.634 62.2529 169.29C62.131 169.102 62.1172 168.867 62.107 168.643C61.4539 154.407 60.8007 140.142 61.5563 125.911C61.5982 125.121 62.0235 124.043 62.7793 124.275C63.3099 124.438 88.2887 124.043 96.4023 124.258Z" fill="white" />
    <path fill-rule="evenodd" clip-rule="evenodd" d="M167.278 95.4317C166.771 95.2291 166.696 94.5549 166.706 94.0093C166.711 93.7641 166.716 93.5187 166.722 93.2726C166.777 90.8733 166.833 88.4339 166.034 86.1827C165.809 85.5497 165.459 84.8829 164.827 84.6541C163.802 84.2822 162.806 85.2665 162.254 86.2077C161.061 88.2406 160.423 90.5952 160.425 92.9523V92.9917C160.426 93.7481 160.427 94.6192 159.835 95.0825C159.255 94.7958 159.04 94.0864 158.935 93.448C158.468 90.5945 159.049 87.5814 160.543 85.1059C161.327 83.8077 162.528 82.5667 164.043 82.4992C165.107 82.4518 166.135 83.0189 166.834 83.8233C167.533 84.6275 167.939 85.6461 168.212 86.6758C168.82 88.9753 168.816 91.3929 168.644 93.7654C168.614 94.1856 168.572 94.6237 168.351 94.9817C168.129 95.3401 167.669 95.5881 167.278 95.4317ZM147.639 129.186L148.015 135.452C147.169 132.774 146.315 130.053 146.247 127.246C146.18 124.438 147.006 121.483 149.065 119.574C149.581 119.096 150.16 118.694 150.739 118.292L150.739 118.292C151.317 117.891 151.896 117.49 152.411 117.012C153.443 116.057 154.223 114.608 153.798 113.267C152.615 109.531 152.195 105.555 152.569 101.653C152.604 101.287 152.667 100.883 152.953 100.651C153.238 100.42 153.798 100.571 153.777 100.939C153.572 104.445 153.886 107.982 154.707 111.397C154.774 111.676 154.857 111.974 155.081 112.153C155.297 112.325 155.593 112.345 155.868 112.357C161.146 112.593 166.435 112.586 171.712 112.334C172.635 112.29 173.848 111.948 173.828 111.024L173.607 100.986C173.588 100.125 174.067 98.8925 174.858 99.2342C175.363 102.965 175.54 106.739 175.385 110.501C175.33 111.827 174.852 113.546 173.526 113.578L156.526 113.995C156.206 114.003 155.79 114.094 155.758 114.413C155.575 116.236 154.148 117.675 152.684 118.777C152.412 118.982 152.134 119.182 151.856 119.383C150.635 120.265 149.403 121.155 148.619 122.424C147.402 124.395 147.5 126.874 147.639 129.186ZM163.08 132.974C163.113 132.27 163.163 131.522 163.577 130.951C164.235 130.042 165.521 129.929 166.642 129.899L177.401 129.607C177.948 129.592 178.547 129.593 178.976 129.935C179.543 130.386 179.572 131.221 179.553 131.945C179.531 132.779 179.503 133.641 179.15 134.397C178.797 135.153 178.03 135.782 177.199 135.702C173.571 135.355 169.932 135.129 166.29 135.025C165.592 135.005 164.63 135.252 164.7 135.946C165.338 142.318 165.28 148.759 164.529 155.118C164.43 155.954 165.555 156.306 166.395 156.347L174.243 156.733C174.862 156.763 175.661 156.955 175.717 157.572C175.784 158.315 174.741 158.55 173.996 158.503L165.387 157.962C164.668 157.916 163.883 157.843 163.366 157.342C162.792 156.787 162.74 155.899 162.728 155.101C162.612 147.724 162.73 140.344 163.08 132.974ZM182.75 167.669C183.122 155.162 183.092 142.643 182.661 130.138C182.599 128.343 182.524 126.521 181.977 124.81C181.43 123.099 180.343 121.482 178.73 120.692C178.201 120.434 177.602 120.243 177.006 120.054V120.054C175.607 119.61 174.223 119.17 173.79 117.858C173.676 117.514 173.652 117.147 173.627 116.782C173.597 116.338 173.568 115.895 173.378 115.497C173.032 114.772 171.664 114.614 171.615 115.415C171.425 118.533 173.89 121.589 176.977 122.063C178.6 122.311 179.862 123.698 180.438 125.235C181.015 126.771 181.031 128.452 181.038 130.094C181.091 142.853 181.018 155.613 180.818 168.371C180.812 168.729 180.79 169.128 180.532 169.378C180.289 169.615 179.914 169.638 179.574 169.644C176.518 169.696 173.461 169.448 170.407 169.2C166.261 168.864 162.12 168.528 157.992 168.944C157.27 169.017 156.313 169.714 156.838 170.215C157.003 170.373 157.252 170.394 157.48 170.407L179.107 171.596C179.874 171.638 180.691 171.669 181.356 171.287C182.53 170.612 182.71 169.022 182.75 167.669ZM162.43 96.9872C159.387 96.768 156.222 96.8009 153.432 98.0342C152.988 98.2304 152.49 98.7552 152.822 99.1088C156.071 97.4899 159.913 97.7821 163.508 98.2768C163.796 98.3165 164.084 98.3571 164.373 98.3977C167.697 98.8656 171.099 99.3443 174.309 98.4249C174.801 98.2841 175.39 97.9357 175.279 97.4368C175.165 96.9206 174.452 96.8755 173.93 96.9587C173.735 96.9897 173.541 97.0217 173.346 97.0537H173.346H173.346H173.345C172.752 97.1517 172.158 97.2493 171.56 97.3165C169.213 97.5805 166.851 97.3699 164.492 97.1593C163.804 97.0982 163.117 97.0368 162.43 96.9872ZM168.451 143.708C167.842 143.7 167.193 143.679 166.69 143.335C166.867 143.019 167.291 142.963 167.653 142.944L174.356 142.585C174.692 142.567 175.104 142.589 175.259 142.888C175.399 143.157 175.217 143.503 174.951 143.649C174.685 143.794 174.366 143.794 174.063 143.789L168.451 143.708ZM176.031 138.071L167.661 138.485C167.2 138.508 166.608 138.646 166.558 139.105L176.403 139.458C176.802 139.472 177.293 139.435 177.464 139.073C177.615 138.753 177.388 138.357 177.072 138.198C176.756 138.039 176.384 138.053 176.031 138.071ZM65.5807 153.147C69.9228 152.222 74.4038 151.953 78.8255 152.35L78.8924 152.356C80.3337 152.486 81.9212 152.628 83.071 151.758C84.6735 150.543 84.5151 148.14 84.2953 146.141C83.7919 141.561 83.8051 136.924 84.3343 132.347C84.415 131.647 83.903 130.988 83.2739 130.673C82.6447 130.357 81.9193 130.312 81.2166 130.275C76.1532 130.009 71.0825 129.88 66.0121 129.887C65.6838 129.888 65.5763 129.383 65.7945 129.138C66.0127 128.893 66.3747 128.852 66.702 128.829C71.7135 128.476 76.7513 128.499 81.7593 128.897C83.1791 129.01 84.8201 129.293 85.5043 130.542C85.8553 131.184 85.8662 131.95 85.8684 132.682L85.9164 148.416C85.9196 149.558 85.9097 150.755 85.3612 151.756C84.1283 154.007 80.999 154.136 78.4377 153.971L65.5807 153.147ZM98.1369 99.648C103.445 98.8544 108.839 98.9302 114.227 99.0057C120.536 99.0947 126.838 99.1833 132.986 97.8752C133.977 97.6643 134.684 98.7945 135.049 99.7405C136.982 104.757 138.498 109.916 140.014 115.077C140.878 118.017 141.742 120.958 142.683 123.873C144.456 129.36 146.504 134.761 148.552 140.159V140.159V140.16C151.828 148.795 155.101 157.426 157.24 166.4C157.397 167.061 157.517 167.851 157.047 168.342C156.681 168.724 156.097 168.769 155.569 168.789C142.979 169.278 130.385 169.627 117.788 169.836C117.493 169.841 117.177 169.84 116.931 169.678C116.67 169.506 116.546 169.195 116.438 168.902C109.686 150.696 104.013 132.09 99.4607 113.214C99.3497 112.754 99.3183 112.127 99.7587 111.953C100.283 111.747 100.682 112.443 100.82 112.989C105.405 131.218 110.927 149.211 117.358 166.874C117.48 167.208 117.616 167.562 117.902 167.773C118.22 168.007 118.647 168.01 119.042 168.004L154.647 167.458C154.919 167.454 155.242 167.421 155.376 167.184C155.468 167.021 155.433 166.818 155.395 166.635C153.652 158.276 150.697 150.245 147.744 142.221L147.744 142.22C146.986 140.161 146.229 138.102 145.492 136.039C141.35 124.439 137.846 112.623 134.344 100.814C134.052 99.8301 132.726 99.712 131.701 99.783C120.552 100.556 109.353 100.608 98.1977 99.9385C99.1065 103.227 99.9158 106.542 100.624 109.879C99.8518 110.221 99.215 109.196 98.9855 108.383L96.9766 101.271C96.8841 100.945 96.7939 100.585 96.935 100.276C97.1311 99.8467 97.6697 99.7177 98.1369 99.648ZM109.287 105.883C107.853 106.721 106.902 108.496 107.369 110.09C107.625 110.961 108.256 111.681 108.977 112.233C110.605 113.479 112.786 113.972 114.792 113.547C116.798 113.123 118.592 111.788 119.576 109.99C119.848 109.492 119.567 108.875 119.227 108.42C118.412 107.332 117.253 106.535 116.006 105.994C115.4 105.731 114.769 105.525 114.125 105.378C112.506 105.009 110.721 105.045 109.287 105.883ZM117.922 109.848C116.199 112.285 112.479 113.018 109.961 111.417C109.346 111.026 108.785 110.489 108.567 109.794C108.224 108.698 108.86 107.465 109.828 106.844C110.795 106.224 112.009 106.114 113.154 106.213C114.935 106.367 116.697 107.009 118.054 108.172C118.522 108.574 118.279 109.345 117.922 109.848ZM115.03 130.129C116.424 130.121 117.864 130.032 119.108 129.404C120.352 128.777 121.356 127.483 121.244 126.095C121.165 125.125 120.56 124.256 119.789 123.664C118.444 122.63 116.551 122.361 114.972 122.98C114.15 123.301 113.395 123.875 113.024 124.676C112.652 125.476 112.736 126.514 113.357 127.14C113.891 127.677 114.674 127.823 115.43 127.964C115.542 127.985 115.652 128.006 115.761 128.027C115.986 128.072 116.222 128.131 116.382 128.294C116.543 128.457 116.583 128.759 116.406 128.903C114.957 130.083 112.551 129.569 111.498 128.025C110.446 126.481 110.709 124.259 111.891 122.812C113.072 121.364 115.009 120.661 116.877 120.704C118.795 120.749 120.742 121.581 121.879 123.127C123.015 124.673 123.186 126.949 122.068 128.508C121.331 129.538 120.137 130.168 118.904 130.457C117.671 130.746 116.389 130.726 115.124 130.674L115.03 130.129ZM144.943 141.503C144.783 141.317 144.542 141.226 144.308 141.152C142.617 140.612 140.774 140.557 139.054 140.994C138.026 141.255 137.018 141.706 136.28 142.467C135.542 143.228 135.112 144.338 135.345 145.372C135.608 146.54 136.633 147.39 137.711 147.909C139.312 148.68 141.183 148.912 142.9 148.457C144.617 148.003 146.155 146.843 146.978 145.269C147.148 144.944 147.291 144.586 147.259 144.221C147.227 143.855 146.971 143.488 146.608 143.436C146.11 143.365 145.746 143.856 145.442 144.265L145.417 144.298C143.842 146.414 140.593 147.051 138.336 145.686C137.922 145.436 137.513 145.078 137.454 144.598C137.377 143.958 137.946 143.433 138.498 143.098C140.412 141.933 142.808 141.59 144.972 142.17C145.146 141.997 145.103 141.688 144.943 141.503ZM130.776 156.489C131.947 156.734 133.217 157.294 133.598 158.428C133.914 159.37 133.479 160.441 132.753 161.12C132.027 161.799 131.06 162.154 130.103 162.421C129.219 162.668 128.318 162.855 127.409 162.979L127.5 163.469C129.161 163.571 130.849 163.196 132.311 162.401C133.482 161.765 134.572 160.75 134.773 159.432C134.963 158.181 134.28 156.909 133.275 156.14C132.27 155.371 130.993 155.041 129.734 154.918C126.982 154.65 123.95 155.439 122.28 157.642C121.91 158.13 121.609 158.696 121.56 159.307C121.476 160.344 122.149 161.331 123.027 161.89C123.904 162.449 124.957 162.655 125.989 162.792C126.339 162.839 126.727 162.87 127.013 162.662C127.299 162.455 127.324 161.913 126.988 161.807L124.676 161.074C124.147 160.906 123.574 160.706 123.278 160.237C122.768 159.429 123.381 158.364 124.122 157.76C125.931 156.284 128.49 156.009 130.776 156.489ZM127.689 142.683C127.838 142.397 127.966 142.085 127.941 141.764C127.894 141.142 127.308 140.71 126.746 140.438C124.299 139.256 121.209 139.539 119.017 141.146C118.664 141.404 118.323 141.708 118.153 142.11C117.982 142.513 118.026 143.034 118.358 143.318C118.554 143.486 118.823 143.558 119.087 143.628C119.437 143.721 119.778 143.812 119.922 144.124C120.143 144.603 119.634 145.126 119.121 145.249C118.096 145.493 116.989 144.797 116.596 143.819C116.204 142.841 116.447 141.684 117.047 140.818C117.648 139.951 118.562 139.345 119.526 138.92C121.688 137.967 124.207 137.857 126.443 138.618C127.265 138.898 128.068 139.305 128.648 139.951C129.228 140.597 129.554 141.516 129.333 142.355C129.194 142.882 128.86 143.335 128.501 143.744C126.519 146.006 123.186 147.346 120.417 146.172C120.651 145.695 121.331 145.749 121.86 145.805C124.188 146.053 126.606 144.758 127.689 142.683ZM124.486 111.977C124.948 112.55 125.641 112.892 126.343 113.115C129.441 114.101 133.108 112.879 134.994 110.232C135.654 109.307 136.1 108.042 135.538 107.055C135.044 106.188 133.961 105.865 132.971 105.738C131.373 105.532 129.735 105.637 128.177 106.044C126.834 106.396 125.495 107.013 124.654 108.117C123.812 109.221 123.614 110.896 124.486 111.977ZM128.209 106.954C129.142 106.668 130.106 106.486 131.08 106.411C132.26 106.319 133.729 106.577 134.105 107.7C134.385 108.537 133.882 109.436 133.275 110.077C131.717 111.727 129.312 112.531 127.075 112.148C126.532 112.056 125.978 111.885 125.581 111.504C124.815 110.768 124.905 109.442 125.536 108.587C126.167 107.731 127.192 107.264 128.209 106.954ZM139.858 160.415C141.346 161.622 143.349 162.012 145.264 161.992C146.462 161.98 147.69 161.813 148.742 161.24C149.794 160.666 150.645 159.627 150.746 158.433C150.852 157.182 150.13 155.983 149.18 155.163C148.455 154.537 147.376 154.079 146.566 154.589C146.281 154.769 145.919 154.727 145.58 154.688L145.521 154.681C143.473 154.451 141.342 155.09 139.76 156.41C139.261 156.826 138.796 157.344 138.678 157.983C138.507 158.914 139.123 159.819 139.858 160.415ZM148.066 155.797C148.882 156.209 149.546 157.022 149.559 157.936C149.574 158.909 148.851 159.778 147.974 160.201C147.097 160.623 146.091 160.679 145.118 160.666C143.807 160.648 142.471 160.514 141.269 159.99C140.494 159.651 139.706 159.001 139.749 158.156C139.782 157.517 140.286 157.004 140.814 156.643C142.142 155.734 143.784 155.385 145.392 155.339C146.305 155.312 147.25 155.385 148.066 155.797ZM140.296 125.078C140.613 125.121 140.803 125.45 140.901 125.754C141.519 127.675 140.195 129.859 138.324 130.619C136.454 131.378 134.263 130.931 132.524 129.906C131.744 129.446 131.003 128.842 130.638 128.014C129.87 126.275 131.118 124.161 132.849 123.376C134.58 122.59 136.591 122.809 138.45 123.207C139.213 123.37 140.13 123.74 140.181 124.519C138.919 124.004 137.569 123.708 136.208 123.649C134.908 123.592 133.52 123.783 132.52 124.615C131.52 125.447 131.107 127.07 131.923 128.083C132.254 128.492 132.731 128.754 133.209 128.975C134.44 129.547 135.832 129.93 137.155 129.621C138.477 129.313 139.667 128.144 139.626 126.787C139.623 126.666 139.61 126.544 139.597 126.423C139.572 126.19 139.547 125.958 139.589 125.729C139.652 125.38 139.945 125.031 140.296 125.078ZM94.1551 167.991C94.0342 162.622 94.2959 157.245 94.9379 151.914C95.3887 148.167 95.2735 144.356 95.1583 140.555C94.991 135.025 94.8243 129.516 96.4028 124.258C97.3702 138.723 97.2086 153.265 95.9196 167.705C95.8678 168.288 95.799 168.909 95.4287 169.363C94.8732 170.044 93.8694 170.098 92.99 170.095C83.1135 170.063 73.2374 169.927 63.3635 169.689C62.9535 169.679 62.4767 169.634 62.2534 169.29C62.1315 169.102 62.1177 168.867 62.1075 168.643C61.4543 154.406 60.8015 140.142 61.5567 125.911C61.5987 125.121 62.0239 124.043 62.7798 124.275C63.3103 124.438 63.4092 125.134 63.4102 125.689L63.4787 166.888C63.4796 167.481 64.2639 167.682 64.8569 167.699C74.6198 167.986 84.3884 168.083 94.1551 167.991ZM97.7075 108.758C97.6633 108.231 97.5878 107.642 97.1737 107.312C96.8739 107.073 96.4671 107.031 96.0851 106.999L79.463 105.608C75.5846 105.283 71.7023 104.959 67.8108 104.905C64.5881 104.86 61.3625 105.001 58.1561 105.327C57.407 105.403 56.6022 105.515 56.0553 106.032C55.5295 106.529 55.3635 107.287 55.2227 107.997C54.9932 109.156 54.7628 110.345 54.9468 111.513C55.1308 112.68 55.8169 113.842 56.9238 114.258C57.5596 114.497 58.2601 114.469 58.9385 114.439L89.0489 113.083C89.4335 113.066 89.9651 112.848 89.8316 112.487C79.1795 112.478 68.527 112.839 57.8998 113.57C56.6508 113.656 56.1225 112.005 56.1238 110.753C56.1251 109.708 56.2099 108.631 56.678 107.697C57.1462 106.762 58.0751 105.996 59.1203 105.994C71.5804 105.959 84.0428 106.64 96.4255 108.029C96.7004 108.06 96.7878 108.411 96.8073 108.687L97.6604 120.697C97.6687 120.814 97.6739 120.941 97.6051 121.035C97.5142 121.159 97.3379 121.171 97.1846 121.173L60.2854 121.616C59.9862 121.619 59.6627 121.615 59.4246 121.434C59.127 121.208 59.0684 120.79 59.0447 120.417C58.9881 119.535 58.9913 118.649 59.0543 117.767C59.0998 117.128 58.9001 116.205 58.2675 116.308C57.8089 116.383 57.6735 116.97 57.6588 117.434C57.622 118.577 57.6841 119.722 57.8435 120.853C57.9244 121.426 58.0569 122.044 58.4991 122.416C58.9612 122.806 59.6236 122.814 60.2278 122.804L97.4243 122.143C97.8505 122.136 98.3427 122.095 98.5862 121.745C98.7647 121.489 98.7459 121.149 98.7196 120.838L97.7075 108.758ZM80.7283 134.682C81.0073 134.653 81.1225 135.091 80.9356 135.3C80.7487 135.509 80.4364 135.534 80.1561 135.546L70.5139 135.934C70.1212 135.949 69.7081 135.961 69.3593 135.78C69.0105 135.599 68.7657 135.154 68.9417 134.803C69.1567 134.373 69.7638 134.388 70.239 134.457C73.7084 134.965 77.2406 135.041 80.7283 134.682ZM70.0537 139.662C69.5014 139.518 68.6883 139.502 68.6012 140.066C68.5228 140.574 69.174 140.847 69.6828 140.919C73.0268 141.39 76.4735 141.117 79.7017 140.125C79.9353 140.053 79.8867 139.666 79.67 139.552C79.4534 139.438 79.1907 139.507 78.9551 139.573C76.0652 140.386 72.9593 140.417 70.0537 139.662Z" fill="#00160A" />
    <path fill-rule="evenodd" clip-rule="evenodd" d="M25.7935 137.488C27.0475 136.627 28.7199 136.571 30.1811 136.993C31.6423 137.416 32.9389 138.263 34.1952 139.121C38.9968 142.397 43.5821 145.991 47.9117 149.87C48.7523 150.623 49.5923 151.397 50.2202 152.335C51.4541 154.179 51.6832 156.847 50.2371 158.529C49.207 159.727 47.519 160.215 45.9443 160.085C44.3696 159.954 42.8893 159.278 41.5322 158.468C37.8451 156.268 34.872 153.065 31.4214 150.509C29.1698 148.842 26.6446 147.382 25.1084 145.039C23.5722 142.696 23.4837 139.074 25.7935 137.488ZM32.0102 139.405C30.4472 138.657 28.5006 138.084 27.0663 139.056C25.7219 139.967 25.4599 141.939 26.0597 143.449C26.6594 144.958 27.914 146.099 29.1662 147.133C30.4725 148.212 31.822 149.239 33.2106 150.21C33.4515 150.379 33.872 150.494 33.9642 150.215C34.8061 147.665 36.6256 145.451 38.9645 144.131C36.9018 142.218 34.5485 140.619 32.0102 139.405ZM42.4832 155.151C40.7584 154.062 39.0339 152.973 37.3094 151.885C36.9622 151.665 36.3856 151.513 36.2429 151.898C38.3594 153.398 40.5456 154.8 42.7926 156.096C42.9814 156.015 43.0237 155.747 42.9315 155.564C42.8394 155.38 42.657 155.261 42.4832 155.151Z" fill="#00160A" />
    <path fill-rule="evenodd" clip-rule="evenodd" d="M195.36 75.2C195.537 75.2 195.68 75.3434 195.68 75.52V78.56H198.72C198.897 78.56 199.04 78.7034 199.04 78.88V80.48C199.04 80.6566 198.897 80.8 198.72 80.8H195.68V83.84C195.68 84.0166 195.537 84.16 195.36 84.16H193.76C193.583 84.16 193.44 84.0166 193.44 83.84V80.8H190.4C190.223 80.8 190.08 80.6566 190.08 80.48V78.88C190.08 78.7034 190.223 78.56 190.4 78.56H193.44V75.52C193.44 75.3434 193.583 75.2 193.76 75.2H195.36Z" fill="#FFB61D" />
    <path fill-rule="evenodd" clip-rule="evenodd" d="M207.84 63.04C208.017 63.04 208.16 63.1834 208.16 63.36V66.4H211.2C211.377 66.4 211.52 66.5434 211.52 66.72V68.32C211.52 68.4966 211.377 68.64 211.2 68.64H208.16V71.68C208.16 71.8566 208.017 72 207.84 72H206.24C206.063 72 205.92 71.8566 205.92 71.68V68.64H202.88C202.703 68.64 202.56 68.4966 202.56 68.32V66.72C202.56 66.5434 202.703 66.4 202.88 66.4H205.92V63.36C205.92 63.1834 206.063 63.04 206.24 63.04H207.84Z" fill="#FFB61D" />
    <path fill-rule="evenodd" clip-rule="evenodd" d="M222.56 83.2C222.737 83.2 222.88 83.3434 222.88 83.52V86.56H225.92C226.097 86.56 226.24 86.7034 226.24 86.88V88.48C226.24 88.6566 226.097 88.8 225.92 88.8H222.88V91.84C222.88 92.0166 222.737 92.16 222.56 92.16H220.96C220.783 92.16 220.64 92.0166 220.64 91.84V88.8H217.6C217.423 88.8 217.28 88.6566 217.28 88.48V86.88C217.28 86.7034 217.423 86.56 217.6 86.56H220.64V83.52C220.64 83.3434 220.783 83.2 220.96 83.2H222.56Z" fill="#FFB61D" />
    <path fill-rule="evenodd" clip-rule="evenodd" d="M36.0316 48C36.4479 48 36.7852 48.0243 37.0374 48.0742L37.0988 48.089L37.5587 48.2416C37.8054 48.3258 37.9772 48.5446 38.0022 48.7987L38.0054 48.8627V52.0262L38.1779 51.9165C38.4249 51.7546 38.7036 51.5549 39.0547 51.2928L39.9724 50.6019C40.1929 50.4387 40.3564 50.3232 40.543 50.1981C40.6895 50.0989 40.87 50.0627 41.0431 50.0976C41.1935 50.1274 41.3279 50.2083 41.4246 50.3254L41.4636 50.3779L41.6707 50.6893L43.6041 53.9712C43.6934 54.1219 43.7183 54.3018 43.6739 54.4682C43.6297 54.6381 43.5187 54.783 43.366 54.8707C43.0918 55.0288 42.7942 55.224 42.431 55.4803L41.9843 55.8022L41.2089 56.3683C41.0604 56.4755 40.9279 56.5699 40.806 56.655L40.6508 56.7616L40.8387 56.857C41.7139 57.3107 42.5603 57.848 43.2582 58.4163L43.4447 58.5722L43.6236 58.729C43.8547 58.9376 43.9071 59.2784 43.7497 59.5453L43.3977 60.1376C43.2595 60.368 43.103 60.6259 42.9375 60.896L42.6217 61.4067C42.2143 62.0598 41.8623 62.5974 41.5932 62.969C41.4249 63.2003 41.1267 63.2954 40.8585 63.2102L40.7971 63.1872L40.4607 63.0432C40.4271 63.0282 40.4092 63.0192 40.3903 63.0083L40.3708 62.9965C40.1945 62.887 40.0076 62.7757 39.7948 62.6528L39.087 62.2528L38.5516 61.9514C38.4329 61.8838 38.3244 61.8211 38.223 61.7622L38.0076 61.6352L38.0051 62.6227C37.9999 63.4765 37.9878 64.2218 37.9663 64.7526L37.9561 64.9766C37.9401 65.3037 37.6844 65.5654 37.3628 65.5968L37.2918 65.6L35.3497 65.5421L34.2995 65.5162L33.5871 65.504L33.3555 65.543C33.2012 65.5686 33.0444 65.5386 32.9123 65.4614L32.8572 65.4253L32.8057 65.3837C32.6563 65.2502 32.5763 65.0566 32.5881 64.8586C32.6406 63.9562 32.6422 63.2035 32.6067 62.2106L32.5817 61.6038L29.6169 63.2525C29.3469 63.4042 29.0146 63.3456 28.8107 63.129L28.769 63.08L28.7317 63.0262C28.0169 61.8784 27.4117 60.6995 26.7105 59.0902C26.5908 58.8157 26.6739 58.4979 26.9064 58.3152L26.9585 58.2781L27.7003 57.8045L27.9062 57.7005C28.3434 57.4768 28.985 57.1213 29.7065 56.7094L29.8805 56.6093L29.3525 56.3661L28.7827 56.1085C28.7213 56.08 28.6572 56.0486 28.574 56.0067L28.0732 55.753C27.8011 55.6179 27.6296 55.5424 27.4759 55.4928L27.3852 55.4659C27.3488 55.4563 27.3135 55.4435 27.2793 55.4275L27.2287 55.4016L26.891 55.209C26.703 55.1014 26.5799 54.9091 26.5623 54.6957C26.544 54.4813 26.6324 54.2714 26.7993 54.1347C27.0768 53.9069 27.266 53.6083 27.6069 52.8899L27.8577 52.3549C28.3006 51.425 28.5897 50.9773 29.1001 50.5354C29.3022 50.3597 29.5882 50.3251 29.8258 50.441L29.8841 50.473L32.5564 52.1318L32.5567 52.0493C32.5558 51.8554 32.5481 51.631 32.535 51.3552L32.5039 50.7421C32.4595 49.7821 32.4758 49.2941 32.6028 48.7216C32.6623 48.4522 32.886 48.248 33.1622 48.2122L33.5375 48.1674C33.7187 48.1469 33.9292 48.1248 34.1631 48.103C34.8531 48.0384 35.494 48 36.0316 48ZM35.9878 49.28C35.3999 49.28 34.6748 49.3322 33.966 49.4064L33.7948 49.425L33.7919 49.4566L33.7814 49.6157C33.7676 49.8899 33.774 50.2154 33.7955 50.6765L33.831 51.3834C33.8339 51.4461 33.8361 51.5034 33.8383 51.5645C33.8652 52.3088 33.8374 52.8598 33.7187 53.3814C33.6716 53.5888 33.5279 53.7613 33.3337 53.8426C33.1593 53.9165 32.9628 53.9101 32.7945 53.8282L32.7327 53.7939L29.6469 51.8534L29.6125 51.8998C29.439 52.1392 29.2737 52.4429 29.071 52.8739L28.8072 53.4451C28.6367 53.8099 28.5002 54.0806 28.3656 54.304L28.3041 54.4016L28.3524 54.423C28.4453 54.4653 28.54 54.511 28.6462 54.5642L29.2619 54.8794L29.4219 54.9555L30.1534 55.2906L30.5161 55.4627L30.6292 55.5174C31.0696 55.7322 31.395 55.9072 31.5983 56.0467C31.7835 56.1741 31.8909 56.3872 31.8838 56.6125C31.8766 56.8378 31.7558 57.0442 31.562 57.1594L31.0453 57.4643C30.8634 57.5712 30.6722 57.6829 30.4732 57.7981L29.7334 58.2224C29.2417 58.5014 28.8285 58.7293 28.5142 58.8918L28.3607 58.9699L28.1599 59.1002L28.2426 59.2854C28.6352 60.1587 29.0029 60.8963 29.3903 61.5862L29.5328 61.8362L32.8572 59.9642C33.0364 59.863 33.2502 59.8531 33.4364 59.9334L33.5046 59.9677C33.7036 60.0829 33.8278 60.2947 33.8329 60.5261L33.8415 60.8419L33.8963 62.1722C33.9222 62.8928 33.9295 63.4858 33.9142 64.1069L33.9097 64.2486L34.3967 64.2586C34.8825 64.2694 35.4646 64.2851 36.0889 64.304L36.614 64.32L36.6255 63.7587C36.6294 63.5168 36.6326 63.2547 36.6348 62.9757L36.6396 62.1101C36.6415 61.4278 36.6399 60.807 36.6377 60.4525C36.6364 60.2051 36.7724 59.9776 36.9932 59.8624C37.2131 59.7488 37.4774 59.769 37.678 59.9152C38.0281 60.1715 38.4076 60.415 38.8899 60.6992L39.2355 60.8998L40.2812 61.4963L40.4332 61.585L40.7612 61.7814L40.7967 61.7286C41.1731 61.1558 41.6355 60.4013 42.0963 59.6253L42.2399 59.3821L42.222 59.3677C41.3987 58.7133 40.2812 58.049 39.2076 57.5811L39.055 57.5162L39.0409 57.5146C38.8086 57.4714 38.6153 57.3043 38.5388 57.0758L38.5222 57.0176C38.4527 56.7219 38.5929 56.416 38.863 56.2778C39.1945 56.1085 39.5567 55.8797 40.0035 55.5645L40.1558 55.4563C40.2819 55.3658 40.4105 55.2717 40.5705 55.1533L41.3756 54.5581C41.6233 54.3773 41.8207 54.2371 42.0031 54.1139L42.054 54.0797L40.6476 51.6611L40.2572 51.959L39.8732 52.2531C38.8236 53.0506 38.2703 53.4058 37.5337 53.7024C37.3318 53.7824 37.1033 53.7574 36.9235 53.6339C36.7644 53.5245 36.6623 53.351 36.6415 53.161L36.6377 53.089L36.6374 49.3139L36.5887 49.3075C36.4607 49.2925 36.2991 49.2835 36.1068 49.2806L35.9878 49.28Z" fill="#FFB61D" />
</svg>
    