<svg width="240" height="240" viewBox="0 0 240 240" fill="none" xmlns="http://www.w3.org/2000/svg">
    <path fill-rule="evenodd" clip-rule="evenodd" d="M44.8839 175.66C59.3703 191.429 115.39 182.371 152.276 182.371C168.189 182.371 221.591 190.346 199.539 135.574C127.235 -44.017 -1.01646 125.696 44.8839 175.66Z" fill="#6776E0" />
    <path fill-rule="evenodd" clip-rule="evenodd" d="M108.98 176.929C109.051 176.875 109.125 176.816 109.155 176.733C109.254 176.466 108.868 176.288 108.583 176.294C108.17 176.304 107.641 176.582 107.767 176.975C107.84 177.203 108.121 177.308 108.356 177.266C108.591 177.224 108.791 177.074 108.98 176.929ZM110.208 172.246C110.52 172.344 110.828 172.465 111.099 172.647C111.609 172.988 111.956 173.518 112.289 174.034C112.527 174.403 112.769 174.78 112.889 175.203C113.018 175.662 112.995 176.151 112.908 176.62C112.639 178.08 111.738 179.412 110.484 180.205C109.23 180.998 107.64 181.241 106.206 180.858C105.927 180.783 105.646 180.682 105.431 180.489C105.251 180.326 105.129 180.11 105.018 179.894C104.434 178.762 104.04 177.503 104.085 176.23C104.13 174.956 104.653 173.668 105.645 172.868C106.889 171.863 108.682 171.767 110.208 172.246Z" fill="white" />
    <path fill-rule="evenodd" clip-rule="evenodd" d="M176.062 102.969C175.379 102.961 174.737 103.534 174.67 104.214C174.642 104.492 174.76 104.838 175.037 104.876C175.244 104.905 175.426 104.745 175.566 104.588C175.86 104.258 176.114 103.891 176.318 103.497C176.386 103.365 176.446 103.196 176.356 103.077C176.291 102.991 176.171 102.971 176.062 102.969ZM175.766 99.9184C176.737 100.257 177.617 100.853 178.292 101.628C178.873 102.295 179.314 103.161 179.192 104.036C179.148 104.357 179.029 104.664 178.894 104.959C178.382 106.076 177.501 107.146 176.292 107.363C175.657 107.476 175.003 107.34 174.392 107.132C173.687 106.892 173.014 106.556 172.399 106.134C172.072 105.911 171.748 105.646 171.605 105.277C171.507 105.023 171.503 104.743 171.507 104.471C171.516 103.797 171.561 103.111 171.796 102.48C172.093 101.68 172.675 101.02 173.292 100.432C173.54 100.195 173.803 99.9616 174.122 99.8346C174.643 99.6269 175.236 99.7335 175.766 99.9184Z" fill="white" />
    <path fill-rule="evenodd" clip-rule="evenodd" d="M176.063 51.2919C180.081 55.4349 183.251 60.3888 185.327 65.7651C185.469 66.1344 185.608 66.5443 185.472 66.9162C184.425 69.7779 182.404 72.1642 180.422 74.4842C179.156 75.9664 177.89 77.449 176.624 78.9315C175.415 80.3466 174.206 81.7619 172.957 83.1418C166.595 90.1661 159.077 96.3085 150.371 100.088C150.042 100.23 149.69 100.373 149.336 100.316C148.982 100.259 148.651 99.9165 148.743 99.5716C149.819 95.5629 150.903 91.3719 150.039 87.3127C149.831 86.3335 149.599 85.1008 150.411 84.5117C156.986 79.7415 161.721 72.9232 166.258 66.1975C167.399 64.5063 168.536 62.8103 169.546 61.0384C171.339 57.8922 172.719 54.5133 173.641 51.0141C173.768 50.5341 174.377 50.3178 174.859 50.4435C175.34 50.5696 175.717 50.9351 176.063 51.2919Z" fill="white" />
    <path fill-rule="evenodd" clip-rule="evenodd" d="M50.7824 67.3869C51.4355 73.2912 53.2534 79.0646 56.1008 84.2784C57.864 87.5062 60.0083 90.5078 62.1472 93.5001C63.6355 95.5824 65.2269 97.7523 67.5491 98.8285C68.1667 99.1145 68.0806 100.005 67.9149 100.665C67.1984 103.518 66.8643 106.467 66.9238 109.408C66.9296 109.685 66.937 109.973 66.8275 110.229C66.457 111.097 65.1875 110.952 64.3133 110.597C58.905 108.402 54.7526 103.987 50.8736 99.6246C45.8374 93.9613 40.8762 88.0496 37.9011 81.0793C37.6989 80.6054 37.5024 80.1069 37.5363 79.5926C37.5709 79.0688 37.84 78.5926 38.1129 78.1443C40.8099 73.7145 44.5619 69.9318 48.9699 67.199C49.2803 67.0067 49.6118 66.8137 49.9766 66.8009C50.3418 66.7885 50.7421 67.0237 50.7824 67.3869Z" fill="white" />
    <path fill-rule="evenodd" clip-rule="evenodd" d="M175.276 170.968C175.742 170.178 176.319 169.308 177.224 169.158C177.581 169.1 177.769 168.712 177.89 168.372C179.386 164.176 179.53 159.511 178.296 155.232C177.944 154.011 178.378 152.716 178.807 151.519C179.914 148.431 181.021 145.342 182.128 142.254C181.493 141.157 179.821 141.19 178.964 140.256C177.862 139.054 178.693 137.144 179.557 135.761C184.603 127.68 189.649 119.599 194.695 111.518C195.313 110.528 196.67 110.218 197.807 110.482C198.944 110.745 199.915 111.461 200.85 112.159C204.53 114.908 208.21 117.657 211.89 120.405C213.865 121.881 216.046 123.765 215.932 126.228C215.869 127.591 215.089 128.802 214.335 129.939C211.418 134.333 208.502 138.728 205.585 143.123C203.942 145.599 204.396 148.851 203.899 151.781C203.115 156.41 199.94 160.212 197.001 163.873C194.061 167.534 191.12 171.622 190.955 176.314C190.758 181.907 188.101 187.369 183.823 190.976C185.064 187.966 177.224 189.167 168.256 185.599C169.732 180.378 172.518 175.64 175.276 170.968Z" fill="white" />
    <path fill-rule="evenodd" clip-rule="evenodd" d="M76.8032 184.06C76.2441 183.603 76.0659 182.831 75.967 182.113C74.8249 173.81 79.7299 165.613 78.856 157.277C78.4057 152.98 76.432 148.972 73.9478 145.446C72.2323 143.012 72.1363 139.75 72.7763 136.837C73.4163 133.924 74.7072 131.2 75.5779 128.348C79.4502 115.665 74.7385 102.116 70.08 89.703C79.3625 85.2144 90.1948 86.0838 100.478 86.6918C110.762 87.3002 121.822 87.343 130.393 81.6C131.568 94.024 128.977 106.462 126.402 118.67C139.471 117.397 152.54 116.124 165.609 114.851C165.984 114.814 166.394 114.786 166.705 114.999C167.121 115.283 167.185 115.861 167.208 116.366C167.819 129.286 168.19 142.218 168.319 155.153C168.323 155.477 168.311 155.839 168.084 156.069C167.889 156.266 167.592 156.307 167.317 156.338C149.006 158.378 130.696 160.419 112.386 162.459C110.802 162.636 108.547 162.223 108.639 160.625C109.053 153.498 108.811 146.333 107.919 139.251C103.053 139.067 98.1542 139.809 93.558 141.426C92.5155 141.793 91.2617 142.779 91.824 143.735C95.5446 150.057 90.9267 159.561 95.9798 164.868C97.7171 166.693 97.5971 169.564 97.2528 172.065C96.5148 177.428 95.2608 182.719 93.5142 187.84C94.3587 181.945 77.3193 187.222 76.8032 184.06Z" fill="white" />
    <path fill-rule="evenodd" clip-rule="evenodd" d="M24.4306 50.2486C24.4463 50.3744 24.3782 50.5066 24.2666 50.567C24.1777 50.4781 24.0889 50.3891 24 50.3002C24.1332 50.2419 24.2843 50.2253 24.427 50.2531L24.4306 50.2486Z" fill="#00160A" />
    <path fill-rule="evenodd" clip-rule="evenodd" d="M109.888 172.246C110.2 172.344 110.508 172.465 110.779 172.647C111.289 172.988 111.636 173.518 111.969 174.034C112.207 174.403 112.449 174.78 112.569 175.203C112.698 175.662 112.675 176.151 112.588 176.62C112.319 178.08 111.418 179.412 110.164 180.205C108.909 180.998 107.32 181.241 105.886 180.858C105.607 180.783 105.326 180.682 105.111 180.489C104.931 180.326 104.809 180.11 104.698 179.894C104.114 178.762 103.72 177.503 103.765 176.23C103.81 174.956 104.333 173.668 105.325 172.868C106.569 171.863 108.362 171.767 109.888 172.246ZM108.139 179.828C108.919 179.709 109.606 179.2 110.054 178.551C110.502 177.902 110.732 177.123 110.843 176.342C110.906 175.896 110.912 175.385 110.597 175.062C110.408 174.87 110.139 174.784 109.881 174.706C108.911 174.416 107.804 174.169 106.935 174.689C106.303 175.068 105.95 175.769 105.63 176.433C105.256 177.211 105.348 178.193 105.861 178.887C106.374 179.581 107.286 179.957 108.139 179.828Z" fill="#00160A" />
    <path fill-rule="evenodd" clip-rule="evenodd" d="M145.517 137.212C145.53 137.046 145.55 136.869 145.66 136.744C145.767 136.622 145.935 136.578 146.093 136.541C150.168 135.593 154.377 135.222 158.555 135.443C159.087 135.471 159.772 135.651 159.807 136.182C160.009 139.231 160.21 142.279 160.412 145.327C160.423 145.482 160.428 145.652 160.329 145.772C160.249 145.868 160.119 145.906 159.997 145.938C155.651 147.071 151.071 147.294 146.636 146.589C146.522 146.571 146.402 146.55 146.313 146.476C146.206 146.386 146.168 146.239 146.138 146.103C145.483 143.193 145.274 140.184 145.517 137.212ZM146.478 142.269C146.558 143.42 146.799 144.56 147.193 145.644C147.585 145.701 147.974 145.782 148.365 145.849C151.735 146.419 155.182 145.845 158.552 145.272C158.792 145.231 159.054 145.177 159.201 144.984C159.352 144.788 159.332 144.514 159.305 144.268C159.189 143.217 159.073 142.167 158.956 141.116C158.947 141.032 158.935 140.941 158.878 140.878C158.808 140.802 158.694 140.789 158.591 140.782C156.196 140.625 153.794 140.803 151.401 140.982C150.078 141.081 148.755 141.18 147.432 141.278C147.121 141.301 146.768 141.348 146.589 141.603C146.457 141.791 146.462 142.04 146.478 142.269ZM146.515 137.876C146.306 138.547 146.268 139.271 146.407 139.96C146.432 140.084 146.467 140.215 146.561 140.299C146.7 140.424 146.913 140.404 147.098 140.377C149.352 140.046 151.63 139.882 153.908 139.886C154.229 139.887 154.328 139.454 154.324 139.133C154.319 138.662 154.314 138.191 154.309 137.72C154.306 137.448 154.292 137.148 154.106 136.949C153.882 136.711 153.507 136.718 153.18 136.743C152.426 136.801 151.671 136.858 150.917 136.916C150.556 136.944 149.598 137.189 149.158 137.218C148.392 137.34 147.626 137.462 146.86 137.584C146.778 137.597 146.692 137.612 146.629 137.666C146.568 137.718 146.539 137.798 146.515 137.876ZM156.619 139.924C157.218 139.931 157.818 139.871 158.403 139.745C158.543 139.715 158.69 139.677 158.789 139.575C158.935 139.425 158.933 139.19 158.923 138.98C158.892 138.373 158.861 137.766 158.83 137.159C158.819 136.943 158.795 136.699 158.625 136.564C158.476 136.444 158.266 136.452 158.076 136.464C157.41 136.51 156.744 136.555 156.078 136.6C155.972 136.608 155.862 136.616 155.774 136.675C155.612 136.781 155.588 137.004 155.584 137.198C155.569 137.841 155.595 138.486 155.662 139.126C155.682 139.311 155.709 139.506 155.823 139.653C156.002 139.882 156.329 139.92 156.619 139.924Z" fill="#FFB61D" />
    <path fill-rule="evenodd" clip-rule="evenodd" d="M155.946 123.891C156.836 123.506 157.928 123.635 158.704 124.217C159.48 124.799 159.91 125.812 159.789 126.774C160.334 126.479 161.026 126.189 161.535 126.543C162.11 126.943 161.978 127.804 161.892 128.499C161.741 129.713 161.937 130.968 162.45 132.078C162.662 132.537 162.844 133.233 162.374 133.418C162.295 133.449 162.208 133.456 162.123 133.463C156.609 133.908 151.096 134.352 145.583 134.796C145.431 134.808 145.262 134.815 145.148 134.715C145.031 134.613 145.016 134.441 145.01 134.286C144.957 132.989 144.904 131.692 144.851 130.395C144.837 130.047 144.831 129.672 145.027 129.385C145.352 128.909 146.033 128.911 146.602 128.82C147.171 128.728 147.833 128.248 147.614 127.716C147.37 127.121 148.202 126.687 148.837 126.59C149.472 126.494 150.314 126.115 150.122 125.502C149.912 124.833 150.833 124.417 151.529 124.325C152.02 124.26 152.533 124.197 152.998 124.365C153.464 124.533 153.857 125.013 153.752 125.497C153.632 126.051 154.307 126.567 154.839 126.371C155.371 126.176 155.587 125.448 155.318 124.95C155.098 124.542 155.521 124.075 155.946 123.891ZM158.793 132.437C158.587 132.055 158.585 131.6 158.584 131.165C158.575 129.125 158.449 127.086 158.208 125.061C158.196 124.958 158.177 124.844 158.093 124.784C158.021 124.733 157.924 124.739 157.836 124.747C157.405 124.787 156.895 124.883 156.724 125.28C156.652 125.45 156.66 125.642 156.67 125.826C156.779 127.87 156.888 129.915 156.998 131.959C157.008 132.149 157.033 132.368 157.192 132.475C157.278 132.532 157.386 132.543 157.49 132.549C157.927 132.573 158.367 132.535 158.793 132.437ZM151.377 129.294C151.324 129.635 151.249 129.972 151.229 130.317C151.195 130.892 151.317 131.464 151.437 132.027C151.514 132.388 151.981 132.566 152.323 132.427C152.666 132.288 152.872 131.923 152.929 131.557C152.986 131.192 152.92 130.821 152.861 130.456C152.633 129.023 152.534 127.569 152.566 126.118C152.574 125.751 152.216 125.42 151.851 125.456C151.485 125.492 151.199 125.887 151.279 126.246C151.502 127.244 151.536 128.284 151.377 129.294ZM155.004 127.336C154.789 127.054 154.296 127.204 154.128 127.516C153.96 127.828 154.012 128.207 154.053 128.559C154.162 129.477 154.172 130.407 154.084 131.328C154.058 131.6 154.029 131.896 154.179 132.124C154.41 132.475 154.916 132.471 155.333 132.429C155.464 132.416 155.614 132.39 155.68 132.276C155.726 132.197 155.715 132.099 155.703 132.008C155.511 130.579 155.318 129.151 155.126 127.722C155.107 127.587 155.086 127.444 155.004 127.336ZM159.779 127.95C159.617 128.171 159.583 128.458 159.569 128.732C159.521 129.67 159.645 130.607 159.769 131.538C159.818 131.904 159.986 132.376 160.355 132.351C160.729 132.325 160.827 131.825 160.818 131.45C160.795 130.457 160.772 129.464 160.749 128.471C160.743 128.211 160.715 127.908 160.499 127.762C160.272 127.61 159.941 127.729 159.779 127.95ZM148.478 127.716C148.478 127.716 148.642 129.011 148.7 129.671C148.772 130.5 148.863 131.327 148.975 132.152C148.991 132.272 149.012 132.401 149.101 132.484C149.254 132.627 149.844 132.532 149.953 132.353C150.062 132.174 150.056 131.95 150.047 131.741C150.016 131.079 149.987 130.417 149.957 129.756C149.924 129.046 149.756 127.516 149.756 127.516L148.478 127.716ZM146.335 132.407C146.382 132.556 146.438 132.711 146.558 132.81C146.792 133.004 147.172 132.884 147.357 132.643C147.542 132.401 147.583 132.083 147.618 131.781C147.662 131.411 147.704 131.026 147.584 130.672C147.464 130.319 147.132 130.008 146.76 130.041C146.418 130.071 146.153 130.384 146.074 130.717C145.994 131.051 146.061 131.401 146.144 131.734C146.201 131.96 146.264 132.185 146.335 132.407Z" fill="#E7EAEE" />
    <path fill-rule="evenodd" clip-rule="evenodd" d="M168.685 79.3475C168.24 80.0157 167.757 80.6925 167.069 81.1053C166.38 81.5178 165.429 81.5981 164.81 81.0867C164.127 80.5222 164.085 79.505 164.139 78.6208C164.16 78.2806 164.187 77.9373 164.285 77.6106C164.454 77.0438 164.823 76.56 165.209 76.1117C165.677 75.5674 166.195 75.0426 166.844 74.7363C167.493 74.4301 168.3 74.3763 168.908 74.7574C169.635 75.2134 169.905 76.1834 169.767 77.0314C169.629 77.8791 169.162 78.6326 168.685 79.3475ZM167.272 80.0544C167.833 79.4566 168.315 78.7837 168.699 78.0595C168.952 77.5831 169.168 77.065 169.158 76.5254C169.148 75.9859 168.863 75.4218 168.362 75.2218C167.709 74.961 166.993 75.3779 166.447 75.8211C166.059 76.137 165.683 76.4829 165.434 76.9168C165.276 77.1914 165.174 77.4934 165.072 77.793C164.88 78.36 164.686 78.951 164.759 79.545C164.832 80.1392 165.257 80.7357 165.853 80.7971C166.404 80.8541 166.893 80.4582 167.272 80.0544Z" fill="#FFB61D" />
    <path fill-rule="evenodd" clip-rule="evenodd" d="M54.0159 86.9002C54.7132 87.6064 55.2889 88.4326 55.71 89.3315C56.133 90.2349 55.7065 91.3958 54.8761 91.9485C54.0454 92.5011 52.9225 92.4938 52.0118 92.0867C51.1014 91.6794 50.3855 90.9194 49.8585 90.0723C49.4614 89.4336 49.1532 88.7181 49.1199 87.9667C49.087 87.2154 49.3638 86.4246 49.958 85.9638C50.5593 85.4979 51.4047 85.4314 52.1318 85.6547C52.8588 85.8784 53.4815 86.3587 54.0159 86.9002ZM51.295 86.4704C50.6918 86.4083 50.1558 86.9622 50.0521 87.56C49.9487 88.1574 50.1766 88.7642 50.4713 89.2941C51.1107 90.4435 52.2511 91.4646 53.5651 91.4013C54.2406 91.3683 54.9807 90.9005 54.9689 90.2246C54.9635 89.9322 54.8195 89.6624 54.6751 89.408C54.2927 88.7322 53.8793 88.063 53.3273 87.5165C52.7753 86.9699 52.0678 86.5501 51.295 86.4704Z" fill="#FFB61D" />
    <path fill-rule="evenodd" clip-rule="evenodd" d="M106.744 175.825C107.228 175.457 107.83 175.219 108.438 175.258C109.045 175.297 109.646 175.645 109.9 176.198C110.172 176.791 110.002 177.529 109.577 178.024C109.152 178.519 108.511 178.793 107.864 178.883C107.423 178.945 106.897 178.89 106.655 178.515C106.539 178.335 106.512 178.112 106.489 177.899C106.447 177.515 106.405 177.131 106.363 176.748C106.345 176.585 106.328 176.416 106.38 176.261C106.441 176.079 106.59 175.941 106.744 175.825ZM108.66 176.929C108.73 176.875 108.804 176.816 108.835 176.732C108.933 176.466 108.548 176.288 108.263 176.294C107.85 176.304 107.32 176.582 107.447 176.975C107.52 177.203 107.8 177.308 108.036 177.266C108.271 177.224 108.47 177.074 108.66 176.929Z" fill="#00160A" />
    <path fill-rule="evenodd" clip-rule="evenodd" d="M175.357 53.1616C179.131 57.0685 182.11 61.7405 184.06 66.8106C184.194 67.1587 184.324 67.5456 184.196 67.896C183.212 70.5952 181.314 72.8451 179.452 75.033L175.884 79.2272C174.748 80.5619 173.612 81.8967 172.438 83.1978C166.461 89.8221 159.399 95.6147 151.219 99.1789C150.911 99.3133 150.579 99.4474 150.247 99.3936C149.915 99.3399 149.603 99.0173 149.69 98.6918C150.701 94.9117 151.719 90.9594 150.908 87.1312C150.712 86.2077 150.494 85.0451 151.257 84.4896C157.435 79.991 161.882 73.561 166.145 67.2183C167.217 65.6234 168.285 64.0243 169.234 62.353C170.918 59.3859 172.215 56.1994 173.082 52.8999C173.201 52.4471 173.772 52.2429 174.225 52.3616C174.678 52.4803 175.032 52.825 175.357 53.1616ZM172.716 58.0135C172.332 57.8547 171.979 58.2839 171.783 58.6499C171.572 59.0464 171.36 59.4432 171.149 59.8407C167.238 67.1856 163.268 74.6435 157.309 80.4288C156.746 80.9754 156.117 81.6355 156.22 82.4134C156.553 84.9069 155.222 87.5398 153.017 88.7501C152.016 89.2998 152.028 90.7178 152.174 91.8503C152.233 92.3037 152.404 92.872 152.86 92.9104C154.196 93.023 155.479 93.681 156.35 94.7005C156.625 95.0221 157.146 94.8211 157.504 94.5958C166.518 88.9286 173.445 80.5578 180.208 72.3328C180.441 72.049 180.69 71.6915 180.568 71.345C179.545 68.4298 179.708 65.1165 181.015 62.3165C180.244 60.7827 179.325 59.3235 178.276 57.9651C176.529 58.7232 174.475 58.7411 172.716 58.0135ZM151.333 97.6816C151.689 97.8678 152.119 97.6909 152.475 97.505C153.41 97.017 154.311 96.4631 155.168 95.8486C155.395 95.6864 155.462 95.3619 155.382 95.095C155.302 94.8282 155.101 94.6128 154.879 94.4442C154.186 93.9181 153.217 93.7798 152.405 94.0909C152.254 94.1485 152.105 94.2234 152.002 94.3462C151.881 94.4906 151.836 94.6823 151.797 94.8666C151.601 95.7975 151.446 96.737 151.333 97.6816ZM176.649 56.0723C176.037 54.8746 175.092 53.849 173.949 53.1402C173.551 53.4906 173.474 54.0234 173.395 54.5667C173.341 54.9392 173.286 55.3168 173.126 55.6439C173.075 55.7501 173.011 55.8519 172.948 55.9536H172.947C172.827 56.1472 172.707 56.3399 172.668 56.5623C172.609 56.9011 172.896 57.3261 173.221 57.2141C173.485 57.1229 173.763 57.1815 174.042 57.2407C174.19 57.2717 174.338 57.3031 174.485 57.3127C175.344 57.368 176.056 56.6954 176.649 56.0723ZM181.504 63.2506C180.848 64.5559 180.952 66.0976 181.071 67.5533L181.242 69.6416C181.261 69.8711 181.386 70.1811 181.607 70.1175C181.745 69.7328 182.006 69.4154 182.269 69.0973C182.499 68.8192 182.729 68.5402 182.876 68.2151C183.378 67.1136 182.821 65.8445 182.274 64.7658L181.504 63.2506ZM152.131 86.4259C152.158 86.8346 152.583 87.1402 152.992 87.1286C153.401 87.1171 153.769 86.8525 154.009 86.5203C154.248 86.1878 154.379 85.7923 154.507 85.4032L154.928 84.119C155.046 83.761 155.053 83.2134 154.679 83.1715C154.544 83.1562 154.414 83.2278 154.304 83.3066C153.884 83.6051 153.578 84.0336 153.281 84.4541L152.47 85.599C152.294 85.8474 152.111 86.1226 152.131 86.4259ZM55.4608 82.9981C52.6134 77.7846 50.7955 72.0112 50.1424 66.1066C50.1021 65.7434 49.7017 65.5085 49.3366 65.521C48.9718 65.5335 48.6403 65.7264 48.3299 65.9191C43.9219 68.6518 40.1699 72.4342 37.4729 76.8643C37.2 77.3126 36.9309 77.7888 36.8963 78.3126C36.8624 78.8266 37.0589 79.3254 37.2611 79.799C40.2361 86.7693 45.1974 92.6813 50.2336 98.3443C54.1126 102.706 58.2649 107.122 63.6733 109.317C64.5475 109.672 65.8169 109.816 66.1875 108.949C66.2953 108.696 66.2896 108.412 66.2841 108.138L66.2838 108.127C66.2243 105.187 66.5584 102.238 67.2749 99.385C67.4406 98.7248 67.5267 97.8346 66.9091 97.5485C64.5869 96.4723 62.9955 94.3024 61.5072 92.2198C59.3683 89.2275 57.224 86.2262 55.4608 82.9981ZM60.4877 105.788C60.1677 105.873 59.8483 105.671 59.5811 105.476C54.6589 101.869 50.8441 96.9878 47.0963 92.1722L40.4822 83.6739C41.5987 82.9629 41.7405 81.4179 41.7648 80.0944C41.7961 78.3741 41.8195 76.6032 41.1981 74.9987C41.0598 74.6423 41.2397 74.247 41.4323 73.9165C42.2579 72.4995 43.4032 71.2698 44.7581 70.3456C44.8893 70.256 45.0281 70.1674 45.1856 70.145C45.6003 70.0864 45.9187 70.4899 46.1405 70.8454C47.016 72.2496 48.2195 73.8378 49.8704 73.7222C50.4989 73.6781 50.8477 74.4186 51.031 75.0215C53.3113 82.5184 57.5929 89.2803 62.6141 95.2963C63.2665 96.0781 63.4301 97.1334 63.5923 98.1789C63.7731 99.345 63.9523 100.499 64.8051 101.248C65.5334 101.889 65.3984 103.038 65.2019 103.988C65.1616 104.182 65.1136 104.39 64.9661 104.522C64.8566 104.621 64.7085 104.662 64.5661 104.7L60.4877 105.788ZM48.8182 71.9856C47.9152 71.3546 47.135 70.5485 46.5344 69.625C46.4045 69.4253 46.2784 69.2013 46.3011 68.9642C46.3261 68.7063 46.52 68.4999 46.7129 68.3271C47.1897 67.9005 47.7286 67.5434 48.3072 67.2704C48.519 67.1703 48.7926 67.0893 48.9689 67.2438C49.0723 67.3347 49.1053 67.4803 49.1321 67.6157L49.9664 71.7869C50.0157 72.0333 49.7568 72.2554 49.5056 72.2627C49.2541 72.2698 49.0243 72.1296 48.8182 71.9856ZM40.5648 80.0534C40.5469 80.8381 40.487 81.7187 39.8989 82.2384C39.776 82.2528 39.6944 82.1178 39.6461 82.0038C39.2224 81.001 38.7929 79.9738 38.7261 78.8874C38.6595 77.8006 39.0237 76.624 39.9117 75.9942C40.0317 75.9088 40.208 75.8384 40.3139 75.9408C40.3565 75.9818 40.3747 76.0416 40.3904 76.0986C40.6317 76.9856 40.6128 77.9197 40.592 78.8384L40.5648 80.0534ZM64.5264 106.151C64.6691 106.268 64.6841 106.476 64.688 106.661L64.7305 108.677C63.903 108.219 63.1107 107.698 62.3616 107.12C62.2198 107.01 62.0637 106.833 62.1507 106.676C62.1939 106.598 62.2835 106.561 62.367 106.53C62.9021 106.332 63.4557 106.184 64.0179 106.088C64.192 106.058 64.3897 106.039 64.5264 106.151ZM64.5741 98.2074C64.5664 98.1162 64.5664 98.017 64.6205 97.9434C64.7635 97.7491 65.0736 97.9251 65.2045 98.1274C65.52 98.6147 65.5897 99.2531 65.3869 99.7971C64.9232 99.3997 64.6246 98.8157 64.5741 98.2074ZM187.799 82.8944C188.623 81.856 190.126 81.7066 191.452 81.7389C191.762 81.7466 192.08 81.7613 192.362 81.8899C193.147 82.2474 193.313 83.272 193.339 84.1334C193.363 84.9171 193.359 85.7114 193.169 86.472C192.978 87.2326 192.584 87.9655 191.954 88.4323C191.671 88.6423 191.342 88.7952 190.995 88.8534C190.458 88.9434 189.908 88.8054 189.397 88.6154C188.717 88.3622 188.072 88.0144 187.486 87.5853C187.2 87.3757 186.905 87.1015 186.895 86.7469C186.874 85.9293 186.966 85.1091 187.167 84.3162C187.295 83.8096 187.474 83.3037 187.799 82.8944ZM189.937 88.0662C190.995 88.3699 192.122 87.551 192.523 86.5251C192.924 85.4995 192.776 84.3472 192.555 83.2682C192.47 82.8538 192.027 82.6224 191.619 82.5117C190.988 82.3402 190.316 82.3174 189.674 82.4458C189.355 82.5094 189.029 82.6189 188.805 82.8547C188.684 82.9834 188.599 83.1424 188.516 83.2989L187.896 84.471C187.787 84.6774 187.677 84.8854 187.613 85.1095C187.421 85.7802 187.675 86.5251 188.143 87.0419C188.611 87.5591 189.266 87.8736 189.937 88.0662ZM175.767 99.9184C176.738 100.257 177.618 100.853 178.293 101.628C178.873 102.295 179.315 103.161 179.193 104.036C179.148 104.357 179.03 104.664 178.895 104.959C178.383 106.076 177.502 107.146 176.292 107.363C175.658 107.476 175.003 107.34 174.393 107.132C173.688 106.892 173.015 106.556 172.4 106.134C172.073 105.911 171.749 105.646 171.606 105.277C171.507 105.023 171.504 104.743 171.508 104.471C171.517 103.797 171.562 103.111 171.797 102.48C172.094 101.68 172.676 101.02 173.293 100.432C173.541 100.195 173.804 99.9616 174.123 99.8346C174.644 99.6269 175.237 99.7334 175.767 99.9184ZM176.76 105.793C177.462 105.099 177.87 104.092 177.759 103.112C177.648 102.131 176.984 101.211 176.055 100.876C175.669 100.737 175.242 100.698 174.846 100.807C174.633 100.866 174.433 100.967 174.246 101.085C173.447 101.594 172.886 102.46 172.75 103.398C172.614 104.335 172.905 105.326 173.526 106.041C173.924 106.499 174.573 106.695 175.175 106.619C175.777 106.543 176.329 106.22 176.76 105.793ZM88.1555 94.1366C88.1229 93.6742 87.5046 93.5533 87.0413 93.5667C84.6086 93.6384 82.1792 93.8205 79.7629 94.113C79.3661 94.161 79.3337 94.8006 79.6525 95.0426C79.9709 95.2842 80.4144 95.2394 80.8102 95.1827L88.1555 94.1366ZM80.3785 97.2637C80.3997 97.0256 80.6989 96.9395 80.9363 96.9126L95.2653 95.2899C95.5245 95.2605 95.8006 95.2339 96.0339 95.3507C96.2668 95.4672 96.4173 95.7866 96.2649 95.9984C96.1529 96.1542 95.9376 96.1859 95.7462 96.2045L81.0902 97.6269C80.7856 97.6563 80.352 97.5686 80.3785 97.2637ZM112.502 99.6774C111.7 99.8534 110.877 99.5642 110.109 99.2768C107.623 98.3478 105.146 97.393 102.68 96.4128C101.684 96.017 100.592 96.6096 99.6966 97.1978C97.1053 98.9002 94.6105 100.749 92.2278 102.733C91.616 103.243 90.6742 102.885 90.0569 102.382C89.9267 102.276 89.7981 102.162 89.6691 102.048C89.1885 101.623 88.7017 101.193 88.08 101.105C87.1241 100.969 86.2832 101.693 85.5907 102.366L81.1245 106.704C80.5235 107.287 79.8915 108.221 80.4259 108.866C80.7789 109.291 81.4262 109.269 81.975 109.206C84.8403 108.874 87.6915 108.408 90.5414 107.942H90.5417C95.2525 107.173 99.9603 106.404 104.725 106.239C105.78 106.202 106.837 106.196 107.894 106.189C108.555 106.185 109.217 106.18 109.878 106.169C112.861 106.117 115.842 105.916 118.805 105.567C118.949 105.55 119.112 105.521 119.186 105.397C119.243 105.303 119.228 105.186 119.212 105.078L117.957 96.5376C117.893 96.1034 117.782 95.6019 117.386 95.4144C116.985 95.225 116.513 95.4691 116.184 95.7664C115.669 96.231 115.273 96.8486 114.882 97.4576C114.24 98.4566 113.613 99.433 112.502 99.6774ZM92.1184 104.35C94.7993 102.146 97.5945 100.081 100.489 98.1667C101.083 97.7738 101.806 97.3712 102.47 97.6291L109.489 100.357C110.66 100.812 111.942 101.273 113.144 100.908C114.542 100.484 115.378 99.0928 116.082 97.8128C116.219 97.5639 116.618 97.5923 116.815 97.7968C117.012 98.0016 117.062 98.3024 117.102 98.5837L117.616 102.145C117.695 102.692 117.772 103.26 117.614 103.789C117.456 104.318 116.992 104.799 116.44 104.789C107.405 104.614 98.3523 105.359 89.4675 107.009C89.1923 107.06 88.9171 107.112 88.6419 107.164H88.6416C86.519 107.564 84.3885 107.967 82.2317 107.974C83.2729 106.499 84.5929 105.245 85.9037 104.003C86.623 103.321 87.5229 102.585 88.4889 102.808C89.0109 102.929 89.4109 103.303 89.8089 103.676H89.8092V103.677H89.8096C89.9369 103.796 90.0643 103.916 90.1955 104.026C90.7357 104.482 91.5725 104.799 92.1184 104.35ZM208.03 129.195C207.791 129.284 207.523 129.223 207.279 129.146C205.627 128.627 204.285 127.465 202.967 126.324C202.788 126.169 202.61 126.015 202.432 125.863C200.247 123.999 197.875 122.354 195.365 120.959C195.109 120.817 194.841 120.668 194.685 120.421C194.528 120.174 194.533 119.799 194.774 119.634C195.9 118.865 196.63 117.546 196.684 116.184C196.698 115.821 197.108 115.579 197.47 115.608C197.833 115.637 198.148 115.855 198.444 116.065L209.917 124.209C210.14 124.367 210.381 124.551 210.436 124.82C210.48 125.039 210.388 125.26 210.296 125.464C209.801 126.556 209.232 127.614 208.594 128.628C208.45 128.858 208.285 129.1 208.03 129.195ZM196.553 119.534C196.418 119.772 196.301 120.116 196.52 120.28L205.882 127.329C206.394 127.715 207.191 128.077 207.595 127.578C208.058 127.005 208.491 126.408 208.891 125.788C209.001 125.619 209.112 125.426 209.073 125.228C209.037 125.047 208.885 124.916 208.742 124.8C205.306 122.015 201.668 119.478 197.867 117.217L196.553 119.534ZM191.894 123.844C192.045 123.585 192.228 123.301 192.522 123.238C192.746 123.189 192.975 123.285 193.181 123.386C194.308 123.933 195.341 124.675 196.219 125.569C196.43 125.784 196.457 126.13 196.363 126.417C196.268 126.703 196.075 126.944 195.885 127.178C195.579 127.555 195.254 127.946 194.803 128.124C194.317 128.317 193.751 128.224 193.291 127.976C192.83 127.728 192.46 127.34 192.134 126.931C191.709 126.397 191.329 125.757 191.395 125.078C191.438 124.633 191.668 124.231 191.894 123.844ZM193.866 126.833C194.574 127.109 195.028 126.891 195.047 126.426C195.058 126.132 194.802 125.906 194.57 125.727L193.866 125.186C193.633 125.006 193.376 124.819 193.083 124.821C192.789 124.823 192.49 125.125 192.61 125.393C192.592 125.523 193.156 126.558 193.866 126.833ZM191.067 132.557C191.24 132.652 191.423 132.744 191.62 132.748C191.817 132.752 192.031 132.641 192.079 132.45C192.193 132.001 192.49 131.629 192.78 131.265C192.812 131.226 192.844 131.186 192.875 131.146C193.193 130.744 193.5 130.287 193.509 129.774C193.517 129.261 193.092 128.714 192.584 128.784C192.183 128.84 191.811 128.577 191.52 128.296C191.473 128.252 191.427 128.205 191.381 128.159C191.138 127.916 190.89 127.67 190.567 127.564C190.183 127.439 189.659 127.638 189.628 128.042C189.567 128.854 188.892 129.465 188.266 129.986C188.079 130.142 188.248 130.441 188.423 130.61C189.212 131.373 190.104 132.03 191.067 132.557ZM191.192 131.01L189.959 130.175C189.646 129.963 189.671 129.444 189.95 129.188C190.23 128.933 190.664 128.914 191.02 129.042C191.377 129.169 191.673 129.42 191.961 129.666C192.152 129.828 192.178 130.124 192.091 130.359C192.004 130.594 191.826 130.782 191.653 130.964C191.594 131.026 191.528 131.091 191.443 131.102C191.352 131.114 191.268 131.06 191.192 131.01ZM200.967 131.064L201.57 129.783C201.755 129.391 201.934 128.906 201.684 128.551C201.598 128.428 201.47 128.341 201.346 128.257L199.152 126.779C198.915 126.619 198.659 126.454 198.374 126.458C198.036 126.463 197.753 126.705 197.513 126.943C197.153 127.299 196.817 127.679 196.507 128.08C196.271 128.384 196.077 128.886 196.4 129.097L199.756 131.3C200.021 131.473 200.357 131.652 200.635 131.5C200.799 131.412 200.888 131.233 200.967 131.064ZM200.224 130.157C200.083 130.19 199.935 130.154 199.797 130.112C198.949 129.857 198.174 129.368 197.578 128.714C197.38 128.496 197.492 128.111 197.744 127.959C197.995 127.806 198.323 127.841 198.594 127.955C198.77 128.029 198.93 128.132 199.091 128.234C199.179 128.29 199.267 128.347 199.357 128.398C199.455 128.454 199.556 128.505 199.658 128.556C199.947 128.7 200.235 128.845 200.432 129.095C200.698 129.434 200.643 130.061 200.224 130.157ZM201.357 131.588C201.744 131.496 201.862 131.102 201.985 130.692C202.087 130.353 202.191 130.004 202.453 129.806C202.905 129.465 203.544 129.75 204.03 130.039L205.576 130.959C205.823 131.105 206.075 131.257 206.252 131.483C206.428 131.708 206.515 132.028 206.392 132.287C206.309 132.46 206.153 132.574 205.996 132.69C205.867 132.784 205.738 132.879 205.647 133.008C205.531 133.172 205.488 133.379 205.445 133.583C205.391 133.839 205.338 134.091 205.143 134.252C204.787 134.545 204.258 134.31 203.864 134.069L201.686 132.738C201.466 132.604 201.235 132.457 201.126 132.223C201.019 131.989 201.107 131.648 201.357 131.588ZM204.213 132.91C204.525 132.804 204.776 132.572 205.016 132.347C205.191 132.184 204.957 131.916 204.749 131.798L203.415 131.047C203.275 130.968 203.082 130.897 202.974 131.015C202.626 131.394 202.576 132.013 202.857 132.444C203.139 132.875 203.726 133.076 204.213 132.91ZM188.9 132.864C188.601 132.78 188.297 132.694 188.053 132.527C187.674 132.269 187.147 132.332 186.749 132.56C186.351 132.788 186.054 133.155 185.768 133.512C185.608 133.711 185.445 133.918 185.384 134.165C185.323 134.412 185.396 134.712 185.618 134.836L187.945 136.133C188.122 136.231 188.318 136.332 188.515 136.289C188.711 136.245 188.847 136.071 188.965 135.909L189.563 135.085C189.897 134.626 190.245 134.042 190.002 133.53C189.806 133.119 189.36 132.993 188.9 132.864ZM188.163 134.998C188.042 135.03 187.916 134.972 187.804 134.914L186.219 134.108C186.523 133.676 187.103 133.51 187.629 133.563C188.155 133.615 188.643 133.849 189.118 134.079L188.39 134.836C188.324 134.903 188.254 134.974 188.163 134.998ZM177.179 102.732C177.424 103.106 177.348 103.606 177.185 104.023C176.97 104.572 176.607 105.082 176.095 105.374C175.582 105.666 174.909 105.709 174.41 105.395C173.911 105.081 173.66 104.382 173.927 103.856C173.989 103.735 174.074 103.627 174.158 103.519C174.239 103.416 174.32 103.313 174.381 103.197C174.421 103.122 174.452 103.041 174.484 102.961C174.529 102.844 174.574 102.729 174.645 102.628C174.9 102.268 175.4 102.197 175.841 102.203C176.341 102.21 176.905 102.314 177.179 102.732ZM176.063 102.969C175.379 102.961 174.738 103.534 174.671 104.214C174.643 104.492 174.761 104.838 175.038 104.876C175.245 104.905 175.427 104.745 175.567 104.588C175.861 104.258 176.115 103.891 176.319 103.497C176.387 103.365 176.447 103.196 176.357 103.078C176.292 102.991 176.171 102.971 176.063 102.969ZM192.415 85.1376C192.363 84.5117 191.944 83.896 191.335 83.7389C190.563 83.5398 189.813 84.0838 189.2 84.5942C189.019 84.7453 188.829 84.9078 188.752 85.1309C188.622 85.5098 188.857 85.9088 189.088 86.2358C189.352 86.6106 189.635 86.9872 190.021 87.2349C190.407 87.4826 190.922 87.5789 191.327 87.3635C191.533 87.2538 191.694 87.0746 191.834 86.887C192.209 86.383 192.468 85.7635 192.415 85.1376ZM190.701 86.7427C190.44 86.7818 190.168 86.6762 189.975 86.4947C189.686 86.2227 189.571 85.7853 189.673 85.4016C189.779 84.9978 190.118 84.664 190.523 84.5645C190.929 84.4646 191.384 84.6032 191.666 84.912C191.655 84.9962 191.646 85.081 191.637 85.1658C191.608 85.4538 191.578 85.7421 191.478 86.0122C191.349 86.3622 191.07 86.6874 190.701 86.7427ZM169.9 184.395C171.325 179.354 174.015 174.78 176.678 170.268C177.128 169.506 177.686 168.666 178.559 168.522C178.903 168.465 179.085 168.09 179.202 167.762C180.646 163.711 180.786 159.207 179.594 155.075C179.254 153.896 179.673 152.645 180.087 151.49L183.294 142.545C182.96 141.968 182.33 141.715 181.691 141.458C181.156 141.243 180.616 141.026 180.239 140.615C179.175 139.455 179.978 137.611 180.812 136.275L195.427 112.868C196.025 111.913 197.334 111.613 198.432 111.868C199.53 112.122 200.467 112.813 201.37 113.488L212.03 121.45C213.937 122.874 216.042 124.693 215.932 127.071C215.872 128.387 215.119 129.556 214.39 130.654L205.942 143.384C204.85 145.03 204.717 147.031 204.585 149.042C204.524 149.951 204.464 150.862 204.315 151.743C203.586 156.041 200.724 159.6 197.981 163.011C197.872 163.147 197.763 163.283 197.654 163.418C194.816 166.953 191.976 170.9 191.816 175.431C191.626 180.83 189.061 186.104 184.93 189.587L188.525 180.867C189.38 178.793 190.171 176.213 188.741 174.486C188.093 173.704 187.115 173.291 186.176 172.905L180.594 170.615C180.209 170.457 179.812 170.296 179.396 170.294C178.099 170.286 177.327 171.692 176.802 172.878C174.982 176.979 172.659 180.857 169.9 184.395ZM188.257 172.553C189.214 172.907 190.562 173.122 191.015 172.208C193.21 167.782 195.466 163.272 198.96 159.78C200.974 157.768 202.209 155.083 202.907 152.322C203.606 149.562 203.804 146.703 203.999 143.863C203.151 144.172 203.077 145.316 203.081 146.218C203.089 148.208 202.741 150.198 202.059 152.067C201.916 152.458 201.724 152.88 201.342 153.045C200.96 153.21 200.396 152.879 200.525 152.483C201.511 149.443 201.879 146.204 201.599 143.021C201.512 142.034 201.328 140.978 200.626 140.278C200.702 141.837 200.779 143.402 200.62 144.955C200.347 147.64 199.384 150.201 198.43 152.726C198.306 153.054 198.156 153.412 197.841 153.565C197.526 153.72 197.038 153.476 197.12 153.135L198.549 147.226C199.335 143.978 200.108 140.483 198.891 137.37C198.279 137.329 198.134 138.205 198.189 138.816C198.564 143.006 197.406 147.164 196.259 151.211C196.125 151.684 195.651 152.275 195.283 151.95C195.124 151.81 195.117 151.568 195.13 151.357C195.202 150.166 195.529 149.014 195.854 147.863C195.955 147.506 196.057 147.149 196.15 146.791C197.012 143.491 197.232 140.024 196.794 136.641C196.039 137.609 195.718 138.836 195.416 140.026L193.622 147.087C192.811 150.28 191.775 153.789 188.963 155.504C188.739 155.641 188.479 155.768 188.224 155.707C187.907 155.632 187.727 155.304 187.595 155.006C185.8 150.964 185.575 146.247 186.979 142.053C187.064 141.798 186.805 141.532 186.537 141.511C186.27 141.49 186.019 141.636 185.8 141.791C183.497 143.415 182.615 146.358 181.883 149.079L180.909 152.698C180.767 153.226 180.624 153.759 180.594 154.306C180.549 155.136 180.766 155.949 180.982 156.757C181.032 156.945 181.082 157.132 181.128 157.319C182.065 161.078 181.642 165.161 179.954 168.648C179.705 169.162 180.362 169.629 180.898 169.828L188.257 172.553ZM191.894 138.022C191.51 137.757 191.099 137.455 190.98 137.004C190.798 136.313 191.457 135.619 192.165 135.526C192.874 135.433 193.568 135.775 194.155 136.182C194.983 136.756 196.03 135.881 196.649 135.087C195.814 134.587 195.016 133.811 194.983 132.838C194.95 131.864 196.134 130.937 196.922 131.51C197.227 131.732 197.597 131.868 197.963 132.003C198.51 132.204 199.049 132.403 199.349 132.882C199.691 133.428 199.569 134.166 199.221 134.707C198.874 135.249 198.338 135.638 197.815 136.013C198.566 136.088 199.296 136.356 199.917 136.783L200.594 134.812C200.646 134.659 200.703 134.499 200.824 134.391C201.056 134.183 201.417 134.247 201.714 134.341C202.493 134.588 203.257 134.974 203.771 135.61C204.286 136.245 204.5 137.169 204.14 137.903C203.781 138.637 202.767 139.028 202.08 138.586C201.937 138.494 201.794 138.371 201.651 138.249C201.268 137.92 200.884 137.592 200.515 137.855C201.644 138.734 202.419 140.055 202.637 141.469C206.192 136.055 209.708 130.615 213.186 125.152C213.518 124.63 213.786 123.808 213.245 123.508C210.935 122.227 208.894 120.511 206.857 118.799C204.286 116.638 201.723 114.484 198.639 113.218C198.443 113.138 198.229 113.06 198.024 113.114C197.81 113.171 197.659 113.357 197.524 113.533C191.78 121.031 186.624 128.98 182.121 137.282C181.493 138.44 182.334 139.82 183.138 140.864C183.54 141.386 184.316 141.937 184.754 141.445C185.307 140.826 186.212 140.472 186.995 140.749C187.777 141.025 188.264 142.043 187.838 142.755C187.531 143.27 188.133 143.843 188.659 144.131C189.711 144.708 190.79 145.234 191.891 145.708C192.044 145.775 192.222 145.839 192.371 145.765C192.513 145.693 192.571 145.524 192.615 145.372L193.835 141.175C194.035 140.484 194.17 139.589 193.578 139.181L191.894 138.022ZM213.715 126.256C213.554 126.2 213.406 126.362 213.311 126.505L204.177 140.177C203.931 140.545 203.68 140.927 203.608 141.364C203.536 141.8 203.697 142.308 204.094 142.502C204.752 142.824 205.44 142.148 205.862 141.549L214.348 129.522C214.978 128.628 214.445 127.408 213.906 126.457C213.859 126.375 213.805 126.286 213.715 126.256ZM188 144.513C187.839 144.396 187.599 144.466 187.464 144.612C187.33 144.758 187.275 144.959 187.224 145.151C187.099 145.625 186.973 146.103 186.955 146.592C186.937 147.081 187.026 147.568 187.114 148.049L187.988 152.804C188.025 153.003 188.068 153.215 188.21 153.36C188.351 153.505 188.626 153.537 188.741 153.369C190.035 151.476 191.348 149.546 192.025 147.355C192.109 147.082 192.134 146.699 191.867 146.598C190.492 146.081 189.187 145.378 188 144.513ZM198.1 132.782C197.662 132.365 197.083 132.098 196.48 132.036C195.931 131.98 195.614 132.752 195.865 133.244C196.116 133.735 196.669 133.979 197.182 134.184C197.543 134.329 197.982 134.466 198.297 134.237C198.75 133.908 198.506 133.168 198.1 132.782ZM194.495 138.292C194.674 138.164 194.697 137.904 194.647 137.691C194.458 136.886 193.576 136.475 192.784 136.239C192.477 136.148 192.096 136.084 191.88 136.32C191.699 136.517 191.738 136.843 191.893 137.06C192.049 137.277 192.292 137.411 192.527 137.537L193.751 138.196C193.984 138.322 194.279 138.445 194.495 138.292ZM201.457 135.391C201.198 135.738 201.225 136.242 201.441 136.618C201.657 136.993 202.031 137.253 202.426 137.431C202.562 137.492 202.71 137.545 202.856 137.516C202.981 137.491 203.088 137.406 203.165 137.304C203.447 136.927 203.31 136.358 202.986 136.014C202.662 135.671 202.202 135.5 201.758 135.339C201.682 135.311 201.593 135.284 201.523 135.326C201.516 135.33 201.51 135.334 201.504 135.339C201.486 135.354 201.471 135.372 201.457 135.391ZM78.735 166.836C78.9043 165.584 79.1417 164.206 80.1254 163.413C80.9101 162.781 81.9869 162.68 82.9942 162.66C86.2941 162.597 89.6048 163.133 92.7161 164.234C93.7005 164.583 94.7305 165.042 95.2688 165.936C95.8515 166.905 95.7094 168.127 95.5481 169.245L93.0493 186.606C94.7725 181.579 96.0096 176.384 96.7376 171.12C97.0774 168.664 97.1958 165.845 95.4816 164.054C92.8057 161.257 92.8787 157.274 92.9529 153.223C93.0169 149.728 93.0819 146.182 91.3814 143.307C90.8269 142.369 92.0637 141.4 93.0925 141.04C97.6269 139.452 102.461 138.724 107.262 138.905C108.142 145.858 108.38 152.892 107.972 159.888C107.881 161.458 110.106 161.862 111.668 161.689L165.864 155.68C166.135 155.65 166.429 155.609 166.621 155.416C166.845 155.19 166.857 154.835 166.853 154.516C166.725 141.818 166.36 129.123 165.757 116.438C165.734 115.943 165.671 115.375 165.261 115.096C164.954 114.887 164.549 114.915 164.179 114.95L125.496 118.7C128.038 106.715 130.593 94.5046 129.434 82.3075C120.978 87.9456 110.066 87.9034 99.9203 87.3066C99.4985 87.2816 99.0758 87.2563 98.6525 87.231C88.8886 86.6474 78.7062 86.0391 69.9283 90.2627C74.5245 102.449 79.1734 115.75 75.3529 128.201C75.0147 129.303 74.6128 130.385 74.2105 131.466C73.591 133.134 72.9715 134.8 72.5885 136.535C71.9571 139.395 72.0521 142.597 73.7446 144.987C76.1952 148.448 78.143 152.384 78.5872 156.601C79.0086 160.604 78.0669 164.573 77.1261 168.538C76.143 172.681 75.1609 176.819 75.7366 180.984C75.8342 181.689 76.0102 182.447 76.5619 182.896L78.735 166.836ZM82.5693 116.541C83.5942 116.578 84.0016 117.864 84.1328 118.882L85.1702 126.936C83.1443 125.885 80.2941 127.668 80.3523 129.95C78.6451 126.654 78.3856 122.878 78.1289 119.14C78.0729 118.326 78.0173 117.515 77.9469 116.71C77.1929 108.11 74.6009 99.7907 72.0249 91.5504C71.6576 90.3754 73.2441 89.6134 74.4624 89.4346C82.4557 88.2627 90.5456 88.4246 98.6393 88.5866C102.308 88.6598 105.978 88.7331 109.639 88.6826C116.145 88.5923 123.029 87.9763 128.307 84.1706C129.493 92.0784 127.881 100.057 126.289 107.935C126.074 109 125.859 110.064 125.651 111.126C123.909 120.035 122.723 129.531 126.057 137.975C126.197 138.331 125.718 138.599 125.344 138.677C122.602 139.249 119.767 139.372 116.985 139.04C115.792 138.898 114.612 138.673 113.431 138.448C112.542 138.278 111.653 138.109 110.758 137.974C104.021 136.964 96.9891 138.013 90.8409 140.946C90.5945 141.064 90.3014 141.009 90.0432 140.919C88.7981 140.488 87.9097 139.338 87.4665 138.097C87.0233 136.856 86.96 135.517 86.9008 134.2L86.6528 128.679C86.6438 128.481 86.696 128.212 86.8944 128.205C97.6646 127.869 108.423 127.143 119.141 126.029C118.687 123.493 118.643 120.885 119.008 118.335C119.239 116.725 117.725 115.258 116.113 115.042C114.501 114.827 112.907 115.557 111.569 116.481C111.068 116.826 110.587 117.202 110.107 117.577C109.303 118.204 108.5 118.831 107.605 119.317C107.02 119.635 106.316 119.892 105.702 119.635C104.949 119.321 104.697 118.426 104.472 117.627C104.458 117.577 104.444 117.527 104.43 117.478C104.136 116.449 103.652 115.425 102.8 114.778C101.948 114.131 100.663 113.97 99.8217 114.631C99.1027 115.196 98.8755 116.176 98.7549 117.082C98.7443 117.163 98.7337 117.244 98.7235 117.325C98.6166 118.159 98.5062 119.02 98.0089 119.689C97.4627 120.423 96.2441 120.737 95.6454 120.046C94.4608 118.679 92.3824 118.392 90.6384 118.872C88.8944 119.352 87.4019 120.46 85.9549 121.545C85.0819 120.179 85.0099 118.34 85.7728 116.909L85.7856 116.886C85.9292 116.617 86.0941 116.309 85.967 116.035C85.8886 115.866 85.7152 115.762 85.5437 115.688C84.5174 115.248 83.2064 115.624 82.5693 116.541ZM113.408 139.628C113.982 139.743 114.687 139.999 114.723 140.583C115.061 146.153 119.487 151.158 124.93 152.391C130.372 153.624 136.403 151.131 139.577 146.541C142.75 141.951 142.998 135.574 140.396 130.638C137.606 125.344 130.824 122.532 125.107 124.299C124.841 123.13 124.871 121.894 125.193 120.738C125.252 120.524 125.33 120.299 125.504 120.159C125.673 120.022 125.901 119.991 126.117 119.965L142.224 118.025C143.64 117.855 145.059 117.684 146.486 117.672C152.619 117.622 158.747 117.01 164.769 115.848C165.705 128.413 166.145 141.015 166.089 153.614C166.086 154.212 165.904 155.006 165.307 155.024C155.17 155.319 145.113 156.652 135.052 157.986C128.293 158.883 121.532 159.779 114.744 160.361C113.231 160.491 111.707 160.605 110.195 160.46C109.922 160.435 109.612 160.379 109.464 160.147C109.374 160.007 109.364 159.833 109.356 159.667L108.452 139.514C108.441 139.253 108.457 138.94 108.682 138.809C108.831 138.722 109.019 138.753 109.188 138.787L113.408 139.628ZM85.6755 134.963C85.5152 136.01 85.335 137.187 86.0208 137.979C88.5785 140.933 91.2358 144.089 91.9155 147.937C92.2329 149.734 92.0966 151.583 91.9609 153.425C91.7897 155.745 91.6195 158.053 92.3584 160.229C92.3776 160.286 92.3974 160.343 92.4176 160.4C92.5533 160.788 92.6915 161.183 92.6477 161.588C92.5971 162.053 92.1939 162.52 91.7334 162.441L86.3862 161.519C84.6153 161.213 82.7446 160.916 81.0627 161.548C80.7373 161.67 80.3632 161.456 80.1888 161.156C80.0144 160.855 79.9917 160.493 79.9766 160.146C79.9584 159.727 79.9446 159.305 79.9309 158.882C79.8445 156.22 79.7565 153.508 78.5245 151.176L74.5933 143.734C74.0128 142.636 73.4189 141.488 73.3789 140.246C73.3523 139.417 73.576 138.602 73.7981 137.803L75.759 130.739C76.1721 129.252 76.6089 127.717 77.5865 126.523C79.9619 130.553 80.1965 135.766 78.1923 139.993C78.0067 140.384 78.5731 140.787 78.9769 140.631C79.3805 140.475 79.5856 140.033 79.728 139.624C80.2979 137.987 80.4979 136.261 80.6982 134.533C80.8601 133.135 81.0221 131.735 81.3808 130.379C81.6003 129.548 81.9174 128.701 82.5587 128.129C83.2 127.557 84.2461 127.362 84.918 127.897C85.4326 128.307 85.5997 129.006 85.6976 129.657C85.9558 131.372 85.9545 133.126 85.6941 134.841C85.688 134.882 85.6816 134.922 85.6755 134.963ZM94.9017 121.017C95.6899 121.62 96.4621 122.211 97.4076 122.101C98.6096 121.962 99.3587 120.725 99.7078 119.566C99.7843 119.313 99.8521 119.053 99.9203 118.793C100.163 117.865 100.409 116.929 101.045 116.231C101.23 116.028 101.497 115.839 101.76 115.918C101.973 115.983 102.097 116.198 102.196 116.398C102.336 116.68 102.469 116.967 102.601 117.255C102.976 118.065 103.35 118.876 103.893 119.58C104.629 120.534 105.774 121.284 106.971 121.153C108.042 121.035 108.879 120.277 109.694 119.538C109.862 119.386 110.028 119.236 110.195 119.092C112.159 117.398 114.717 116.407 117.31 116.335C116.96 117.209 117.194 118.163 117.422 119.098C117.477 119.323 117.532 119.548 117.579 119.769C117.945 121.519 117.76 123.38 117.056 125.023L99.7398 126.356C95.6973 126.668 91.6445 126.979 87.5926 126.837C87.3366 126.828 87.0742 126.815 86.8387 126.715C86.3939 126.524 86.1296 126.05 86.0339 125.575C85.8195 124.512 86.3097 123.405 87.0521 122.614C87.7945 121.823 88.7641 121.291 89.7165 120.772C90.7075 120.231 91.8077 119.673 92.9126 119.903C93.648 120.057 94.28 120.54 94.9017 121.017ZM127.692 146.241C125.069 146.187 122.796 144.047 122.017 141.541C121.858 141.03 122.189 140.468 122.645 140.188C123.101 139.907 123.653 139.84 124.186 139.78L128.03 139.349C126.861 137.077 126.028 134.632 125.567 132.119C125.526 131.891 125.488 131.651 125.56 131.431C125.686 131.044 126.103 130.841 126.489 130.711C129.612 129.661 133.362 130.936 135.198 133.671C137.035 136.406 136.794 140.36 134.638 142.852C133.705 143.931 132.483 144.727 131.194 145.34C130.096 145.862 128.909 146.266 127.692 146.241ZM140.141 132.737C140.608 134.278 140.743 135.9 140.807 137.509C139.759 137.35 138.7 137.26 137.64 137.239C137.433 134.532 135.631 132.087 133.263 130.76C130.894 129.434 128.035 129.147 125.359 129.601C125.337 129.22 125.267 128.821 125.197 128.423C125.014 127.373 124.83 126.322 125.51 125.576C125.92 125.126 126.545 124.946 127.144 124.834C129.873 124.326 132.782 124.858 135.154 126.3C137.525 127.742 139.337 130.08 140.141 132.737ZM120.901 141.268C120.897 141.318 120.893 141.367 120.891 141.414C120.873 141.788 121.047 142.131 121.219 142.471C121.266 142.562 121.312 142.653 121.354 142.744C121.554 143.174 121.651 143.742 121.317 144.079C120.508 144.895 119.794 145.805 119.192 146.783C119.043 147.026 118.676 147.045 118.432 146.901C118.187 146.757 118.035 146.499 117.894 146.253C116.999 144.693 116.082 143.061 115.971 141.266C115.956 141.043 115.981 140.773 116.179 140.669C116.266 140.623 116.369 140.622 116.467 140.621L120.469 140.609C120.564 140.609 120.665 140.61 120.748 140.657C120.945 140.769 120.922 141.028 120.901 141.268Z" fill="#00160A" />
</svg>
    