<svg width="240" height="240" viewBox="0 0 240 240" fill="none" xmlns="http://www.w3.org/2000/svg">
    <path fill-rule="evenodd" clip-rule="evenodd" d="M163.881 175.258C129.245 182.397 106.773 161.837 61.0273 161.837C45.395 161.837 7.60943 170.64 13.4599 116.243C16.7798 85.3744 52.562 71.3651 86.0014 89.4074C95.841 93.2554 103.61 92.0627 112.044 88.2394C120.479 84.416 131.327 67.3472 151.773 63.8355C213.299 53.2685 281.418 151.029 163.881 175.258Z" fill="#6776E0" />
    <path fill-rule="evenodd" clip-rule="evenodd" d="M162.62 105.489C165.031 107.076 167.452 108.756 170.227 109.554C173.002 110.351 176.263 110.107 178.4 108.166C187.023 100.331 200.909 99.0208 210.845 105.105C220.781 111.189 225.927 124.153 222.868 135.395C219.81 146.637 208.806 155.208 197.157 155.42C191.122 155.53 185.54 158.415 179.773 160.198C174.006 161.981 167.07 162.439 162.56 158.426C157.698 154.102 158.253 145.191 163.613 141.504C155.19 142.135 146.767 142.766 138.344 143.397C140.197 144.148 142.17 144.997 143.232 146.691C144.294 148.384 143.807 151.155 141.872 151.659C134.667 153.533 127.289 150.117 120.373 147.36C113.458 144.604 105.124 142.579 98.9567 146.75C85.0585 156.15 66.6969 154.589 50.1436 151.848C46.1724 151.191 41.3951 149.744 40.5695 145.805C32.9689 147.235 25.2178 147.866 17.4858 147.683C15.5984 147.638 13.3704 147.341 12.4883 145.672C11.3454 143.509 13.397 141.055 15.3951 139.644C21.4968 135.334 28.9463 132.963 36.4162 132.953C38.5442 132.95 39.9647 130.727 40.5065 128.669C41.0482 126.612 41.1999 124.322 42.5817 122.704C37.8831 121.998 32.9055 123.433 29.303 126.53C28.6343 127.105 27.5056 126.528 27.225 125.692C26.9443 124.856 27.2335 123.947 27.5303 123.116C29.1927 118.467 31.2769 113.743 35.055 110.564C38.8329 107.385 44.7359 106.238 48.7186 109.157C49.9679 110.072 52.0895 111.248 55.0828 112.682C58.1519 112.218 60.4338 111.849 61.9289 111.574C66.4566 110.742 70.6546 108.685 74.7586 106.6C89.0598 99.3341 103.723 91.2442 119.758 90.7879C135.098 90.3511 149.803 97.0487 162.62 105.489ZM178.848 118.085L180.287 121.71C180.357 121.887 180.434 122.073 180.582 122.193C180.762 122.339 181.01 122.358 181.239 122.392C182.998 122.645 184.376 123.98 185.623 125.247C187.219 126.869 188.816 128.491 190.413 130.113C190.891 130.599 191.686 130.074 192.144 129.568C193.174 128.432 194.223 127.267 194.817 125.853C195.411 124.44 195.476 122.707 194.59 121.456C194.063 120.712 193.261 120.211 192.439 119.818C191.082 119.169 189.611 118.762 188.113 118.622C186.654 118.485 185.183 118.6 183.717 118.589C182.083 118.577 180.45 118.408 178.848 118.085Z" fill="white" />
    <path fill-rule="evenodd" clip-rule="evenodd" d="M40.5703 145.805C32.9697 147.236 25.2185 147.866 17.4865 147.683C15.2614 144.44 39.3396 138.466 40.2129 142.404C40.9031 145.519 40.9348 147.544 40.5703 145.805Z" fill="#E7EAEE" />
    <path fill-rule="evenodd" clip-rule="evenodd" d="M157.176 135.3C157.988 135.213 161.216 134.421 164.605 134.788C166.426 133.853 175.154 134.588 180.363 135.608C183.707 136.263 192.183 136.699 195.26 138.269C200.603 140.994 200.725 142.678 199.922 143.039C197.638 144.064 194.887 144.569 193.409 144.596C190.746 144.645 185.39 142.184 179.515 140.643C176.892 139.954 174.964 139.369 173.444 138.802L173.692 138.693C170.406 140.177 167.006 140.413 163.613 141.504C155.19 142.135 146.767 142.766 138.344 143.397C140.197 144.148 112.323 133.999 120.373 132.519C120.87 132.428 121.417 132.372 122.01 132.347C129.549 132.031 144.529 136.651 157.176 135.3Z" fill="#E7EAEE" />
    <path fill-rule="evenodd" clip-rule="evenodd" d="M81.9537 122.771C82.0564 122.954 81.9787 123.198 81.8244 123.341C81.6702 123.485 81.4583 123.546 81.2516 123.585C79.7287 123.871 78.0651 123.04 77.3783 121.652C77.3019 121.497 77.2353 121.326 77.2587 121.156C77.282 120.984 77.4257 120.819 77.5982 120.829C78.0414 121.318 78.491 121.813 79.043 122.174C79.595 122.536 80.2695 122.757 80.9188 122.638C81.2871 122.57 81.771 122.444 81.9537 122.771Z" fill="#00160A" />
    <path fill-rule="evenodd" clip-rule="evenodd" d="M82.9517 141.717C82.9735 141.288 83.5108 141.109 83.9396 141.093C85.8618 141.022 87.6519 141.964 89.4273 142.704C91.2023 143.445 93.2698 143.991 95.0036 143.158C95.3655 142.984 95.7447 142.746 96.1374 142.83C95.4862 144.093 93.9294 144.667 92.5101 144.589C91.0913 144.511 89.7614 143.911 88.4529 143.356C87.1444 142.801 85.7681 142.274 84.3492 142.353C84.058 142.369 83.7601 142.41 83.4794 142.331C83.1991 142.252 82.9373 142.008 82.9517 141.717Z" fill="#00160A" />
    <path fill-rule="evenodd" clip-rule="evenodd" d="M86.3163 145.315C84.9906 144.928 83.4402 145.121 82.3512 144.272C82.2181 144.168 82.0869 144.032 82.0814 143.863C82.0744 143.627 82.3291 143.453 82.5656 143.447C82.8021 143.441 83.0242 143.549 83.2462 143.631C84.0571 143.929 84.9496 143.889 85.796 144.061C87.0658 144.32 88.1839 145.044 89.38 145.543C90.5759 146.042 92.0104 146.297 93.124 145.634C93.5733 145.367 94.1637 144.968 94.5362 145.335C93.3237 146.716 91.2712 147.292 89.5176 146.742C88.4008 146.392 87.4398 145.642 86.3163 145.315Z" fill="#00160A" />
    <path fill-rule="evenodd" clip-rule="evenodd" d="M48.105 131.332C47.8919 131.06 47.8938 130.664 48.0298 130.346C48.1658 130.028 48.4154 129.773 48.6737 129.543C49.899 128.448 51.5946 127.707 53.185 128.119C54.3774 128.427 55.3204 129.321 56.155 130.226C56.5124 130.613 56.881 131.169 56.6135 131.623C56.3278 132.108 55.6106 132.005 55.0673 131.858C53.3806 131.401 51.593 131.131 49.8884 131.517C49.2702 131.657 48.4958 131.832 48.105 131.332Z" fill="#00160A" />
    <path fill-rule="evenodd" clip-rule="evenodd" d="M75.7289 147.765C75.9638 147.907 75.9315 148.286 75.7356 148.479C75.5398 148.671 75.2511 148.727 74.9804 148.773C73.463 149.033 71.9458 149.293 70.4284 149.554C70.1116 149.608 69.7574 149.655 69.4934 149.472C69.229 149.289 69.2214 148.78 69.5359 148.713C71.4383 148.312 73.3558 147.981 75.2828 147.724C75.4339 147.703 75.5983 147.686 75.7289 147.765Z" fill="#00160A" />
    <path fill-rule="evenodd" clip-rule="evenodd" d="M71.857 131.911C71.5232 132.034 71.1546 131.712 71.1094 131.359C71.0643 131.006 71.247 130.664 71.4586 130.378C72.4426 129.045 74.1968 128.363 75.8406 128.567C77.4848 128.772 78.9782 129.814 79.8416 131.228C79.975 131.446 80.0986 131.697 80.048 131.947C79.9933 132.219 79.7395 132.415 79.471 132.482C79.2026 132.549 78.92 132.511 78.647 132.464C77.512 132.268 76.4051 131.928 75.2691 131.737C74.1328 131.545 72.937 131.51 71.857 131.911Z" fill="#00160A" />
    <path fill-rule="evenodd" clip-rule="evenodd" d="M50.4013 122.791C50.5302 122.413 51.0771 122.506 51.4691 122.584C52.6912 122.826 53.8864 122.145 54.9465 121.491C55.088 121.403 55.2765 121.569 55.2736 121.736C55.2704 121.902 55.1507 122.04 55.0336 122.159C53.9766 123.227 52.3961 123.957 50.9673 123.493C50.648 123.389 50.2928 123.109 50.4013 122.791Z" fill="#00160A" />
    <path fill-rule="evenodd" clip-rule="evenodd" d="M92.8473 129.264C92.4351 129.186 92.2213 128.685 92.2985 128.273C92.3756 127.86 92.6556 127.52 92.9199 127.194C93.9183 125.963 94.8284 124.653 95.5455 123.239C96.1621 122.023 96.6345 120.734 97.3279 119.56C99.3122 116.201 103.16 114.029 107.061 114.068C105.498 112.948 103.65 112.287 101.778 111.849C95.9881 110.494 89.7321 111.229 84.414 113.889C83.5733 114.309 82.7535 114.777 81.8767 115.116C81.4725 115.272 81.0252 115.401 80.6108 115.273C80.1967 115.145 79.8716 114.657 80.0642 114.269C80.1753 114.045 80.4146 113.92 80.6386 113.809C82.9045 112.691 85.1797 111.569 87.5813 110.784C92.9541 109.028 98.8905 109.046 104.252 110.834C106.052 111.434 107.932 112.366 108.711 114.095C108.831 114.361 108.841 114.785 108.554 114.828C105.464 115.294 102.32 116.363 100.187 118.647C97.4248 121.604 96.7561 126.146 93.7605 128.868C93.5052 129.099 93.1858 129.329 92.8473 129.264Z" fill="#00160A" />
    <path fill-rule="evenodd" clip-rule="evenodd" d="M138.344 143.397C140.197 144.148 142.17 144.997 143.232 146.691C144.294 148.384 143.807 151.155 141.872 151.659C134.667 153.533 127.289 150.117 120.373 147.36C113.458 144.604 105.124 142.579 98.9567 146.75C85.0585 156.15 66.6969 154.589 50.1436 151.848C46.1724 151.191 41.3951 149.744 40.5695 145.805C32.9689 147.235 25.2178 147.866 17.4858 147.683C15.5984 147.638 13.3704 147.341 12.4883 145.672C11.3454 143.509 13.397 141.055 15.3951 139.644C21.4968 135.334 28.9463 132.963 36.4162 132.953C38.5442 132.95 39.9647 130.727 40.5065 128.669C41.0482 126.612 41.1999 124.322 42.5817 122.704C37.8831 121.998 32.9055 123.433 29.303 126.53C28.6343 127.105 27.5056 126.528 27.225 125.692C26.9443 124.856 27.2335 123.947 27.5303 123.116C29.1927 118.467 31.2769 113.743 35.055 110.564C38.8329 107.385 43.0146 106.179 48.6927 108.764C50.1798 109.441 52.3036 110.644 55.0639 112.374C58.1148 112.121 60.4031 111.854 61.9289 111.574C66.4566 110.742 70.6546 108.685 74.7586 106.6C89.0598 99.3341 103.723 91.2442 119.758 90.7879C135.098 90.3511 149.803 97.0487 162.62 105.489C165.031 107.076 167.452 108.756 170.227 109.554C173.002 110.351 176.263 110.107 178.4 108.166C187.023 100.331 200.909 99.0208 210.845 105.105C220.781 111.189 225.927 124.153 222.868 135.395C219.81 146.637 208.806 155.208 197.157 155.42C191.122 155.53 185.54 158.415 179.773 160.198C174.006 161.981 167.07 162.439 162.56 158.426C157.698 154.102 158.253 145.191 163.613 141.504C155.19 142.135 146.767 142.766 138.344 143.397ZM187.101 127.858C182.85 123.582 176.508 121.492 170.548 122.401C173.434 121.504 176.526 121.278 179.512 121.746C171.049 109.525 157.392 101.892 143.472 96.6771C136.707 94.1427 129.662 92.0595 122.44 91.9002C113.038 91.6925 103.875 94.7485 95.191 98.3575C85.6594 102.318 76.4396 106.984 67.23 111.645C70.0716 111.499 72.9516 112.748 74.7881 114.921C67.0742 111.74 57.9372 112.231 50.6082 116.219C50.6434 114.762 51.8079 113.412 53.2438 113.162C49.0502 109.467 42.6073 108.57 37.5638 110.979C32.5202 113.388 29.1689 118.964 29.4078 124.548C33.6671 121.026 39.8105 119.936 45.0214 121.78C41.9199 126.955 40.3186 133.018 40.4604 139.05C42.0902 138.363 44.0985 138.686 45.431 139.849C43.9423 140.009 42.4534 140.169 40.9647 140.329C41.0278 141.009 41.0905 141.688 41.1535 142.367C42.7289 142.135 44.3042 141.903 45.8793 141.671C44.8655 142.837 43.4361 143.634 41.911 143.883C41.7196 145.824 43.0665 147.655 44.7567 148.628C46.4466 149.6 48.4316 149.891 50.3625 150.163C55.175 150.84 59.9878 151.518 64.8002 152.197C63.6841 150.938 63.5014 148.911 62.7727 147.509C61.829 145.695 60.4662 144.956 59.783 142.548C59.5474 141.717 59.0041 140.547 59.7644 140.019C60.0838 139.797 60.4994 139.789 60.8886 139.789C62.477 139.787 64.0658 139.785 65.6543 139.783C66.1679 139.783 66.7046 139.788 67.1583 140.028C68.5334 140.755 68.0991 142.903 67.0722 144.071C66.0454 145.24 64.5772 146.173 64.2265 147.688C63.8662 149.245 64.9142 150.859 66.3062 151.643C67.6978 152.428 69.3542 152.561 70.951 152.615C74.3167 152.731 77.6914 152.575 81.0322 152.149C89.4422 151.08 98.4022 147.653 102.306 140.127C102.069 142.024 101.078 143.816 99.597 145.025C105.724 142.768 112.663 142.793 118.774 145.095C124.569 147.277 130.067 151.493 136.213 150.736C135.95 150.523 135.848 150.153 135.585 149.94C134.867 149.358 133.989 148.933 133.272 148.351C135.464 149.153 137.655 149.954 139.846 150.756C139.597 150.391 139.846 150.023 139.383 149.466C138.919 148.909 137.907 147.914 137.31 147.04C138.97 147.523 140.424 148.674 141.275 150.179C141.984 150.005 142.693 149.832 143.402 149.659C139.802 144.798 134.824 140.97 129.203 138.738C126.475 137.655 123.094 136.359 122.753 133.444C128.883 139.365 137.668 141.89 146.189 142.07C154.709 142.251 163.116 140.315 171.418 138.39C169.517 137.429 167.804 136.101 166.4 134.499C175.724 139.723 186.157 142.958 196.802 143.926C196.198 142.903 195.594 141.879 194.991 140.856C196.311 140.893 197.545 141.895 197.853 143.18C198.515 142.919 199.178 142.658 199.84 142.397C198.919 141.494 197.998 140.591 197.077 139.688C198.558 139.331 200.22 140.474 200.418 141.985C201.038 141.662 201.549 141.136 201.854 140.507C200.753 139.673 199.651 138.84 198.55 138.006C200.219 137.972 201.895 138.531 203.21 139.559C201.654 135.777 196.389 135.686 192.892 133.565C190.566 132.154 189.019 129.787 187.101 127.858ZM179.183 116.989C181.264 117.493 183.442 117.103 185.582 117.109C187.8 117.116 190.009 117.556 192.087 118.33C193.37 118.809 194.652 119.451 195.486 120.537C196.808 122.258 196.693 124.754 195.77 126.718C194.848 128.683 193.252 130.236 191.69 131.742C194.969 133.205 198.249 134.668 201.528 136.131C202.455 136.544 203.457 137.029 203.88 137.951C204.613 139.545 203.191 141.294 201.73 142.265C197.173 145.297 190.975 145.668 186.088 143.204C182.953 141.623 179.477 140.869 176.045 140.129C174.17 139.725 172.218 139.322 170.357 139.779C169.035 140.103 167.79 140.854 166.43 140.808C165.215 140.767 164.27 141.816 163.558 142.801C161.216 146.044 159.284 150.187 160.656 153.945C161.599 156.528 163.989 158.39 166.594 159.273C169.198 160.156 172.013 160.181 174.758 160.006C178.194 159.788 181.693 159.243 184.71 157.584C186.674 156.505 188.433 154.958 190.605 154.407C193.212 153.746 195.959 154.633 198.641 154.437C200.777 154.281 202.799 153.445 204.754 152.572C209.531 150.44 214.309 147.923 217.698 143.937C222.751 137.994 223.952 129.285 221.538 121.868C219.124 114.45 213.418 108.351 206.59 104.579C204.713 103.541 202.736 102.66 200.655 102.143C195.658 100.9 190.19 101.879 185.823 104.607C183.575 106.011 181.622 107.842 179.419 109.316C177.217 110.791 174.627 111.926 171.989 111.669C174.022 113.916 176.238 116.275 179.183 116.989ZM21.9188 137.306C18.8583 138.499 15.7959 140.083 13.8562 142.734C14.7487 142.242 15.8693 142.187 16.8053 142.59C16.123 142.927 15.4407 143.264 14.7583 143.601C14.376 143.79 13.9809 143.989 13.7154 144.323C13.4499 144.657 13.3539 145.166 13.611 145.506C13.868 145.846 14.518 145.815 14.6424 145.407C15.0986 143.911 16.8602 142.954 18.3636 143.387C17.2345 144.03 16.0015 144.805 15.689 146.067C15.8579 146.635 16.69 146.728 17.1791 146.393C17.6681 146.058 17.9122 145.477 18.1935 144.956C18.4748 144.434 18.8832 143.899 19.4699 143.813C19.5937 143.795 19.7352 143.805 19.8211 143.896C19.971 144.054 19.8473 144.313 19.7063 144.48C19.3868 144.857 18.9791 145.187 18.8221 145.655C18.665 146.124 18.9457 146.779 19.4389 146.749C26.3645 146.326 33.277 145.689 40.1634 144.84C40.4124 144.301 39.6562 143.863 39.0681 143.784C37.575 143.581 36.039 143.701 34.5951 144.132C34.8617 143.244 35.758 142.663 36.6697 142.497C37.581 142.33 38.5167 142.501 39.4274 142.672C39.4345 142.033 39.3151 141.392 39.078 140.798C37.63 140.767 36.1948 140.284 35.0236 139.431C36.0025 139.065 37.1398 139.149 38.0546 139.654C38.4914 139.895 38.8169 139.189 38.8242 138.69C38.8476 137.069 38.871 135.447 38.8946 133.825C33.0937 134.015 27.3264 135.198 21.9188 137.306ZM181.239 122.392C182.998 122.645 184.376 123.98 185.623 125.247C187.219 126.869 188.816 128.491 190.413 130.113C190.891 130.599 191.686 130.074 192.144 129.568C193.174 128.432 194.223 127.267 194.817 125.853C195.411 124.44 195.476 122.707 194.59 121.456C194.063 120.712 193.261 120.211 192.439 119.818C191.082 119.169 189.611 118.762 188.113 118.622C186.654 118.485 185.183 118.6 183.717 118.589C182.083 118.577 180.45 118.408 178.848 118.085C179.328 119.293 179.807 120.502 180.287 121.71C180.357 121.887 180.434 122.073 180.582 122.193C180.762 122.339 181.01 122.358 181.239 122.392Z" fill="#00160A" />
</svg>
    