<svg width="26" height="24" viewBox="0 0 26 24" fill="none" xmlns="http://www.w3.org/2000/svg">
    <path d="M12.9891 21.8314C12.282 21.8314 11.6386 21.5295 11.1216 21.2869C10.885 21.1758 10.5612 21.0238 10.4486 21.0238C10.3232 21.0238 10.1312 21.1221 9.92791 21.2265C9.59463 21.3977 9.17955 21.6107 8.65673 21.6107C7.32909 21.6107 5.63794 18.1585 5.63794 16.5181C5.63794 15.4855 5.82534 14.6246 5.9755 13.9327C6.07652 13.4684 6.1635 13.068 6.1635 12.7564C6.1635 12.4927 6.12474 11.969 6.07988 11.3628C5.97489 9.94484 5.84426 8.18013 5.99076 7.20775C6.22393 5.65486 7.25584 4.13585 8.11896 3.56451C8.93386 3.02368 10.8652 2.44562 12.9772 2.38885C14.9785 2.33666 16.8927 2.80302 17.9072 3.59136C18.8964 4.36079 19.7436 6.01531 19.9912 7.17051C20.148 7.90759 20.0488 9.21509 19.9442 10.5992C19.8828 11.408 19.8248 12.1722 19.8248 12.7561C19.8248 13.48 19.9863 14.0367 20.1575 14.6264C20.3299 15.2209 20.5085 15.8356 20.5085 16.6023C20.5085 18.1335 18.6617 21.6101 17.3307 21.6101C16.7389 21.6101 16.315 21.3788 16.0055 21.2097C15.7937 21.094 15.6575 21.0232 15.5391 21.0232C15.4109 21.0232 15.0932 21.1724 14.8375 21.2927C14.329 21.5317 13.6963 21.8292 12.9949 21.8311C12.9952 21.8314 12.9897 21.8314 12.9891 21.8314ZM10.4489 19.8027C10.8338 19.8027 11.2076 19.9782 11.6404 20.1814C12.0689 20.3823 12.5542 20.6103 12.9891 20.6103V21.2207L12.9928 20.6103C13.4231 20.6093 13.8785 20.3951 14.3192 20.1882C14.741 19.9898 15.1396 19.8024 15.54 19.8024C15.9765 19.8024 16.3031 19.9809 16.5912 20.1384C16.8366 20.2721 17.0325 20.3792 17.2934 20.3887C17.852 20.1421 19.2886 17.7547 19.2886 16.6023C19.2886 16.0096 19.1482 15.5264 18.9861 14.967C18.8073 14.3514 18.6049 13.6537 18.6049 12.7564C18.6049 12.1264 18.6644 11.3399 18.7273 10.5073C18.8167 9.3274 18.9181 7.9903 18.7978 7.42567C18.5997 6.5015 17.8935 5.12716 17.1585 4.5552C16.4154 3.97806 14.9043 3.6051 13.309 3.6051C13.2104 3.6051 13.1115 3.60662 13.0111 3.60937C11.0331 3.66248 9.35443 4.21032 8.79377 4.58237C8.17695 4.99043 7.37029 6.2436 7.19846 7.38935C7.07241 8.22683 7.20273 9.98756 7.29795 11.2731C7.34648 11.9293 7.38494 12.4478 7.38494 12.7567C7.38494 13.1992 7.28483 13.6595 7.16885 14.1921C7.02357 14.8599 6.85907 15.6171 6.85907 16.5181C6.85907 17.926 8.22425 20.1091 8.71258 20.3875C8.92165 20.371 9.13133 20.2635 9.37061 20.1402C9.67887 19.9821 10.0283 19.8027 10.4489 19.8027Z" fill="#6776E0" stroke="#6776E0" stroke-width="0.1" />
    <path d="M3.0114 16.8243C2.69674 16.8243 2.4016 16.7319 2.14431 16.5509C0.230063 15.2049 1.12706 7.94377 1.89771 6.37105C2.86735 4.39301 4.76603 2.63929 5.96946 2.14913C7.37707 1.57321 9.06852 2.84775 9.25683 2.99486C9.52236 3.2027 9.56936 3.58635 9.36182 3.85188C9.15428 4.11771 8.77064 4.16441 8.50481 3.95687C8.17152 3.69836 7.07278 3.01805 6.43063 3.27962C5.45061 3.67913 3.79823 5.26742 2.99401 6.90851C2.24107 8.44461 1.81622 14.828 2.84659 15.5526C2.90061 15.5901 2.9699 15.6215 3.11304 15.5925C3.93862 15.4225 5.31083 13.7219 6.02165 12.5689C6.19867 12.282 6.57438 12.1925 6.86158 12.3693C7.14847 12.5463 7.2379 12.9223 7.06088 13.2092C6.8573 13.5394 5.02454 16.4459 3.35903 16.7886C3.24061 16.8121 3.12464 16.8243 3.0114 16.8243Z" fill="#6776E0" stroke="#6776E0" stroke-width="0.1" />
    <path d="M22.9895 16.8239C22.876 16.8239 22.76 16.8117 22.6422 16.7876C20.9767 16.4452 19.1436 13.5387 18.9401 13.2082C18.7633 12.9216 18.8528 12.5456 19.1394 12.3685C19.426 12.1924 19.8023 12.2809 19.9793 12.5675C20.6916 13.7215 22.0648 15.4224 22.8882 15.5915C23.0304 15.6208 23.0997 15.5891 23.154 15.5515C24.1838 14.8273 23.759 8.44389 23.0066 6.90749C22.2021 5.2667 20.5503 3.6781 19.5706 3.27889C18.9706 3.03381 17.913 3.62927 17.4949 3.95584C17.23 4.16338 16.8457 4.11638 16.6379 3.85085C16.4304 3.58532 16.4777 3.20168 16.7432 2.99414C16.9312 2.84703 18.623 1.57279 20.0315 2.14841C21.2343 2.63857 23.133 4.39228 24.1026 6.37032C24.873 7.94335 25.7697 15.2045 23.856 16.5502C23.599 16.7318 23.3039 16.8239 22.9895 16.8239Z" fill="#6776E0" stroke="#6776E0" stroke-width="0.1" />
    <path d="M10.3076 15.5C10.3076 14.8392 11.7946 14.7947 13.1106 14.7947C14.4261 14.7947 15.9017 14.7611 15.9017 15.5C15.9017 16.2383 14.3763 18.5859 13.0127 18.5859C11.6475 18.5859 10.3076 16.1602 10.3076 15.5Z" fill="#6776E0" stroke="#6776E0" stroke-width="0.1" />
    <path d="M10.7825 10.4686C10.7825 11.0967 10.3024 11.6055 9.71062 11.6055C9.11699 11.6055 8.63721 11.0967 8.63721 10.4686C8.63721 9.84264 9.11699 9.33325 9.71062 9.33325C10.3027 9.33295 10.7825 9.84264 10.7825 10.4686Z" fill="#6776E0" stroke="#6776E0" stroke-width="0.1" />
    <path d="M17.316 10.4686C17.316 11.0967 16.8362 11.6055 16.2435 11.6055C15.6505 11.6055 15.1704 11.0967 15.1704 10.4686C15.1704 9.84264 15.6502 9.33325 16.2435 9.33325C16.8362 9.33295 17.316 9.84264 17.316 10.4686Z" fill="#6776E0" stroke="#6776E0" stroke-width="0.1" />
    <path d="M13.0491 21.1169C12.7961 21.1169 12.5913 20.9118 12.5913 20.6591V18.5859C12.5913 18.3332 12.7961 18.1281 13.0491 18.1281C13.3018 18.1281 13.5069 18.3332 13.5069 18.5859V20.6591C13.5069 20.9118 13.3018 21.1169 13.0491 21.1169Z" fill="#6776E0" stroke="#6776E0" stroke-width="0.1" />
</svg>
    