<svg width="24" height="24" viewBox="0 0 24 24" fill="none" xmlns="http://www.w3.org/2000/svg">
    <g clip-path="url(#clip0_3222_7617)">
        <path d="M23.2493 11.84C22.4468 11.1787 21.1785 11.1219 20.346 12.0153L18.2794 14.2338C18.0122 13.3751 17.2103 12.7498 16.2649 12.7498H12.577C12.2971 12.7498 12.2034 12.6429 11.7173 12.2685C9.864 10.6528 7.08028 10.6579 5.23256 12.2839L3.87703 13.4773C3.2677 13.1548 2.55619 13.1468 1.94353 13.4529L0.388782 14.23C0.0414378 14.4039 -0.0991403 14.8262 0.0742504 15.1736L4.29277 23.6106C4.46667 23.9579 4.88897 24.0985 5.23631 23.9251L6.79106 23.1475C7.55742 22.7646 7.98394 21.9827 7.95628 21.1868H16.2648C17.8055 21.1868 19.2778 20.451 20.2021 19.2182L23.5774 14.7176C24.2322 13.8452 24.1286 12.5661 23.2493 11.84ZM6.162 21.8899L5.23627 22.353L1.64634 15.1736L2.57255 14.7105C2.91989 14.5371 3.34172 14.6772 3.51563 15.025L6.47653 20.9468C6.64997 21.2941 6.50934 21.716 6.162 21.8899ZM22.4524 13.8738L19.0772 18.3745C18.4168 19.2552 17.3654 19.7806 16.2649 19.7806H7.46555L4.83084 14.5108L6.16153 13.3395C7.48566 12.1747 9.48244 12.1747 10.8066 13.3395C11.5865 14.0262 12.0716 14.156 12.5769 14.156H16.2648C16.6525 14.156 16.9679 14.4715 16.9679 14.8591C16.9679 15.2467 16.6524 15.5622 16.2648 15.5622H12.674C12.2858 15.5622 11.9709 15.8772 11.9709 16.2653C11.9709 16.6533 12.2859 16.9683 12.674 16.9683H16.7359C17.3195 16.9683 17.882 16.7236 18.2794 16.2967L21.3749 12.9739C21.658 12.6701 22.092 12.6954 22.3582 12.9284C22.6366 13.1721 22.6667 13.5888 22.4524 13.8738Z" fill="#9DA7F1" />
        <path d="M16.7467 6.3044C16.2809 5.59162 15.4875 5.16602 14.6243 5.16602C13.7612 5.16602 12.9677 5.59162 12.5019 6.3044L11.3794 8.02194C11.1931 8.30694 11.1072 8.6361 11.1308 8.97378C11.1544 9.31154 11.2854 9.62606 11.5097 9.88349C11.7341 10.1408 12.0306 10.3167 12.3672 10.3921C12.7037 10.4675 13.0487 10.4354 13.3648 10.2991L13.3855 10.2901C14.1809 9.95383 15.0901 9.95685 15.8836 10.2991C16.0883 10.3873 16.3051 10.432 16.5239 10.432C16.6429 10.432 16.7625 10.4187 16.8811 10.3922C17.2177 10.3168 17.5142 10.141 17.7386 9.88364C17.963 9.62629 18.0941 9.3117 18.1178 8.97394C18.1415 8.6361 18.0555 8.30694 17.8693 8.02186L16.7467 6.3044ZM17.2774 9.49677C16.9919 9.82415 16.53 9.92764 16.128 9.75427C15.6501 9.54813 15.1371 9.4451 14.624 9.4451C14.1114 9.4451 13.5986 9.54805 13.121 9.75396L13.1074 9.75985C12.7085 9.92532 12.2533 9.82051 11.971 9.49677C11.6857 9.16931 11.6533 8.70575 11.8902 8.34312L13.0129 6.62558C13.3666 6.08439 13.9689 5.76128 14.6243 5.76128C15.2796 5.76128 15.8821 6.08439 16.2358 6.62558L17.3583 8.34304C17.5954 8.70582 17.5628 9.16947 17.2774 9.49677Z" fill="#9DA7F1" stroke="#9DA7F1" stroke-width="0.5" />
        <path d="M10.4581 6.97551C10.7921 6.8497 11.0458 6.58577 11.1726 6.23228C11.2931 5.89592 11.2832 5.51618 11.1446 5.16292C11.0059 4.8099 10.7536 4.52172 10.4343 4.35137C10.0987 4.1725 9.73005 4.14337 9.39664 4.26941C8.72589 4.52234 8.41808 5.33529 8.71057 6.082C8.94421 6.67633 9.48914 7.0515 10.0401 7.0515C10.1807 7.0515 10.3218 7.02702 10.4581 6.97551ZM9.2769 5.86819C9.10455 5.42817 9.25597 4.96011 9.61465 4.82485C9.67942 4.80038 9.7479 4.78821 9.8178 4.78821C9.9257 4.78821 10.0371 4.81711 10.1444 4.87436C10.3373 4.97716 10.4914 5.15564 10.5783 5.37681C10.6651 5.59814 10.6728 5.83178 10.6 6.03482C10.5333 6.2209 10.4055 6.3577 10.2405 6.41991L10.2401 6.42007C9.88194 6.55548 9.4498 6.30782 9.2769 5.86819Z" fill="#9DA7F1" stroke="#9DA7F1" stroke-width="0.5" />
        <path d="M13.2264 4.54501C14.065 4.54501 14.7472 3.78273 14.7472 2.84576C14.7472 1.90856 14.065 1.14612 13.2264 1.14612C12.388 1.14612 11.7059 1.90856 11.7059 2.84576C11.7059 3.78273 12.388 4.54501 13.2264 4.54501ZM13.2264 1.7413C13.7303 1.7413 14.1403 2.23679 14.1403 2.84576C14.1403 3.4545 13.7303 3.94983 13.2264 3.94983C12.7226 3.94983 12.3127 3.4545 12.3127 2.84576C12.3127 2.23679 12.7226 1.7413 13.2264 1.7413Z" fill="#9DA7F1" stroke="#9DA7F1" stroke-width="0.5" />
        <path d="M16.8572 4.9027H16.8573C16.9862 4.94469 17.1178 4.96475 17.2489 4.96475C17.8604 4.96475 18.4563 4.52822 18.6837 3.85735C18.8147 3.47118 18.8061 3.06285 18.6595 2.70766C18.5061 2.33589 18.2218 2.06599 17.859 1.94762C17.4961 1.82941 17.1035 1.87868 16.7536 2.08645C16.4194 2.285 16.1634 2.60695 16.0326 2.99313C15.7566 3.80778 16.1265 4.66441 16.8572 4.9027ZM16.6085 3.18083C16.6939 2.92867 16.8571 2.72091 17.0681 2.59556C17.2633 2.47959 17.4762 2.45008 17.6676 2.51244C17.8589 2.57488 18.0113 2.72346 18.097 2.93092C18.1894 3.15511 18.1934 3.41742 18.1079 3.66957C17.9373 4.1728 17.4621 4.4726 17.0486 4.33789C16.6355 4.20309 16.438 3.68406 16.6085 3.18083Z" fill="#9DA7F1" stroke="#9DA7F1" stroke-width="0.5" />
        <path d="M20.8238 5.34111L20.8235 5.34088C20.2453 4.92194 19.3805 5.10352 18.8956 5.74588C18.4111 6.38856 18.4869 7.25256 19.0643 7.67181C19.2749 7.82481 19.5237 7.89794 19.7783 7.89794C20.2221 7.89794 20.6839 7.67576 20.9925 7.2672C21.4769 6.62452 21.4013 5.76053 20.8238 5.34111ZM20.5048 6.91309C20.2184 7.29214 19.7343 7.41787 19.4254 7.19345C19.1167 6.96933 19.0979 6.47865 19.3835 6.09983C19.5733 5.84837 19.8505 5.70847 20.106 5.70847C20.2353 5.70847 20.3589 5.74426 20.4629 5.81963C20.7713 6.04398 20.7901 6.53451 20.5048 6.91309Z" fill="#9DA7F1" stroke="#9DA7F1" stroke-width="0.5" />
    </g>
    <defs>
        <clipPath id="clip0_3222_7617">
            <rect width="24" height="24" fill="white" />
        </clipPath>
    </defs>
</svg>
    