<svg width="24" height="24" viewBox="0 0 24 24" fill="none" xmlns="http://www.w3.org/2000/svg">
    <g clip-path="url(#clip0_3550_963)">
        <path d="M2.58599 18.4453H5.51567V20.2031C5.51567 20.5267 5.77801 20.789 6.1016 20.789H21.4141C21.7377 20.789 22 20.5267 22 20.2031V4.96875C22 4.64515 21.7377 4.38281 21.4141 4.38281H18.4844V3.79687C18.4844 3.47328 18.222 3.21094 17.8985 3.21094C17.5749 3.21094 17.3125 3.47328 17.3125 3.79687V4.38281H14.3438V3.79687C14.3438 3.47328 14.0814 3.21094 13.7578 3.21094C13.4342 3.21094 13.1719 3.47328 13.1719 3.79687V4.38281H10.2422V3.79687C10.2422 3.47328 9.97988 3.21094 9.65628 3.21094C9.33269 3.21094 9.07035 3.47328 9.07035 3.79687V4.38281H6.1016C5.77801 4.38281 5.51567 4.64515 5.51567 4.96875V8.48436C5.51567 12.8027 3.72094 16.1248 2.21087 17.4092C2.02134 17.5672 1.95106 17.8268 2.03501 18.0588C2.11903 18.2908 2.33927 18.4453 2.58599 18.4453ZM20.8281 19.6172H6.68754V18.4453H17.8985C18.0355 18.4453 18.1683 18.3972 18.2736 18.3095C18.9779 17.7228 20.069 16.326 20.8281 14.537V19.6172ZM6.68754 5.55468H9.07035V6.14062C9.07035 6.46421 9.33269 6.72656 9.65628 6.72656C9.97988 6.72656 10.2422 6.46421 10.2422 6.14062V5.55468H13.1719V6.14062C13.1719 6.46421 13.4342 6.72656 13.7578 6.72656C14.0814 6.72656 14.3438 6.46421 14.3438 6.14062V5.55468H17.3125V6.14062C17.3125 6.46421 17.5749 6.72656 17.8985 6.72656C18.222 6.72656 18.4844 6.46421 18.4844 6.14062V5.55468H20.8281V7.89843H6.68754V5.55468ZM6.6775 9.06991H20.8177C20.6857 12.7869 19.2591 15.7114 17.6687 17.2734H3.91876C5.72082 14.9773 6.58082 11.9876 6.6775 9.06991Z" fill="#9395A7" />
    </g>
    <defs>
        <clipPath id="clip0_3550_963">
            <rect width="20" height="20" fill="white" transform="translate(2 2)" />
        </clipPath>
    </defs>
</svg>
    