<svg width="24" height="24" viewBox="0 0 24 24" fill="none" xmlns="http://www.w3.org/2000/svg">
    <path d="M3.85506 1.61732H20.1684C21.874 1.61732 23.2617 3.00476 23.2617 4.71066V14.6941C23.2617 16.3961 21.8801 17.7814 20.1794 17.7874V22.3178L13.6687 17.7874H3.85506C2.14943 17.7874 0.761723 16.3997 0.761723 14.6941V4.71066C0.761723 3.00476 2.14943 1.61732 3.85506 1.61732ZM2.08008 14.6941C2.08008 15.6727 2.87632 16.4691 3.85506 16.4691H14.0824L18.861 19.7943V16.4691H20.1684C21.1471 16.4691 21.9434 15.6727 21.9434 14.6941V4.71066C21.9434 3.73178 21.1471 2.93568 20.1684 2.93568H3.85506C2.87632 2.93568 2.08008 3.73178 2.08008 4.71066V14.6941Z" fill="#6776E0" />
    <path d="M17.2397 7.08813H6.78375V8.40649H17.2397V7.08813Z" fill="#6776E0" />
    <path d="M17.2397 10.9006H6.78375V12.219H17.2397V10.9006Z" fill="#6776E0" />
</svg>
    