<svg width="24" height="24" viewBox="0 0 24 24" fill="none" xmlns="http://www.w3.org/2000/svg">
    <g clip-path="url(#clip0_3324_8350)">
        <path d="M18.1451 6.87103C18.1554 6.8433 18.1705 6.81832 18.1746 6.78819L19.2106 0.605019C19.2357 0.453721 19.1933 0.299514 19.0962 0.184159C18.998 0.0672624 18.8532 0 18.7016 0H5.29786C5.14554 0 5.00091 0.0662355 4.90233 0.183987C4.80426 0.299343 4.76164 0.45355 4.78749 0.604848L5.82347 6.78802C5.82843 6.81832 5.8452 6.84313 5.8553 6.87086C3.70513 8.64587 2.3313 11.3307 2.3313 14.3306C2.3313 19.662 6.66861 23.9998 11.9995 23.9998C17.3318 23.9998 21.6688 19.662 21.6688 14.3306C21.6686 11.3307 20.2948 8.64587 18.1451 6.87103ZM20.3444 12.1538C18.9432 13.0662 17.3257 13.5558 15.6463 13.5558C15.6463 13.5558 15.6443 13.5558 15.6424 13.5558C11.6844 13.5558 8.28273 10.9114 7.29348 7.10311C8.64951 6.2174 10.2647 5.69745 12.0005 5.69745C16.0075 5.69745 19.3762 8.44665 20.3444 12.1538ZM5.91144 1.03581H18.0893L17.2233 6.20525C15.7141 5.23311 13.9225 4.66147 12.0003 4.66147C10.0778 4.66147 8.28564 5.23414 6.77729 6.20731L5.91144 1.03581ZM6.40555 7.7694C6.91592 9.43812 7.84219 10.8917 9.06164 12.0223C7.51273 13.5014 5.51591 14.3368 3.37121 14.4037C3.37121 14.3794 3.36813 14.3553 3.36813 14.3308C3.36711 11.7045 4.55027 9.35289 6.40555 7.7694ZM11.9995 22.964C7.61559 22.964 3.99181 19.6742 3.44618 15.4356C5.87207 15.3526 8.13144 14.3875 9.8664 12.6838C11.4875 13.8898 13.49 14.5918 15.6403 14.5918C15.6424 14.5918 15.6443 14.5918 15.6463 14.5918C17.3895 14.5918 19.0658 14.1061 20.5529 13.224C20.5993 13.5884 20.6318 13.9545 20.6318 14.3308C20.6328 19.0916 16.7612 22.964 11.9995 22.964ZM11.9995 4.54868C11.7138 4.54868 11.4815 4.31746 11.4815 4.03078V3.45571H10.9065C10.6207 3.45571 10.3886 3.22449 10.3886 2.93781C10.3886 2.65301 10.6207 2.4199 10.9065 2.4199H11.4815V1.84535C11.4815 1.56004 11.7138 1.32745 11.9995 1.32745C12.2853 1.32745 12.5174 1.56004 12.5174 1.84535V2.4199H13.0934C13.3793 2.4199 13.6115 2.65318 13.6115 2.93781C13.6115 3.22466 13.3793 3.45571 13.0934 3.45571H12.5174V4.03078C12.5174 4.31763 12.2853 4.54868 11.9995 4.54868Z" fill="#FAFAFA" stroke="#FAFAFA" stroke-width="0.25" />
    </g>
    <defs>
        <clipPath id="clip0_3324_8350">
            <rect width="24" height="24" fill="white" />
        </clipPath>
    </defs>
</svg>
    