<svg width="24" height="24" viewBox="0 0 24 24" fill="none" xmlns="http://www.w3.org/2000/svg">
    <g clip-path="url(#clip0_3550_955)">
        <path d="M19.32 12.1362L20.4545 11.0018C22.5151 8.94117 22.5154 5.60582 20.4545 3.54496C18.3939 1.48434 15.0585 1.48406 12.9976 3.54496C12.5578 3.98473 3.94453 12.598 3.54559 12.997C1.48492 15.0577 1.48469 18.393 3.54559 20.4539C5.60617 22.5145 8.94156 22.5148 11.0024 20.4539L12.1369 19.3195C13.0437 20.9175 14.761 21.9982 16.726 21.9982C19.6334 21.9982 21.9988 19.6329 21.9988 16.7254C21.9988 14.7604 20.9182 13.0431 19.32 12.1362ZM11.4532 16.7254C11.4532 17.2189 11.5216 17.6968 11.6489 18.1503L10.1739 19.6253C8.57121 21.228 5.97703 21.2282 4.37414 19.6253C2.77145 18.0227 2.77121 15.4284 4.37414 13.8255L8.65012 9.54957L12.5764 13.4758C11.873 14.3719 11.4532 15.5005 11.4532 16.7254ZM16.1401 20.7845C14.1553 20.4993 12.6249 18.7879 12.6249 16.7254C12.6249 14.6629 14.1553 12.9515 16.1401 12.6663V20.7845ZM13.3971 12.6395L9.47863 8.72102L13.8261 4.37352C15.4288 2.77086 18.023 2.77062 19.6259 4.37352C21.2286 5.97617 21.2288 8.57039 19.6259 10.1733L18.1509 11.6483C17.6974 11.5209 17.2196 11.4526 16.726 11.4526C15.4647 11.4526 14.3055 11.898 13.3971 12.6395ZM17.3119 20.7845V12.6664C19.2967 12.9515 20.8271 14.663 20.8271 16.7254C20.8271 18.7879 19.2967 20.4993 17.3119 20.7845Z" fill="#9395A7" />
    </g>
    <defs>
        <clipPath id="clip0_3550_955">
            <rect width="20" height="20" fill="white" transform="translate(2 2)" />
        </clipPath>
    </defs>
</svg>
    