<svg width="24" height="24" viewBox="0 0 24 24" fill="none" xmlns="http://www.w3.org/2000/svg">
    <g clip-path="url(#clip0_3550_970)">
        <path d="M15.3745 12.5997C14.4745 11.1957 12.9418 10.3574 11.2743 10.3574C9.60695 10.3574 8.07405 11.1957 7.17424 12.5997L5.00566 15.9827C4.64586 16.5441 4.47984 17.1924 4.52547 17.8575C4.57109 18.5228 4.82423 19.1423 5.25743 19.6494C5.69093 20.1563 6.26375 20.5027 6.91392 20.6513C7.5641 20.7997 8.2306 20.7364 8.84126 20.468L8.88109 20.4503C10.4178 19.7879 12.1742 19.7939 13.7071 20.468C14.1025 20.6418 14.5213 20.7297 14.944 20.7297C15.1738 20.7297 15.405 20.7036 15.634 20.6514C16.2842 20.503 16.857 20.1566 17.2907 19.6497C17.724 19.1428 17.9773 18.5231 18.0231 17.8578C18.0689 17.1924 17.9028 16.5441 17.543 15.9825L15.3745 12.5997ZM16.3997 18.8877C15.8481 19.5325 14.9558 19.7364 14.1791 19.3949C13.2559 18.9888 12.265 18.7859 11.2738 18.7859C10.2835 18.7859 9.29277 18.9887 8.37022 19.3943L8.34398 19.4059C7.57326 19.7318 6.69404 19.5253 6.14854 18.8877C5.59755 18.2427 5.53483 17.3296 5.9926 16.6153L8.16133 13.2323C8.84462 12.1663 10.0083 11.5299 11.2743 11.5299C12.5403 11.5299 13.7041 12.1663 14.3875 13.2323L16.556 16.6152C17.0139 17.3297 16.951 18.243 16.3997 18.8877Z" fill="#9395A7" />
        <path d="M5.58965 12.5952C6.23479 12.3474 6.7249 11.8276 6.9698 11.1313C7.20265 10.4688 7.18358 9.72078 6.91579 9.02498C6.64784 8.32964 6.16048 7.76201 5.54357 7.42647C4.89522 7.07415 4.18309 7.01677 3.53902 7.26503C2.24324 7.76323 1.64861 9.36449 2.21364 10.8353C2.66499 12.0059 3.7177 12.7449 4.782 12.7449C5.05376 12.7449 5.32628 12.6967 5.58965 12.5952ZM3.30769 10.4141C2.97475 9.54744 3.26726 8.62551 3.96016 8.35909C4.08528 8.31087 4.21758 8.28692 4.35262 8.28692C4.56105 8.28692 4.77635 8.34383 4.98357 8.45659C5.35619 8.65908 5.65389 9.01064 5.82173 9.44628C5.98943 9.88222 6.00438 10.3424 5.86369 10.7424C5.73476 11.1089 5.48802 11.3783 5.16911 11.5009L5.1685 11.5012C4.47652 11.7679 3.64171 11.2801 3.30769 10.4141Z" fill="#9395A7" />
        <path d="M9.79733 9.94479C11.4172 9.94479 12.7351 8.44333 12.7351 6.59778C12.7351 4.75177 11.4172 3.25 9.79733 3.25C8.17761 3.25 6.85986 4.75177 6.85986 6.59778C6.85986 8.44333 8.17761 9.94479 9.79733 9.94479ZM9.79733 4.42233C10.7707 4.42233 11.5628 5.39828 11.5628 6.59778C11.5628 7.79681 10.7707 8.77246 9.79733 8.77246C8.82397 8.77246 8.0322 7.79681 8.0322 6.59778C8.0322 5.39828 8.82397 4.42233 9.79733 4.42233Z" fill="#9395A7" />
        <path d="M14.8709 10.7671H14.8711C15.1202 10.8498 15.3745 10.8893 15.6276 10.8893C16.8089 10.8893 17.9602 10.0295 18.3995 8.70807C18.6525 7.94742 18.6359 7.14313 18.3527 6.44351C18.0563 5.71124 17.5072 5.17963 16.8062 4.94647C16.1052 4.71362 15.3467 4.81067 14.6709 5.21991C14.0253 5.61099 13.5306 6.24515 13.278 7.0058C12.7448 8.61041 13.4593 10.2977 14.8709 10.7671ZM14.3906 7.37552C14.5555 6.87884 14.8708 6.4696 15.2783 6.22272C15.6554 5.99429 16.0667 5.93616 16.4365 6.05899C16.806 6.18198 17.1005 6.47464 17.2659 6.88327C17.4446 7.32486 17.4522 7.84152 17.287 8.33819C16.9576 9.32941 16.0396 9.91992 15.2408 9.65457C14.4426 9.38907 14.0611 8.36673 14.3906 7.37552Z" fill="#9395A7" />
        <path d="M21.0577 10.3765L21.0572 10.376C19.9401 9.55081 18.2695 9.90848 17.3327 11.1737C16.3969 12.4396 16.5432 14.1414 17.6587 14.9672C18.0655 15.2686 18.5461 15.4126 19.038 15.4126C19.8954 15.4126 20.7875 14.975 21.3836 14.1703C22.3194 12.9044 22.1733 11.2026 21.0577 10.3765ZM20.4414 13.4728C19.8883 14.2194 18.9531 14.467 18.3563 14.025C17.76 13.5836 17.7237 12.6171 18.2753 11.8709C18.6419 11.3756 19.1775 11.1 19.6711 11.1C19.9208 11.1 20.1597 11.1705 20.3605 11.319C20.9564 11.7609 20.9925 12.7271 20.4414 13.4728Z" fill="#9395A7" />
    </g>
    <defs>
        <clipPath id="clip0_3550_970">
            <rect width="20" height="20" fill="white" transform="translate(2 2)" />
        </clipPath>
    </defs>
</svg>
    