<svg width="24" height="24" viewBox="0 0 24 24" fill="none" xmlns="http://www.w3.org/2000/svg">
    <path d="M21.96 13.1041C21.381 12.7832 20.7267 12.6387 20.0743 12.6387V2.65737C20.0743 2.29468 19.7792 2.00003 19.417 2.00003H0.657335C0.294651 2.00003 0 2.29468 0 2.65737V19.2144C0 19.5752 0.294651 19.8724 0.657335 19.8724H11.8782C12.0413 19.8724 12.1844 19.8037 12.2986 19.708C13.9169 21.763 16.7663 23.5945 17.181 23.8528C17.2887 23.9232 17.4093 23.9541 17.5303 23.9541C17.6512 23.9541 17.7738 23.9232 17.882 23.8528C18.4263 23.5112 23.2186 20.4314 23.8025 17.7749C23.9343 17.3763 23.9998 16.9686 23.9998 16.5562C23.9986 15.1169 23.2188 13.7952 21.96 13.1041ZM1.31467 18.5521V11.1638H6.36081L8.13294 16.6768C8.22068 16.9487 8.4731 17.1326 8.7586 17.1326C8.76517 17.1326 8.77291 17.1326 8.78042 17.1326C9.0739 17.1218 9.32609 16.9191 9.396 16.6341L11.353 8.80422L11.7319 11.4526C11.7778 11.7758 12.0551 12.0168 12.3824 12.0168H16.6469C17.0093 12.0168 17.3042 11.7221 17.3042 11.3597C17.3042 10.997 17.0093 10.7021 16.6469 10.7021H12.952L12.1792 5.29844C12.1344 4.98783 11.878 4.75136 11.5622 4.73423C11.2258 4.71946 10.9668 4.92613 10.8908 5.23228L8.6786 14.0824L7.4634 10.3049C7.37684 10.0328 7.12324 9.84793 6.83844 9.84793H1.31326V3.31071H18.7599V12.8545C18.3132 13.0056 17.89 13.2249 17.5287 13.5285C16.3224 12.5204 14.493 12.3269 13.0974 13.0997C11.8398 13.7941 11.0593 15.1169 11.0593 16.5522C11.0593 16.9705 11.1257 17.385 11.239 17.7076C11.3009 17.986 11.4154 18.2685 11.5561 18.5545H1.31467V18.5521ZM22.5364 17.4223C22.1563 19.1386 19.0639 21.4932 17.5285 22.5109C15.9937 21.4942 12.9004 19.136 12.503 17.3552C12.4178 17.1028 12.3735 16.8328 12.3735 16.5543C12.3735 15.5969 12.8938 14.7186 13.7334 14.2539C14.1189 14.0409 14.5543 13.9278 14.9958 13.9278C15.7831 13.9278 16.5209 14.2769 17.022 14.8828C17.1487 15.0304 17.3321 15.119 17.5285 15.119C17.7255 15.119 17.9116 15.0318 18.0343 14.8802C18.8187 13.9341 20.2538 13.6594 21.3207 14.2536C22.1615 14.7181 22.6842 15.5967 22.6842 16.5555C22.6842 16.8269 22.6417 17.0964 22.5364 17.4223Z" fill="#6776E0" />
</svg>
    