<svg width="24" height="24" viewBox="0 0 24 24" fill="none" xmlns="http://www.w3.org/2000/svg">
    <path d="M7.50979 2.34323L3.94678 5.90624H7.50979V2.34323Z" fill="#6776E0" />
    <path d="M12.8809 6.375C13.2045 6.375 13.4668 6.11267 13.4668 5.78906C13.4668 5.46546 13.2045 5.20312 12.8809 5.20312C12.5573 5.20312 12.2949 5.46546 12.2949 5.78906C12.2949 6.11267 12.5573 6.375 12.8809 6.375Z" fill="#6776E0" />
    <path d="M18.6426 4.92978V17.3125C18.6426 18.9279 17.3283 20.2422 15.7129 20.2422H6.5293C6.5293 21.2114 7.31785 22 8.28711 22H18.6387C19.6079 22 20.3965 21.2114 20.3965 20.2422V6.68751C20.3965 5.71954 19.61 4.93193 18.6426 4.92978Z" fill="#6776E0" />
    <path d="M15.7129 2H8.68164V6.49219C8.68164 6.81578 8.4193 7.07812 8.0957 7.07812H3.60352V17.3125C3.60352 18.2818 4.39207 19.0703 5.36133 19.0703H15.7129C16.6821 19.0703 17.4707 18.2818 17.4707 17.3125V3.75781C17.4707 2.78855 16.6821 2 15.7129 2ZM6.24023 9.10938H8.97461C9.2982 9.10938 9.56055 9.37172 9.56055 9.69531C9.56055 10.0189 9.2982 10.2812 8.97461 10.2812H6.24023C5.91664 10.2812 5.6543 10.0189 5.6543 9.69531C5.6543 9.37172 5.91664 9.10938 6.24023 9.10938ZM14.834 17.3125H6.24023C5.91664 17.3125 5.6543 17.0502 5.6543 16.7266C5.6543 16.403 5.91664 16.1406 6.24023 16.1406H14.834C15.1576 16.1406 15.4199 16.403 15.4199 16.7266C15.4199 17.0502 15.1576 17.3125 14.834 17.3125ZM14.834 14.9688H6.24023C5.91664 14.9688 5.6543 14.7064 5.6543 14.3828C5.6543 14.0592 5.91664 13.7969 6.24023 13.7969H14.834C15.1576 13.7969 15.4199 14.0592 15.4199 14.3828C15.4199 14.7064 15.1576 14.9688 14.834 14.9688ZM14.834 12.625H6.24023C5.91664 12.625 5.6543 12.3627 5.6543 12.0391C5.6543 11.7155 5.91664 11.4531 6.24023 11.4531H14.834C15.1576 11.4531 15.4199 11.7155 15.4199 12.0391C15.4199 12.3627 15.1576 12.625 14.834 12.625ZM15.4199 9.69531C15.4199 10.0189 15.1576 10.2812 14.834 10.2812H10.9277C10.6041 10.2812 10.3418 10.0189 10.3418 9.69531V8.91406C10.3418 8.04238 10.7834 7.27207 11.4546 6.81465C11.2463 6.52574 11.123 6.17164 11.123 5.78906C11.123 4.8198 11.9116 4.03125 12.8809 4.03125C13.8501 4.03125 14.6387 4.8198 14.6387 5.78906C14.6387 6.17164 14.5154 6.52578 14.3071 6.81465C14.9782 7.27207 15.4199 8.04238 15.4199 8.91406V9.69531Z" fill="#6776E0" />
    <path d="M12.8809 7.54688C12.127 7.54688 11.5137 8.1602 11.5137 8.91406V9.10938H14.248V8.91406C14.248 8.1602 13.6347 7.54688 12.8809 7.54688Z" fill="#6776E0" />
</svg>
    