<svg width="24" height="24" viewBox="0 0 24 24" fill="none" xmlns="http://www.w3.org/2000/svg">
    <path d="M12.0002 13.2365C8.37293 13.2365 4.71453 11.396 1.12763 7.76485C0.952545 7.58703 0.958045 7.30607 1.14138 7.13624C1.32471 6.96642 1.61346 6.97176 1.78946 7.14958C8.60576 14.0483 15.3955 14.0483 22.2109 7.14958C22.3869 6.97176 22.6756 6.96642 22.859 7.13624C23.0414 7.30607 23.0478 7.58703 22.8727 7.76485C19.2858 11.396 15.6274 13.2365 12.0002 13.2365Z" fill="#9395A7" />
    <path d="M12 15.9596C11.724 15.9596 11.5 15.758 11.5 15.5098V12.8111C11.5 12.5628 11.724 12.3613 12 12.3613C12.276 12.3613 12.5 12.5628 12.5 12.8111V15.5098C12.5 15.758 12.276 15.9596 12 15.9596Z" fill="#9395A7" />
    <path d="M22.5416 11.486C22.4241 11.486 22.3066 11.4422 22.2166 11.3556L20.3343 9.52491C20.1553 9.35077 20.1553 9.06768 20.3343 8.89354C20.5133 8.7194 20.8044 8.7194 20.9835 8.89354L22.8657 10.7242C23.0448 10.8984 23.0448 11.1815 22.8657 11.3556C22.7767 11.4422 22.6591 11.486 22.5416 11.486Z" fill="#9395A7" />
    <path d="M1.45932 11.486C1.34179 11.486 1.22427 11.4422 1.13428 11.3556C0.955239 11.1815 0.955239 10.8984 1.13428 10.7242L3.01656 8.89354C3.19561 8.7194 3.48667 8.7194 3.66572 8.89354C3.84476 9.06768 3.84476 9.35077 3.66572 9.52491L1.78344 11.3556C1.69438 11.4422 1.57685 11.486 1.45932 11.486Z" fill="#9395A7" />
    <path d="M17.9409 14.598C17.7817 14.598 17.6272 14.5186 17.5416 14.3751L16.1616 12.0582C16.0347 11.845 16.1101 11.5722 16.33 11.4491C16.5489 11.3251 16.8305 11.3983 16.9583 11.6123L18.3383 13.9292C18.4653 14.1423 18.3898 14.4152 18.17 14.5383C18.0982 14.5793 18.0191 14.598 17.9409 14.598Z" fill="#9395A7" />
    <path d="M6.05998 14.598C5.98178 14.598 5.90266 14.5793 5.82998 14.5383C5.61011 14.4152 5.53467 14.1423 5.66162 13.9291L7.04161 11.6121C7.16857 11.3989 7.45009 11.3249 7.66997 11.4489C7.88985 11.572 7.96529 11.8449 7.83833 12.058L6.45834 14.3751C6.37278 14.5178 6.21822 14.598 6.05998 14.598Z" fill="#9395A7" />
</svg>
    